<svg width="97" height="43" viewBox="0 0 97 43" fill="none" xmlns="http://www.w3.org/2000/svg">
<path d="M52.1286 22.6536C52.1693 22.672 52.2101 22.6904 52.2521 22.7094C52.2831 22.7234 52.314 22.7374 52.346 22.7519C52.3494 24.4472 52.3521 26.1424 52.3537 27.8377C52.3539 28.0383 52.3541 28.2389 52.3543 28.4394C52.3543 28.4794 52.3544 28.5193 52.3544 28.5604C52.3551 29.2052 52.3562 29.8499 52.3576 30.4947C52.3591 31.1573 52.3599 31.8199 52.3602 32.4825C52.3604 32.8907 52.3611 33.2988 52.3623 33.707C52.3632 34.0211 52.3633 34.3352 52.3631 34.6493C52.3631 34.7773 52.3634 34.9054 52.364 35.0334C52.368 35.9403 52.3184 36.8138 52.065 37.6896C52.0524 37.7334 52.0398 37.7772 52.0268 37.8223C51.6812 38.9589 51.0589 39.9149 50.275 40.787C50.2285 40.8395 50.2285 40.8395 50.1811 40.8931C48.9816 42.1785 47.0514 42.9341 45.3295 42.9903C45.1335 42.9943 44.9375 42.9957 44.7414 42.9961C44.6195 42.9966 44.4977 42.9982 44.3758 42.9998C43.679 43.0046 43.013 42.9094 42.3417 42.7156C42.3044 42.7049 42.2671 42.6942 42.2286 42.6832C41.3383 42.4168 40.4684 41.9676 39.7689 41.349C39.7211 41.3104 39.6734 41.2718 39.6242 41.232C39.5772 41.1926 39.5301 41.1532 39.4816 41.1127C39.4387 41.0772 39.3958 41.0418 39.3516 41.0053C39.2638 40.8891 39.2638 40.8891 39.2715 40.7577C39.3267 40.5318 39.4135 40.3289 39.507 40.1168C39.526 40.073 39.545 40.0292 39.5646 39.9841C39.625 39.845 39.6859 39.7061 39.7468 39.5672C39.7879 39.4726 39.8291 39.378 39.8702 39.2834C39.9707 39.0521 40.0717 38.821 40.1729 38.5901C40.3588 38.6502 40.5355 38.7158 40.7114 38.8014C42.1641 39.4963 43.8346 40.1082 45.4473 39.6282C45.9778 39.4302 46.3939 39.1496 46.7898 38.7433C46.8176 38.7157 46.8454 38.6881 46.8741 38.6597C47.7971 37.6659 47.9637 36.1977 47.9547 34.9019C47.9544 34.807 47.9544 34.8071 47.954 34.7102C47.9534 34.5559 47.9526 34.4016 47.9515 34.2473C47.916 34.2894 47.8804 34.3314 47.8438 34.3747C46.9681 35.386 45.8035 36.0209 44.4663 36.1377C42.9648 36.2227 41.6141 35.8148 40.476 34.8093C40.4195 34.7599 40.4195 34.7599 40.3618 34.7095C39.1458 33.5619 38.575 31.7835 38.5006 30.1403C38.433 27.9866 39.0104 25.8667 40.4894 24.2724C43.3947 21.2335 48.4723 20.9995 52.1286 22.6536ZM43.6487 26.0313C42.7885 27.0618 42.6806 28.295 42.749 29.5981C42.7816 29.8837 42.8526 30.1455 42.951 30.4155C42.9785 30.4917 42.9785 30.4917 43.0065 30.5694C43.2841 31.2519 43.7438 31.7954 44.4158 32.0951C45.2525 32.4162 46.0748 32.3522 46.9035 32.0153C47.2352 31.8631 47.5158 31.6658 47.8 31.4373C47.8529 31.4045 47.8529 31.4045 47.9068 31.3709C48.0122 31.2919 48.0122 31.2919 48.0269 31.1671C48.0267 31.1209 48.0265 31.0747 48.0264 31.0271C48.0266 30.974 48.0269 30.9209 48.0272 30.8662C48.0265 30.808 48.0257 30.7498 48.025 30.6898C48.025 30.6285 48.0251 30.5672 48.0251 30.504C48.025 30.3358 48.024 30.1677 48.0225 29.9996C48.0213 29.8239 48.0212 29.6481 48.0209 29.4724C48.0203 29.1397 48.0186 28.8069 48.0166 28.4742C48.0144 28.0954 48.0132 27.7165 48.0122 27.3377C48.0101 26.5584 48.0066 25.7792 48.0021 24.9999C47.9233 24.9666 47.8443 24.9337 47.7653 24.9009C47.7213 24.8825 47.6774 24.8642 47.6321 24.8452C46.2389 24.333 44.6162 25.0092 43.6487 26.0313Z" fill="#485954"/>
<path d="M35.1758 22.3174C35.2179 22.3313 35.2599 22.3452 35.3033 22.3596C35.532 22.438 35.7518 22.5278 35.9713 22.6298C36.0206 22.6527 36.0699 22.6755 36.1207 22.6991C36.1579 22.7164 36.1951 22.7338 36.2334 22.7516C36.2337 22.8198 36.2337 22.8198 36.2339 22.8893C36.238 23.9968 36.2427 25.1043 36.2479 26.2118C36.2505 26.7474 36.2528 27.283 36.2547 27.8186C36.2564 28.2857 36.2584 28.7528 36.2608 29.2198C36.2621 29.4669 36.2632 29.714 36.2639 29.9611C36.2645 30.1942 36.2657 30.4272 36.2671 30.6603C36.2676 30.7454 36.2679 30.8304 36.268 30.9155C36.2258 31.88 36.2258 31.88 36.587 32.7144C36.8038 32.9128 36.97 32.9406 37.2509 32.9359C37.3813 32.9204 37.5036 32.8958 37.6315 32.8665C37.6723 32.8572 37.7132 32.8479 37.7554 32.8383C37.7865 32.8311 37.8176 32.8239 37.8497 32.8165C37.9377 33.0745 38.0249 33.3327 38.1115 33.5911C38.141 33.679 38.1708 33.7668 38.2007 33.8546C38.2437 33.9807 38.286 34.1071 38.3282 34.2335C38.3417 34.2727 38.3552 34.3119 38.3692 34.3522C38.4753 34.6741 38.4753 34.6741 38.4053 34.8602C38.3037 34.9499 38.2066 35.0262 38.096 35.1028C38.0644 35.125 38.0328 35.1473 38.0003 35.1701C36.9644 35.8837 35.8017 36.2808 34.5385 36.1137C33.7659 35.9553 33.1582 35.5382 32.6878 34.9019C32.4826 34.578 32.3137 34.2323 32.1421 33.8894C32.1205 33.9186 32.099 33.9478 32.0768 33.9779C31.1811 35.1528 30.0807 35.8891 28.6126 36.1167C27.2575 36.2731 25.8567 35.9778 24.7612 35.1316C23.4092 33.9666 22.6226 32.4111 22.4441 30.6196C22.4385 30.4837 22.4347 30.3492 22.4338 30.2133C22.4334 30.1758 22.4331 30.1383 22.4327 30.0997C22.4181 28.1122 22.765 26.0828 24.1109 24.5398C24.1461 24.4981 24.1814 24.4563 24.2176 24.4133C25.2022 23.2707 26.4744 22.5258 27.8992 22.0875C27.939 22.0752 27.9789 22.0629 28.0199 22.0502C30.3534 21.3453 32.8843 21.5585 35.1758 22.3174ZM27.9497 25.7149C27.908 25.7476 27.8664 25.7802 27.8234 25.8139C27.2841 26.2639 26.9054 27.0255 26.7374 27.7075C26.7272 27.7447 26.717 27.782 26.7065 27.8204C26.4728 28.8398 26.5994 30.1081 27.1212 31.0154C27.577 31.7053 28.1746 32.1263 28.982 32.2897C29.9407 32.3747 30.807 32.1048 31.5864 31.5393C31.6384 31.5078 31.6904 31.4763 31.7439 31.4438C31.8516 31.3513 31.8859 31.3003 31.917 31.1594C31.9269 30.9966 31.927 30.8363 31.9239 30.6733C31.924 30.6114 31.924 30.5496 31.924 30.4859C31.9239 30.3168 31.9224 30.1477 31.9202 29.9786C31.9183 29.8018 31.9182 29.6249 31.9178 29.448C31.9169 29.1133 31.9144 28.7785 31.9113 28.4438C31.9079 28.0626 31.9063 27.6815 31.9048 27.3003C31.9016 26.5164 31.8963 25.7325 31.8895 24.9486C31.7608 24.9148 31.632 24.8813 31.5031 24.8481C31.4669 24.8385 31.4307 24.829 31.3935 24.8192C31.1106 24.7465 30.8435 24.7118 30.551 24.7186C30.484 24.7197 30.484 24.7197 30.4156 24.7207C29.4937 24.7497 28.646 25.105 27.9497 25.7149Z" fill="#485954"/>
<path d="M40.122 3.23451C40.4049 3.38676 40.644 3.56617 40.8892 3.77416C40.9456 3.82166 40.9456 3.82166 41.0031 3.87013C41.3247 4.14262 41.6369 4.42311 41.9404 4.71615C41.9653 4.73995 41.9902 4.76375 42.0159 4.78827C43.2084 5.93292 44.2738 7.53264 44.3314 9.24287C44.3507 10.7541 44.0108 12.0336 42.9506 13.1461C42.9279 13.1704 42.9052 13.1947 42.8817 13.2198C39.7818 16.5277 34.542 17.5379 29.8871 17.9889C29.7659 17.9999 29.6448 18.0114 29.5238 18.0229C28.1623 18.1495 26.8017 18.1678 25.4355 18.1689C25.3027 18.169 25.1698 18.1693 25.037 18.1695C24.1623 18.1709 23.2896 18.1623 22.4164 18.1073C22.3533 18.1034 22.2903 18.0994 22.2253 18.0954C21.7898 18.0649 21.36 18.0115 20.9281 17.9487C20.8628 17.7505 20.9059 17.6757 20.9729 17.4795C20.9953 17.4124 21.0176 17.3453 21.04 17.2783C21.0521 17.2424 21.0642 17.2066 21.0766 17.1697C21.3343 16.4046 21.5566 15.6316 21.7647 14.8513C21.7777 14.8023 21.7908 14.7534 21.8043 14.7029C21.9197 14.27 22.0338 13.8369 22.1403 13.4016C22.1851 13.4019 22.1851 13.4019 22.2307 13.4023C24.3598 13.4214 24.3598 13.4214 26.4842 13.2994C26.5195 13.2962 26.5548 13.2929 26.5911 13.2896C30.6574 12.9143 34.7421 11.8432 40.1473 8.28931C40.7692 7.49399 41.083 6.63424 41.0202 5.60864C40.9314 4.84187 40.6506 4.04464 40.1856 3.42351C40.122 3.33669 40.122 3.33669 40.122 3.23451Z" fill="#485954"/>
<path d="M66.225 23.1216C66.8865 23.7714 67.2928 24.6278 67.3122 25.566C67.3221 26.9029 66.8147 27.9778 65.9156 28.9505C64.7142 30.1809 62.8609 30.7775 61.1857 30.8236C61.1516 30.8246 61.1175 30.8257 61.0824 30.8268C60.2365 30.8495 59.3903 30.7828 58.5592 30.6192C58.97 31.5466 59.5831 32.1799 60.5291 32.5607C62.1049 33.1277 63.8507 32.6729 65.3145 31.9847C65.5668 31.8617 65.8164 31.7339 66.0645 31.6025C66.2389 31.5114 66.4146 31.423 66.5903 31.3345C66.7111 31.5897 66.8315 31.8451 66.9516 32.1007C66.9925 32.1875 67.0335 32.2743 67.0745 32.361C67.1337 32.486 67.1925 32.6112 67.2513 32.7365C67.2696 32.7749 67.2878 32.8133 67.3066 32.8528C67.4109 33.0761 67.4897 33.292 67.55 33.5314C67.1259 33.9836 66.7141 34.3789 66.1862 34.7065C66.1562 34.7254 66.1262 34.7442 66.0952 34.7637C64.9614 35.4684 63.7045 35.833 62.398 36.0348C62.3471 36.043 62.3471 36.043 62.2953 36.0513C60.2168 36.3356 57.9812 35.9564 56.2578 34.7155C55.7229 34.3019 55.2239 33.8074 54.8719 33.2249C54.8388 33.172 54.8058 33.1192 54.7717 33.0648C53.7306 31.3534 53.6558 29.0914 54.1016 27.1802C54.5577 25.3771 55.6715 23.8648 57.2459 22.9045C59.8234 21.3635 63.8588 20.8978 66.225 23.1216ZM59.4358 25.4862C59.0034 25.911 58.7052 26.4154 58.5087 26.9918C58.4901 27.0441 58.4901 27.0441 58.4712 27.0976C58.3761 27.4123 58.4003 27.7391 58.4076 28.0647C59.8315 28.3248 61.2462 28.2535 62.486 27.4658C62.9105 27.16 63.1863 26.7504 63.2914 26.2328C63.3352 25.7863 63.2417 25.3811 62.996 25.0074C62.7074 24.6647 62.3036 24.4849 61.865 24.4392C60.9271 24.4241 60.1093 24.8557 59.4358 25.4862Z" fill="#485954"/>
<path d="M8.56041 10.477C8.64968 10.4769 8.64968 10.4769 8.74076 10.4769C9.74763 10.4778 10.7369 10.5215 11.7362 10.643C11.8111 10.6519 11.8859 10.6607 11.9607 10.6696C14.211 10.9392 16.4471 11.3922 18.6341 11.9906C18.6736 12.0013 18.713 12.0121 18.7537 12.0232C19.1312 12.1269 19.5056 12.2306 19.8684 12.3801C19.7818 12.5828 19.6495 12.7481 19.5149 12.9198C19.4778 12.9672 19.4779 12.9672 19.4401 13.0156C19.2459 13.2621 19.0402 13.4954 18.828 13.7262C18.7053 13.8633 18.5905 14.0047 18.4762 14.1491C18.2978 14.373 18.1075 14.5755 17.904 14.776C17.8065 14.8745 17.7163 14.9755 17.627 15.0815C17.2358 15.5402 16.8049 15.9425 16.3327 16.3141C16.302 16.3451 16.2712 16.3761 16.2396 16.4081C16.0699 16.5004 15.9257 16.4407 15.7487 16.3939C15.2726 16.2812 14.794 16.1903 14.3123 16.1066C14.2743 16.0999 14.2362 16.0933 14.1971 16.0865C13.4806 15.9626 12.7633 15.8708 12.0393 15.8032C11.9929 15.7987 11.9465 15.7943 11.8987 15.7897C11.5453 15.7575 11.195 15.7433 10.8403 15.7417C10.7856 15.7414 10.7309 15.7411 10.6746 15.7408C10.5594 15.7404 10.4443 15.74 10.3291 15.7398C10.157 15.7393 9.98491 15.7378 9.81281 15.7361C7.87838 15.7267 5.95632 16.0447 4.51326 17.4381C4.48168 17.4662 4.4501 17.4944 4.41757 17.5233C3.83915 18.0582 3.48362 18.8918 3.44228 19.6765C3.41077 21.3683 4.26324 22.7777 5.37194 23.9777C5.32193 23.9946 5.27193 24.0114 5.22041 24.0288C5.10583 23.952 5.00382 23.8745 4.8984 23.7861C4.8672 23.7606 4.83599 23.7351 4.80384 23.7088C4.70644 23.6288 4.60977 23.548 4.51326 23.4668C4.46914 23.4299 4.46914 23.4299 4.42413 23.3922C4.23308 23.2319 4.04444 23.069 3.85663 22.9048C3.81717 22.8707 3.77771 22.8366 3.73706 22.8014C3.08952 22.2281 2.45791 21.6065 1.93723 20.9123C1.89667 20.8607 1.8561 20.8091 1.81431 20.756C0.582893 19.1854 -0.164157 17.4468 0.0307838 15.4126C0.146042 14.5918 0.561354 13.7789 1.07855 13.1465C1.12361 13.0888 1.16866 13.0311 1.21371 12.9735C2.57636 11.2638 4.71171 10.7601 6.77669 10.5247C7.36919 10.4687 7.9659 10.4773 8.56041 10.477Z" fill="#485954"/>
<path d="M21.8904 10.9499C21.9237 10.9667 21.957 10.9836 21.9914 11.0009C21.0335 15.5668 19.7462 20.612 16.8393 24.3356C16.7896 24.4015 16.7896 24.4015 16.7389 24.4687C15.7235 25.7782 14.3867 26.8128 12.7172 27.0291C10.6873 27.1994 8.94098 26.2755 7.42229 24.987C7.09889 24.707 6.79605 24.4059 6.49416 24.1025C6.45015 24.0585 6.40613 24.0144 6.36079 23.9691C6.06084 23.6642 5.78974 23.3436 5.52499 23.0073C5.46907 22.9384 5.41305 22.8696 5.35688 22.8009C5.09308 22.4747 4.85109 22.1616 4.66631 21.7811C4.91793 21.8065 5.16545 21.8388 5.4145 21.8833C8.24021 22.3693 11.1006 21.0832 13.4046 19.5331C13.4395 19.5097 13.4745 19.4864 13.5104 19.4623C14.2474 18.967 14.9489 18.4216 15.6271 17.8471C15.6526 17.8257 15.678 17.8042 15.7043 17.7821C16.0806 17.4654 16.4459 17.1392 16.8045 16.8021C16.8682 16.7431 16.9325 16.6849 16.9972 16.6271C17.335 16.3242 17.6562 16.0069 17.9747 15.6835C18.0613 15.5957 18.1481 15.5081 18.235 15.4206C18.4946 15.1581 18.7505 14.8952 18.9889 14.6125C19.0999 14.4811 19.2168 14.3557 19.3333 14.2292C19.5503 13.9916 19.7559 13.747 19.9564 13.4948C20.0565 13.3703 20.1591 13.2486 20.263 13.1273C20.8507 12.4386 21.3731 11.6934 21.8904 10.9499Z" fill="#485954"/>
<path d="M87.5546 21.8833C87.6144 21.9071 87.6743 21.9309 87.7361 21.9554C87.8552 22.0258 87.8998 22.0605 87.9411 22.1953C87.9539 22.3386 87.9551 22.4782 87.9529 22.6221C87.9534 22.6764 87.954 22.7308 87.9546 22.7867C87.9559 22.9665 87.9548 23.1461 87.9537 23.3258C87.9542 23.4504 87.9548 23.5749 87.9556 23.6995C87.9572 24.0274 87.9567 24.3553 87.9558 24.6832C87.9553 25.0178 87.9567 25.3524 87.9579 25.687C87.9601 26.3435 87.9602 27 87.9586 27.6565C87.9843 27.6305 88.01 27.6044 88.0365 27.5775C88.28 27.3301 88.5237 27.0829 88.7675 26.8357C88.8928 26.7087 89.0181 26.5817 89.1432 26.4545C89.2875 26.3079 89.432 26.1615 89.5765 26.0151C89.6209 25.97 89.6652 25.9249 89.7108 25.8784C89.8966 25.6905 90.0823 25.5057 90.2816 25.3325C90.5325 25.1144 90.7629 24.8765 90.9956 24.639C91.0438 24.5899 91.0921 24.5409 91.1404 24.4919C91.2922 24.3378 91.4438 24.1835 91.5954 24.0291C91.7713 23.8499 91.9473 23.6709 92.1236 23.492C92.1933 23.4212 92.2628 23.3502 92.3324 23.2792C92.5579 23.0502 92.7861 22.8284 93.0292 22.6185C93.1298 22.5308 93.2237 22.4367 93.3191 22.3431C93.8032 21.9047 94.3603 21.7093 95.0027 21.716C95.435 21.7498 95.7498 21.9773 96.0403 22.292C96.4411 22.7939 96.4411 22.7939 96.4444 23.0584C96.353 23.1825 96.353 23.1825 96.2202 23.3074C96.1734 23.3521 96.1266 23.3967 96.0784 23.4428C95.9335 23.5745 95.7875 23.7047 95.6394 23.8327C95.5155 23.9447 95.3994 24.0629 95.2827 24.1824C95.1048 24.3645 94.9224 24.5351 94.7302 24.7013C94.6064 24.8132 94.4902 24.9314 94.3735 25.0509C94.1956 25.233 94.0132 25.4036 93.821 25.5698C93.6972 25.6818 93.581 25.7999 93.4643 25.9195C93.2864 26.1015 93.104 26.2721 92.9118 26.4383C92.788 26.5503 92.6718 26.6685 92.5551 26.788C92.3772 26.9701 92.1949 27.1407 92.0026 27.3069C91.8333 27.46 91.6763 27.6255 91.5167 27.7889C91.4101 27.8952 91.3018 27.9955 91.1881 28.094C90.9593 28.2929 90.7341 28.5001 90.5347 28.7295C90.5347 28.7632 90.5347 28.7969 90.5347 28.8316C90.6269 28.9021 90.7223 28.9684 90.8188 29.0328C91.851 29.7365 92.7959 30.5906 93.6663 31.4883C93.8114 31.6358 93.9575 31.7822 94.1043 31.9278C94.4458 32.2677 94.7784 32.6048 95.0745 32.9863C95.1722 33.1112 95.2738 33.2317 95.3772 33.3518C95.8792 33.9377 96.3229 34.5645 96.7096 35.2339C96.7331 35.2745 96.7566 35.3151 96.7809 35.3569C96.8024 35.3952 96.8239 35.4334 96.8461 35.4728C96.8649 35.5063 96.8838 35.5398 96.9032 35.5743C96.9561 35.6926 96.9765 35.806 97 35.9333C96.6071 35.9511 96.2142 35.9647 95.821 35.973C95.6383 35.9769 95.4559 35.9823 95.2734 35.9911C94.0961 36.046 94.0961 36.046 93.8058 35.8614C93.6347 35.6882 93.5425 35.4936 93.4576 35.267C93.3812 35.0926 93.2618 34.9521 93.1423 34.8061C93.1165 34.7731 93.0907 34.7401 93.0641 34.7061C92.9956 34.6211 92.927 34.5363 92.8581 34.4516C92.8338 34.4216 92.8094 34.3917 92.7843 34.3608C92.427 33.924 92.0472 33.5186 91.6459 33.1233C91.5185 32.9952 91.392 32.8663 91.2667 32.7361C90.9553 32.4145 90.6313 32.1258 90.2821 31.846C90.2249 31.7983 90.1677 31.7506 90.1107 31.7027C89.7739 31.4221 89.4294 31.1592 89.0667 30.9136C89.0322 30.8901 88.9977 30.8667 88.9622 30.8426C88.6191 30.6143 88.2668 30.4184 87.9081 30.2111C87.9081 32.0994 87.9081 33.9877 87.9081 35.9333C87.0247 35.9333 86.1413 35.9333 85.2311 35.9333C85.2277 34.2822 85.2249 32.6312 85.2233 30.9802C85.2232 30.7852 85.223 30.5901 85.2228 30.3951C85.2227 30.3563 85.2227 30.3174 85.2226 30.2774C85.222 29.6492 85.2208 29.021 85.2194 28.3928C85.218 27.7479 85.2171 27.1031 85.2168 26.4582C85.2166 26.0604 85.216 25.6627 85.2147 25.265C85.2138 24.9597 85.2137 24.6544 85.2139 24.3491C85.2139 24.2241 85.2136 24.0991 85.213 23.9741C85.2123 23.8031 85.2124 23.6321 85.2129 23.4611C85.2122 23.3873 85.2122 23.3873 85.2115 23.312C85.2146 22.8335 85.305 22.4238 85.6367 22.0719C86.1569 21.6198 86.9463 21.6125 87.5546 21.8833Z" fill="#485954"/>
<path d="M73.36 21.8832C73.4199 21.902 73.4798 21.9209 73.5416 21.9402C73.6362 21.9965 73.6362 21.9965 73.7135 22.0876C73.7693 22.3442 73.7596 22.6018 73.7559 22.8631C73.7561 22.9439 73.7564 23.0247 73.7568 23.1056C73.7574 23.2797 73.757 23.4538 73.7556 23.628C73.7535 23.904 73.7539 24.18 73.7546 24.456C73.7554 24.8934 73.7545 25.3307 73.7529 25.768C73.7501 26.549 73.7497 27.3301 73.7506 28.1111C73.7508 28.3848 73.7502 28.6584 73.7488 28.9321C73.7481 29.1035 73.748 29.2749 73.748 29.4463C73.7479 29.525 73.7475 29.6037 73.7468 29.6824C73.7375 30.8177 74.0103 31.8508 74.7742 32.7144C75.578 33.3872 76.5558 33.6509 77.5899 33.5602C78.4302 33.4714 79.2453 33.2157 79.8253 32.5612C80.4586 31.7095 80.7084 30.7715 80.7034 29.7102C80.7036 29.6376 80.7039 29.565 80.7042 29.4924C80.7048 29.3377 80.7049 29.1829 80.7047 29.0281C80.7044 28.7828 80.7052 28.5375 80.7061 28.2922C80.7082 27.7274 80.7088 27.1627 80.7094 26.5979C80.7099 26.0795 80.7107 25.561 80.7128 25.0426C80.7137 24.7993 80.7139 24.556 80.7136 24.3127C80.7135 24.1608 80.714 24.009 80.7147 23.8571C80.715 23.7544 80.7146 23.6516 80.7141 23.5489C80.7179 22.9808 80.7575 22.448 81.1713 22.0287C81.5775 21.7059 82.054 21.6813 82.5528 21.7299C82.878 21.7922 83.1277 21.9219 83.4115 22.0876C83.4151 23.1122 83.4177 24.1369 83.4194 25.1616C83.4202 25.6375 83.4212 26.1134 83.423 26.5893C83.4245 27.0047 83.4255 27.4201 83.4258 27.8355C83.426 28.0549 83.4264 28.2743 83.4275 28.4937C83.4382 30.6797 83.2759 32.9031 81.6942 34.5537C81.6676 34.5843 81.641 34.615 81.6137 34.6465C80.7204 35.64 79.1914 36.0716 77.9059 36.1375C76.0213 36.214 74.2634 35.9301 72.8189 34.6353C71.5452 33.4124 71.0821 31.5564 71.0314 29.8338C71.0289 29.6504 71.0279 29.467 71.0275 29.2835C71.0272 29.2139 71.0269 29.1442 71.0265 29.0746C71.0255 28.8487 71.0249 28.6228 71.0244 28.3969C71.0242 28.3185 71.024 28.2401 71.0238 28.1617C71.0229 27.7937 71.0221 27.4257 71.0217 27.0576C71.0212 26.6349 71.0199 26.2121 71.0179 25.7894C71.0163 25.461 71.0156 25.1325 71.0154 24.8041C71.0153 24.6086 71.0148 24.4132 71.0136 24.2177C71.0124 24.0339 71.0122 23.8502 71.0127 23.6664C71.0127 23.5677 71.0118 23.4691 71.0108 23.3704C71.0134 22.9181 71.0703 22.5024 71.3585 22.1418C71.9493 21.6723 72.6554 21.5696 73.36 21.8832Z" fill="#485954"/>
<path d="M32.4428 0.00578843C32.5057 0.0053516 32.5057 0.0053516 32.5699 0.00490594C32.6582 0.00442647 32.7466 0.00409065 32.835 0.00389248C32.9668 0.00340127 33.0985 0.00181498 33.2303 0.000200375C34.0039 -0.00477215 34.7604 0.0824018 35.5038 0.306745C35.5476 0.319769 35.5913 0.332792 35.6364 0.346211C36.6766 0.667947 37.5813 1.18467 38.3545 1.95762C38.3937 1.99357 38.4329 2.02953 38.4733 2.06658C39.3258 2.86791 40.0997 4.25232 40.2234 5.43179C40.0931 5.33015 39.972 5.22866 39.8572 5.10928C39.2629 4.52184 38.5541 4.22294 37.7484 4.05234C37.7149 4.0447 37.6813 4.03706 37.6468 4.02919C35.3495 3.52263 32.8039 4.07662 30.6264 4.8187C30.5764 4.83573 30.5264 4.85276 30.4748 4.87031C28.6854 5.49076 26.9937 6.39635 25.6259 7.73087C25.5929 7.76216 25.56 7.79344 25.5261 7.82567C25.3097 8.03604 25.1222 8.26756 24.9343 8.50402C24.8602 8.59715 24.7852 8.68958 24.709 8.78103C23.8042 9.87007 23.0715 11.1129 22.5448 12.4312C22.4808 12.2459 22.5075 12.1146 22.5507 11.9255C22.5644 11.8649 22.5782 11.8043 22.5924 11.7418C22.6157 11.6437 22.6157 11.6437 22.6395 11.5435C22.6474 11.5098 22.6553 11.476 22.6635 11.4412C23.3945 8.33387 24.5515 4.97225 26.7334 2.58428C26.8287 2.47899 26.9186 2.37084 27.0086 2.26097C27.2275 2.00746 27.4851 1.80547 27.7473 1.59998C27.7887 1.56633 27.8302 1.53267 27.8728 1.498C29.1373 0.510933 30.8569 0.014655 32.4428 0.00578843Z" fill="#485954"/>
</svg>
