<svg width="144" height="56" viewBox="0 0 144 56" fill="none" xmlns="http://www.w3.org/2000/svg">
<path d="M76.0021 29.2607C76.047 29.2808 76.092 29.301 76.1383 29.3217C76.1725 29.337 76.2067 29.3524 76.2419 29.3682C76.2457 31.2212 76.2487 33.0741 76.2504 34.9271C76.2506 35.1464 76.2508 35.3656 76.2511 35.5849C76.2511 35.6285 76.2511 35.6721 76.2512 35.7171C76.2519 36.4218 76.2532 37.1266 76.2548 37.8313C76.2563 38.5555 76.2573 39.2798 76.2576 40.004C76.2578 40.4502 76.2585 40.8963 76.2599 41.3424C76.2609 41.6858 76.261 42.0291 76.2608 42.3724C76.2608 42.5124 76.2612 42.6523 76.2618 42.7922C76.2661 43.7835 76.2115 44.7383 75.9319 45.6955C75.918 45.7434 75.9041 45.7913 75.8898 45.8406C75.5086 47.083 74.8221 48.1279 73.9574 49.0811C73.9061 49.1385 73.9061 49.1385 73.8538 49.1971C72.5306 50.6021 70.4014 51.428 68.502 51.4894C68.2857 51.4938 68.0696 51.4953 67.8533 51.4958C67.7188 51.4963 67.5844 51.498 67.4499 51.4998C66.6813 51.5051 65.9467 51.4009 65.2061 51.1892C65.165 51.1775 65.1238 51.1657 65.0813 51.1537C64.0993 50.8625 63.1396 50.3716 62.368 49.6954C62.3153 49.6532 62.2627 49.611 62.2085 49.5675C62.1565 49.5245 62.1046 49.4814 62.0511 49.4371C62.0038 49.3983 61.9564 49.3596 61.9077 49.3197C61.8108 49.1928 61.8108 49.1928 61.8193 49.0491C61.8802 48.8022 61.976 48.5804 62.0792 48.3486C62.1001 48.3007 62.1211 48.2528 62.1426 48.2035C62.2093 48.0514 62.2764 47.8996 62.3436 47.7478C62.389 47.6444 62.4344 47.541 62.4797 47.4376C62.5907 47.1848 62.7021 46.9323 62.8137 46.6798C63.0188 46.7455 63.2137 46.8173 63.4077 46.9108C65.0102 47.6703 66.853 48.3392 68.632 47.8146C69.2171 47.5981 69.6761 47.2914 70.1128 46.8473C70.1435 46.8172 70.1742 46.787 70.2058 46.7559C71.224 45.6697 71.4078 44.0649 71.3979 42.6486C71.3975 42.5448 71.3975 42.5448 71.3971 42.439C71.3964 42.2704 71.3955 42.1017 71.3944 41.9331C71.3552 41.979 71.3159 42.0249 71.2755 42.0722C70.3095 43.1777 69.0248 43.8716 67.5498 43.9993C65.8935 44.0922 64.4035 43.6464 63.148 42.5473C63.0857 42.4934 63.0857 42.4934 63.022 42.4383C61.6807 41.1839 61.051 39.24 60.9689 37.4439C60.8944 35.0899 61.5313 32.7727 63.1629 31.0301C66.3677 27.7085 71.9688 27.4528 76.0021 29.2607ZM66.6479 32.9527C65.699 34.0791 65.5799 35.427 65.6554 36.8513C65.6913 37.1635 65.7696 37.4496 65.8782 37.7448C65.9085 37.828 65.9085 37.828 65.9394 37.913C66.2457 38.659 66.7528 39.253 67.4941 39.5806C68.417 39.9315 69.3242 39.8616 70.2382 39.4934C70.6041 39.3271 70.9137 39.1114 71.2272 38.8617C71.2855 38.8257 71.2855 38.8257 71.345 38.7891C71.4613 38.7026 71.4613 38.7026 71.4775 38.5662C71.4773 38.5157 71.4771 38.4652 71.4769 38.4132C71.4772 38.3552 71.4775 38.2972 71.4778 38.2374C71.477 38.1738 71.4762 38.1101 71.4754 38.0446C71.4754 37.9776 71.4755 37.9105 71.4755 37.8415C71.4754 37.6577 71.4742 37.4739 71.4727 37.2901C71.4713 37.0981 71.4712 36.906 71.4709 36.7139C71.4702 36.3502 71.4684 35.9865 71.4661 35.6228C71.4636 35.2088 71.4624 34.7947 71.4613 34.3806C71.459 33.5289 71.4551 32.6771 71.4501 31.8253C71.3632 31.789 71.2761 31.753 71.1889 31.7171C71.1404 31.6971 71.0919 31.677 71.042 31.6563C69.5051 31.0964 67.7151 31.8355 66.6479 32.9527Z" fill="#2B3692"/>
<path d="M57.302 28.8934C57.3484 28.9086 57.3948 28.9238 57.4426 28.9395C57.6949 29.0252 57.9373 29.1233 58.1794 29.2349C58.2338 29.2598 58.2882 29.2848 58.3442 29.3106C58.3853 29.3295 58.4263 29.3485 58.4686 29.368C58.4689 29.4425 58.4689 29.4425 58.4692 29.5185C58.4737 30.729 58.4788 31.9396 58.4846 33.1501C58.4874 33.7355 58.49 34.321 58.4921 34.9064C58.4939 35.4169 58.4962 35.9274 58.4988 36.438C58.5002 36.708 58.5015 36.9781 58.5022 37.2482C58.5029 37.5029 58.5042 37.7577 58.5058 38.0124C58.5063 38.1054 58.5066 38.1984 58.5067 38.2913C58.4602 39.3456 58.4602 39.3456 58.8586 40.2576C59.0978 40.4745 59.2812 40.5049 59.591 40.4997C59.7348 40.4828 59.8698 40.456 60.0108 40.4239C60.0559 40.4137 60.101 40.4035 60.1475 40.393C60.1818 40.3852 60.2162 40.3773 60.2516 40.3693C60.3486 40.6512 60.4448 40.9334 60.5403 41.2159C60.5729 41.312 60.6057 41.408 60.6387 41.5039C60.6862 41.6417 60.7329 41.7799 60.7794 41.9181C60.7943 41.9609 60.8092 42.0037 60.8246 42.0478C60.9417 42.3997 60.9417 42.3997 60.8645 42.603C60.7523 42.7011 60.6452 42.7845 60.5232 42.8683C60.4884 42.8925 60.4535 42.9168 60.4176 42.9418C59.2749 43.7217 57.9924 44.1558 56.599 43.9732C55.7467 43.8 55.0763 43.3441 54.5574 42.6486C54.3311 42.2946 54.1447 41.9168 53.9554 41.542C53.9316 41.5739 53.9079 41.6058 53.8834 41.6386C52.8953 42.9229 51.6815 43.7277 50.0621 43.9764C48.5672 44.1474 47.0219 43.8246 45.8135 42.8997C44.3222 41.6263 43.4544 39.9262 43.2575 37.968C43.2513 37.8195 43.2471 37.6724 43.2461 37.5238C43.2457 37.4829 43.2454 37.4419 43.245 37.3997C43.2288 35.2272 43.6115 33.0091 45.0962 31.3226C45.135 31.2769 45.1739 31.2313 45.2139 31.1843C46.2999 29.9353 47.7034 29.1211 49.2751 28.6421C49.319 28.6286 49.3629 28.6152 49.4082 28.6013C51.9823 27.8308 54.7742 28.0638 57.302 28.8934ZM49.3308 32.607C49.2848 32.6427 49.2388 32.6784 49.1915 32.7152C48.5966 33.207 48.1788 34.0395 47.9935 34.7849C47.9823 34.8256 47.971 34.8664 47.9594 34.9083C47.7016 36.0226 47.8412 37.4089 48.4169 38.4005C48.9196 39.1547 49.5789 39.6148 50.4695 39.7934C51.527 39.8863 52.4827 39.5913 53.3425 38.9732C53.3998 38.9387 53.4572 38.9043 53.5162 38.8688C53.635 38.7677 53.6728 38.712 53.7071 38.558C53.7181 38.38 53.7181 38.2049 53.7148 38.0266C53.7148 37.959 53.7149 37.8914 53.7149 37.8218C53.7147 37.6369 53.713 37.4522 53.7107 37.2673C53.7086 37.074 53.7084 36.8807 53.708 36.6874C53.707 36.3215 53.7042 35.9556 53.7009 35.5897C53.6971 35.1731 53.6953 34.7565 53.6936 34.3398C53.6901 33.483 53.6843 32.6261 53.6768 31.7693C53.5348 31.7324 53.3927 31.6959 53.2505 31.6595C53.2106 31.6491 53.1707 31.6387 53.1296 31.6279C52.8175 31.5485 52.5229 31.5105 52.2003 31.518C52.1263 31.5191 52.1263 31.5191 52.0509 31.5203C51.0339 31.5519 50.0988 31.9403 49.3308 32.607Z" fill="#2B3692"/>
<path d="M62.76 8.03534C63.0721 8.20176 63.3358 8.39786 63.6062 8.62519C63.6685 8.67712 63.6685 8.67712 63.732 8.73009C64.0867 9.02793 64.431 9.33452 64.7659 9.65482C64.7933 9.68083 64.8208 9.70684 64.8491 9.73365C66.1646 10.9848 67.3399 12.7333 67.4034 14.6027C67.4247 16.2544 67.0498 17.653 65.8802 18.869C65.8552 18.8956 65.8301 18.9222 65.8043 18.9496C62.3847 22.5652 56.6047 23.6694 51.4697 24.1623C51.3361 24.1744 51.2025 24.1869 51.069 24.1995C49.5671 24.3378 48.0662 24.3579 46.5592 24.3591C46.4126 24.3592 46.2661 24.3595 46.1196 24.3598C45.1547 24.3613 44.192 24.3519 43.2287 24.2918C43.1592 24.2875 43.0896 24.2832 43.018 24.2787C42.5375 24.2454 42.0635 24.187 41.587 24.1184C41.515 23.9018 41.5625 23.82 41.6364 23.6055C41.6611 23.5322 41.6858 23.4589 41.7104 23.3856C41.7238 23.3465 41.7371 23.3073 41.7509 23.267C42.0351 22.4306 42.2803 21.5857 42.5098 20.7328C42.5243 20.6793 42.5387 20.6258 42.5535 20.5707C42.6809 20.0975 42.8067 19.624 42.9242 19.1483C42.9736 19.1486 42.9736 19.1486 43.024 19.149C45.3725 19.1699 45.3725 19.1699 47.716 19.0366C47.7549 19.0331 47.7939 19.0295 47.8339 19.0259C52.3195 18.6156 56.8254 17.4449 62.7879 13.5604C63.4739 12.6911 63.82 11.7514 63.7508 10.6303C63.6528 9.79224 63.343 8.92083 62.8301 8.24192C62.76 8.14703 62.76 8.14703 62.76 8.03534Z" fill="#F0845A"/>
<path d="M91.5531 29.7727C92.2829 30.483 92.7311 31.419 92.7525 32.4445C92.7634 33.9057 92.2037 35.0807 91.2119 36.1438C89.8866 37.4887 87.8422 38.1408 85.9943 38.1912C85.9567 38.1923 85.9191 38.1935 85.8803 38.1947C84.9472 38.2195 84.0138 38.1466 83.0969 37.9678C83.5502 38.9814 84.2265 39.6736 85.27 40.0899C87.0083 40.7096 88.9341 40.2125 90.5488 39.4603C90.8271 39.3259 91.1025 39.1862 91.3761 39.0425C91.5685 38.943 91.7624 38.8464 91.9562 38.7496C92.0894 39.0286 92.2223 39.3078 92.3547 39.5871C92.3998 39.682 92.445 39.7768 92.4903 39.8716C92.5556 40.0083 92.6205 40.1451 92.6853 40.2821C92.7055 40.324 92.7256 40.366 92.7463 40.4092C92.8614 40.6533 92.9483 40.8892 93.0148 41.1509C92.5469 41.6452 92.0927 42.0772 91.5104 42.4353C91.4773 42.4559 91.4442 42.4766 91.41 42.4978C90.1593 43.2681 88.7728 43.6667 87.3316 43.8873C87.2755 43.8961 87.2755 43.8961 87.2183 43.9052C84.9255 44.216 82.4593 43.8015 80.5583 42.4451C79.9682 41.9931 79.4178 41.4526 79.0295 40.8158C78.993 40.7581 78.9565 40.7004 78.9189 40.6409C77.7705 38.7703 77.688 36.2979 78.1798 34.2088C78.6829 32.238 79.9115 30.585 81.6483 29.5354C84.4915 27.8511 88.943 27.342 91.5531 29.7727ZM84.0639 32.3573C83.5869 32.8215 83.258 33.3729 83.0412 34.0029C83.0208 34.0601 83.0208 34.0601 82.9999 34.1185C82.895 34.4626 82.9217 34.8197 82.9298 35.1756C84.5004 35.4599 86.0611 35.382 87.4286 34.521C87.8969 34.1867 88.2011 33.739 88.3171 33.1733C88.3655 32.6852 88.2622 32.2423 87.9912 31.8339C87.6729 31.4594 87.2275 31.2628 86.7437 31.2129C85.709 31.1964 84.8069 31.668 84.0639 32.3573Z" fill="#2B3692"/>
<path d="M27.9431 15.9518C28.0415 15.9517 28.0415 15.9517 28.142 15.9517C29.2527 15.9527 30.3439 16.0005 31.4464 16.1333C31.5289 16.143 31.6114 16.1526 31.694 16.1623C34.1763 16.4571 36.643 16.9522 39.0554 17.6062C39.099 17.618 39.1425 17.6297 39.1874 17.6419C39.6037 17.7552 40.0168 17.8686 40.417 18.032C40.3214 18.2535 40.1755 18.4342 40.027 18.6218C39.9862 18.6737 39.9862 18.6737 39.9445 18.7266C39.7303 18.996 39.5034 19.251 39.2694 19.5033C39.1339 19.6532 39.0073 19.8077 38.8813 19.9656C38.6844 20.2102 38.4746 20.4316 38.2501 20.6507C38.1425 20.7584 38.043 20.8688 37.9445 20.9847C37.5129 21.4861 37.0376 21.9258 36.5167 22.3319C36.4828 22.3659 36.4489 22.3998 36.414 22.4347C36.2268 22.5356 36.0678 22.4703 35.8725 22.4192C35.3474 22.296 34.8193 22.1966 34.288 22.1051C34.2461 22.0978 34.2041 22.0906 34.1609 22.0831C33.3705 21.9477 32.5792 21.8474 31.7807 21.7735C31.7295 21.7686 31.6783 21.7638 31.6256 21.7587C31.2357 21.7235 30.8493 21.708 30.458 21.7063C30.3977 21.706 30.3374 21.7057 30.2752 21.7054C30.1482 21.7048 30.0211 21.7045 29.8941 21.7043C29.7043 21.7037 29.5144 21.702 29.3246 21.7002C27.1907 21.6899 25.0705 22.0375 23.4786 23.5605C23.4438 23.5913 23.4089 23.622 23.3731 23.6537C22.735 24.2383 22.3428 25.1494 22.2972 26.0072C22.2624 27.8563 23.2028 29.3969 24.4258 30.7085C24.3707 30.727 24.3155 30.7454 24.2587 30.7644C24.1323 30.6804 24.0198 30.5956 23.9035 30.4991C23.869 30.4712 23.8346 30.4433 23.7992 30.4146C23.6917 30.3271 23.5851 30.2388 23.4786 30.1501C23.4299 30.1097 23.4299 30.1097 23.3803 30.0686C23.1695 29.8933 22.9615 29.7153 22.7543 29.5358C22.7108 29.4985 22.6672 29.4612 22.6224 29.4228C21.9081 28.7961 21.2113 28.1167 20.637 27.3579C20.5922 27.3015 20.5475 27.2452 20.5014 27.1871C19.143 25.4704 18.3189 23.57 18.534 21.3466C18.6611 20.4495 19.1192 19.5609 19.6898 18.8696C19.7395 18.8066 19.7892 18.7436 19.8389 18.6805C21.342 16.8118 23.6975 16.2613 25.9754 16.0039C26.629 15.9427 27.2872 15.9521 27.9431 15.9518Z" fill="#B3E189"/>
<path d="M42.6466 16.4682C42.6833 16.4866 42.7201 16.505 42.758 16.524C41.7014 21.5146 40.2813 27.0293 37.0747 31.0993C37.0199 31.1713 37.0199 31.1713 36.9639 31.2448C35.8439 32.676 34.3692 33.8069 32.5276 34.0433C30.2883 34.2295 28.362 33.2196 26.6867 31.8113C26.33 31.5052 25.9959 31.1761 25.6629 30.8445C25.6143 30.7963 25.5658 30.7482 25.5158 30.6986C25.1849 30.3654 24.8858 30.0149 24.5938 29.6473C24.5321 29.572 24.4703 29.4968 24.4084 29.4218C24.1174 29.0652 23.8504 28.7229 23.6466 28.3071C23.9241 28.3349 24.1972 28.3702 24.4719 28.4188C27.589 28.95 30.7444 27.5443 33.2859 25.85C33.3244 25.8244 33.3629 25.7989 33.4026 25.7726C34.2156 25.2312 34.9894 24.6351 35.7375 24.0071C35.7656 23.9837 35.7937 23.9602 35.8227 23.9361C36.2378 23.5899 36.6408 23.2334 37.0363 22.8649C37.1066 22.8004 37.1775 22.7368 37.2488 22.6736C37.6215 22.3425 37.9758 21.9957 38.3272 21.6422C38.4227 21.5462 38.5185 21.4505 38.6143 21.3549C38.9007 21.0679 39.1829 20.7806 39.4459 20.4715C39.5684 20.3279 39.6974 20.1909 39.8258 20.0527C40.0652 19.7929 40.292 19.5256 40.5132 19.2499C40.6236 19.1139 40.7368 18.9808 40.8514 18.8482C41.4997 18.0954 42.076 17.2809 42.6466 16.4682Z" fill="#74D2F2"/>
<path d="M115.081 28.4187C115.147 28.4448 115.213 28.4708 115.281 28.4976C115.412 28.5745 115.462 28.6124 115.507 28.7597C115.521 28.9164 115.523 29.069 115.52 29.2262C115.521 29.2857 115.521 29.3451 115.522 29.4063C115.523 29.6027 115.522 29.799 115.521 29.9955C115.521 30.1316 115.522 30.2678 115.523 30.4039C115.525 30.7623 115.524 31.1207 115.523 31.4792C115.523 31.8449 115.524 32.2106 115.526 32.5763C115.528 33.2939 115.528 34.0115 115.526 34.7291C115.555 34.7006 115.583 34.6721 115.612 34.6427C115.881 34.3723 116.15 34.102 116.419 33.8319C116.557 33.6931 116.695 33.5542 116.833 33.4152C116.992 33.255 117.152 33.0949 117.311 32.9349C117.36 32.8856 117.409 32.8363 117.459 32.7855C117.664 32.5802 117.869 32.3781 118.089 32.1889C118.366 31.9505 118.62 31.6905 118.876 31.4308C118.93 31.3772 118.983 31.3236 119.036 31.27C119.204 31.1016 119.371 30.9329 119.538 30.7642C119.732 30.5684 119.926 30.3726 120.121 30.1771C120.198 30.0997 120.274 30.0221 120.351 29.9445C120.6 29.6942 120.852 29.4518 121.12 29.2224C121.231 29.1265 121.334 29.0236 121.44 28.9213C121.974 28.4421 122.588 28.2286 123.297 28.2359C123.774 28.2728 124.121 28.5215 124.441 28.8655C124.883 29.4141 124.883 29.4141 124.887 29.7032C124.786 29.8388 124.786 29.8388 124.64 29.9754C124.588 30.0242 124.537 30.073 124.483 30.1233C124.324 30.2673 124.162 30.4096 123.999 30.5495C123.862 30.6719 123.734 30.8011 123.606 30.9317C123.409 31.1307 123.208 31.3172 122.996 31.4989C122.86 31.6213 122.731 31.7504 122.603 31.8811C122.406 32.0801 122.205 32.2666 121.993 32.4482C121.857 32.5706 121.728 32.6998 121.6 32.8304C121.404 33.0294 121.202 33.2159 120.99 33.3976C120.854 33.52 120.726 33.6491 120.597 33.7798C120.401 33.9788 120.199 34.1652 119.987 34.3469C119.801 34.5143 119.627 34.6951 119.451 34.8737C119.334 34.99 119.214 35.0996 119.089 35.2073C118.836 35.4246 118.588 35.6512 118.368 35.9018C118.368 35.9387 118.368 35.9755 118.368 36.0135C118.47 36.0906 118.575 36.163 118.681 36.2334C119.82 37.0025 120.862 37.9361 121.823 38.9174C121.983 39.0786 122.144 39.2386 122.306 39.3977C122.682 39.7693 123.049 40.1377 123.376 40.5547C123.484 40.6912 123.596 40.8229 123.71 40.9541C124.264 41.5946 124.753 42.2797 125.18 43.0114C125.206 43.0558 125.232 43.1001 125.258 43.1458C125.282 43.1877 125.306 43.2295 125.33 43.2726C125.351 43.3091 125.372 43.3457 125.393 43.3834C125.452 43.5127 125.474 43.6367 125.5 43.7758C125.067 43.7953 124.633 43.8101 124.199 43.8192C123.998 43.8236 123.797 43.8294 123.595 43.839C122.297 43.899 122.297 43.899 121.976 43.6972C121.788 43.508 121.686 43.2952 121.592 43.0476C121.508 42.857 121.376 42.7034 121.245 42.5437C121.216 42.5077 121.188 42.4716 121.158 42.4345C121.083 42.3416 121.007 42.2489 120.931 42.1563C120.904 42.1236 120.877 42.0908 120.85 42.057C120.456 41.5796 120.037 41.1365 119.594 40.7044C119.453 40.5644 119.314 40.4236 119.176 40.2812C118.832 39.9297 118.475 39.6141 118.089 39.3083C118.026 39.2562 117.963 39.204 117.9 39.1517C117.529 38.845 117.149 38.5576 116.749 38.2891C116.711 38.2635 116.673 38.2379 116.633 38.2115C116.255 37.962 115.866 37.7479 115.471 37.5213C115.471 39.5853 115.471 41.6493 115.471 43.7758C114.496 43.7758 113.522 43.7758 112.518 43.7758C112.514 41.9712 112.511 40.1666 112.509 38.362C112.509 38.1488 112.509 37.9356 112.508 37.7224C112.508 37.68 112.508 37.6375 112.508 37.5938C112.508 36.9072 112.506 36.2205 112.505 35.5339C112.503 34.829 112.502 34.1241 112.502 33.4192C112.502 32.9845 112.501 32.5498 112.5 32.115C112.499 31.7813 112.498 31.4477 112.499 31.114C112.499 30.9773 112.498 30.8407 112.498 30.704C112.497 30.5171 112.497 30.3303 112.498 30.1434C112.497 30.0627 112.497 30.0627 112.496 29.9804C112.499 29.4573 112.599 29.0095 112.965 28.6249C113.539 28.1308 114.41 28.1228 115.081 28.4187Z" fill="#00ADEF"/>
<path d="M99.4219 28.419C99.4881 28.4396 99.5542 28.4601 99.6223 28.4814C99.7267 28.5428 99.7267 28.5428 99.812 28.6424C99.8735 28.9229 99.8628 29.2044 99.8587 29.49C99.8589 29.5784 99.8592 29.6667 99.8597 29.7551C99.8604 29.9454 99.8599 30.1358 99.8584 30.3261C99.8561 30.6278 99.8565 30.9295 99.8572 31.2312C99.8581 31.7092 99.8572 32.1872 99.8554 32.6652C99.8523 33.5189 99.8519 34.3726 99.8528 35.2263C99.8531 35.5254 99.8524 35.8245 99.8509 36.1237C99.8501 36.311 99.85 36.4984 99.85 36.6857C99.8499 36.7717 99.8494 36.8577 99.8487 36.9437C99.8384 38.1847 100.139 39.3139 100.982 40.2579C101.869 40.9932 102.947 41.2814 104.088 41.1824C105.015 41.0853 105.914 40.8058 106.554 40.0904C107.253 39.1594 107.528 38.1342 107.523 36.9742C107.523 36.8948 107.523 36.8155 107.523 36.7361C107.524 36.567 107.524 36.3978 107.524 36.2286C107.524 35.9605 107.525 35.6924 107.526 35.4242C107.528 34.8069 107.528 34.1896 107.529 33.5723C107.53 33.0056 107.531 32.439 107.533 31.8723C107.534 31.6064 107.534 31.3405 107.534 31.0745C107.534 30.9085 107.534 30.7426 107.535 30.5766C107.535 30.4643 107.535 30.352 107.534 30.2397C107.538 29.6187 107.582 29.0363 108.039 28.578C108.487 28.2252 109.012 28.1984 109.563 28.2515C109.921 28.3195 110.197 28.4613 110.51 28.6424C110.514 29.7624 110.517 30.8823 110.519 32.0023C110.519 32.5225 110.521 33.0427 110.523 33.5629C110.524 34.0169 110.525 34.471 110.526 34.925C110.526 35.1648 110.526 35.4046 110.528 35.6444C110.539 38.0338 110.36 40.4641 108.615 42.2683C108.586 42.3017 108.557 42.3352 108.527 42.3697C107.541 43.4556 105.855 43.9274 104.437 43.9994C102.358 44.083 100.419 43.7727 98.8251 42.3575C97.4201 41.0208 96.9092 38.9921 96.8533 37.1092C96.8506 36.9087 96.8495 36.7083 96.849 36.5078C96.8487 36.4317 96.8483 36.3555 96.8479 36.2794C96.8468 36.0325 96.8462 35.7856 96.8456 35.5386C96.8454 35.453 96.8452 35.3673 96.8449 35.2816C96.8439 34.8793 96.8431 34.4771 96.8426 34.0748C96.8421 33.6127 96.8406 33.1507 96.8383 32.6886C96.8367 32.3296 96.8358 31.9706 96.8357 31.6116C96.8355 31.398 96.835 31.1843 96.8336 30.9707C96.8323 30.7698 96.8321 30.569 96.8327 30.3681C96.8327 30.2602 96.8316 30.1524 96.8305 30.0445C96.8335 29.5502 96.8962 29.0958 97.2141 28.7017C97.8658 28.1885 98.6448 28.0762 99.4219 28.419Z" fill="#00ADEF"/>
<path d="M54.2875 4.50633C54.3569 4.50585 54.3569 4.50585 54.4277 4.50536C54.5252 4.50484 54.6227 4.50447 54.7201 4.50425C54.8655 4.50372 55.0108 4.50198 55.1562 4.50022C56.0095 4.49478 56.844 4.59007 57.6642 4.83528C57.7124 4.84952 57.7606 4.86375 57.8104 4.87842C58.9578 5.23009 59.9558 5.79489 60.8088 6.63974C60.852 6.67904 60.8952 6.71834 60.9398 6.75884C61.8802 7.63472 62.7339 9.14792 62.8704 10.4371C62.7267 10.326 62.5931 10.2151 62.4664 10.0846C61.8108 9.44251 61.0289 9.11581 60.1401 8.92933C60.1032 8.92098 60.0662 8.91263 60.0281 8.90403C57.4939 8.35035 54.6858 8.95587 52.2838 9.76699C52.2287 9.78561 52.1735 9.80422 52.1166 9.82341C50.1427 10.5016 48.2765 11.4914 46.7677 12.9501C46.7314 12.9843 46.695 13.0185 46.6576 13.0537C46.4189 13.2836 46.2121 13.5367 46.0049 13.7952C45.9231 13.897 45.8403 13.998 45.7563 14.0979C44.7581 15.2883 43.9499 16.6467 43.3689 18.0877C43.2983 17.8852 43.3278 17.7417 43.3754 17.535C43.3906 17.4687 43.4058 17.4025 43.4214 17.3342C43.4471 17.2269 43.4471 17.2269 43.4734 17.1174C43.4821 17.0805 43.4908 17.0437 43.4998 17.0056C44.3063 13.6092 45.5825 9.93483 47.9894 7.32469C48.0945 7.20961 48.1937 7.09141 48.293 6.97131C48.5344 6.69422 48.8186 6.47344 49.1079 6.24883C49.1536 6.21204 49.1993 6.17526 49.2463 6.13736C50.6412 5.05847 52.5381 4.51602 54.2875 4.50633Z" fill="#F57BC1"/>
</svg>
