<svg width="107" height="47" viewBox="0 0 107 47" fill="none" xmlns="http://www.w3.org/2000/svg">
<path d="M57.5026 24.7609C57.5476 24.781 57.5926 24.8011 57.6389 24.8219C57.6731 24.8372 57.7072 24.8526 57.7424 24.8684C57.7463 26.7213 57.7492 28.5743 57.751 30.4272C57.7512 30.6465 57.7514 30.8657 57.7516 31.085C57.7517 31.1286 57.7517 31.1723 57.7518 31.2172C57.7525 31.9219 57.7538 32.6267 57.7553 33.3314C57.7569 34.0556 57.7578 34.7799 57.7582 35.5041C57.7584 35.9503 57.7591 36.3964 57.7605 36.8425C57.7615 37.1858 57.7616 37.5292 57.7613 37.8725C57.7614 38.0124 57.7617 38.1524 57.7624 38.2923C57.7667 39.2836 57.7121 40.2384 57.4325 41.1956C57.4186 41.2435 57.4047 41.2913 57.3903 41.3407C57.0091 42.583 56.3227 43.6279 55.458 44.5811C55.4067 44.6385 55.4067 44.6385 55.3544 44.6971C54.0312 46.1021 51.902 46.928 50.0027 46.9894C49.7864 46.9938 49.5702 46.9953 49.354 46.9958C49.2195 46.9963 49.0851 46.998 48.9506 46.9998C48.182 47.0051 47.4474 46.9009 46.7069 46.6892C46.6657 46.6775 46.6245 46.6657 46.5821 46.6537C45.6 46.3625 44.6404 45.8716 43.8687 45.1954C43.8161 45.1532 43.7635 45.111 43.7092 45.0675C43.6573 45.0245 43.6054 44.9814 43.5518 44.9371C43.5045 44.8984 43.4572 44.8596 43.4084 44.8197C43.3116 44.6928 43.3116 44.6928 43.3201 44.5491C43.381 44.3022 43.4767 44.0804 43.5799 43.8486C43.6009 43.8007 43.6218 43.7528 43.6434 43.7035C43.71 43.5515 43.7772 43.3997 43.8444 43.2478C43.8898 43.1444 43.9352 43.041 43.9805 42.9376C44.0914 42.6849 44.2028 42.4323 44.3145 42.1798C44.5196 42.2456 44.7145 42.3173 44.9084 42.4108C46.5109 43.1704 48.3537 43.8392 50.1326 43.3146C50.7178 43.0982 51.1768 42.7914 51.6135 42.3474C51.6442 42.3172 51.6748 42.287 51.7064 42.256C52.7247 41.1697 52.9084 39.5649 52.8985 38.1486C52.8981 38.0449 52.8981 38.0449 52.8977 37.9391C52.8971 37.7704 52.8962 37.6018 52.895 37.4331C52.8558 37.4791 52.8166 37.525 52.7762 37.5723C51.8102 38.6777 50.5255 39.3717 49.0505 39.4993C47.3942 39.5922 45.9042 39.1464 44.6488 38.0474C44.5864 37.9934 44.5864 37.9934 44.5228 37.9383C43.1814 36.684 42.5518 34.7401 42.4697 32.944C42.3951 30.5901 43.0321 28.2729 44.6636 26.5302C47.8684 23.2087 53.4694 22.953 57.5026 24.7609ZM48.1486 28.4528C47.1997 29.5792 47.0807 30.9271 47.1561 32.3514C47.1921 32.6636 47.2704 32.9497 47.379 33.2449C47.4092 33.3281 47.4092 33.3281 47.4401 33.4131C47.7464 34.1591 48.2535 34.7531 48.9948 35.0807C49.9177 35.4316 50.8248 35.3617 51.7389 34.9935C52.1048 34.8272 52.4144 34.6115 52.7279 34.3617C52.7862 34.3258 52.7862 34.3258 52.8456 34.2891C52.9619 34.2027 52.9619 34.2027 52.9781 34.0663C52.9779 34.0158 52.9777 33.9653 52.9775 33.9133C52.9778 33.8553 52.9781 33.7973 52.9785 33.7375C52.9777 33.6739 52.9769 33.6102 52.976 33.5447C52.9761 33.4776 52.9761 33.4106 52.9761 33.3416C52.976 33.1578 52.9749 32.974 52.9733 32.7902C52.9719 32.5982 52.9718 32.4061 52.9715 32.214C52.9708 31.8503 52.969 31.4866 52.9668 31.1229C52.9643 30.7089 52.9631 30.2948 52.9619 29.8808C52.9596 29.029 52.9557 28.1772 52.9507 27.3255C52.8638 27.2891 52.7767 27.2531 52.6895 27.2173C52.6411 27.1972 52.5926 27.1771 52.5426 27.1564C51.0058 26.5965 49.2158 27.3356 48.1486 28.4528Z" fill="#485954"/>
<path d="M38.8022 24.3934C38.8486 24.4086 38.895 24.4238 38.9428 24.4395C39.1951 24.5253 39.4375 24.6234 39.6796 24.7349C39.734 24.7599 39.7884 24.7849 39.8445 24.8106C39.8855 24.8296 39.9265 24.8485 39.9688 24.8681C39.9691 24.9425 39.9691 24.9425 39.9694 25.0185C39.9739 26.2291 39.979 27.4396 39.9848 28.6501C39.9876 29.2356 39.9902 29.821 39.9923 30.4064C39.9942 30.9169 39.9964 31.4274 39.9991 31.938C40.0005 32.208 40.0017 32.4781 40.0024 32.7482C40.0031 33.0029 40.0044 33.2577 40.006 33.5124C40.0065 33.6054 40.0068 33.6984 40.0069 33.7913C39.9604 34.8456 39.9604 34.8456 40.3588 35.7575C40.598 35.9745 40.7814 36.0049 41.0912 35.9997C41.235 35.9827 41.3699 35.9559 41.511 35.9239C41.5561 35.9137 41.6012 35.9035 41.6477 35.893C41.682 35.8852 41.7164 35.8773 41.7518 35.8692C41.8488 36.1512 41.945 36.4334 42.0405 36.7159C42.0731 36.8119 42.1059 36.9079 42.1389 37.0038C42.1864 37.1417 42.233 37.2798 42.2796 37.418C42.2945 37.4608 42.3094 37.5037 42.3248 37.5478C42.4419 37.8996 42.4419 37.8996 42.3647 38.103C42.2525 38.201 42.1454 38.2844 42.0234 38.3682C41.9886 38.3925 41.9537 38.4168 41.9178 38.4418C40.7751 39.2217 39.4926 39.6557 38.0992 39.4731C37.2469 39.3 36.5766 38.844 36.0577 38.1486C35.8314 37.7946 35.645 37.4167 35.4557 37.0419C35.4319 37.0738 35.4081 37.1057 35.3836 37.1386C34.3956 38.4229 33.1819 39.2277 31.5624 39.4764C30.0676 39.6473 28.5223 39.3245 27.3139 38.3996C25.8226 37.1263 24.9548 35.4261 24.7579 33.468C24.7518 33.3194 24.7475 33.1723 24.7466 33.0238C24.7462 32.9829 24.7458 32.9419 24.7454 32.8997C24.7293 30.7272 25.112 28.5091 26.5966 26.8226C26.6354 26.777 26.6743 26.7313 26.7143 26.6843C27.8003 25.4354 29.2037 24.6212 30.7754 24.1421C30.8193 24.1287 30.8633 24.1152 30.9086 24.1014C33.4826 23.3309 36.2745 23.5639 38.8022 24.3934ZM30.8311 28.107C30.7851 28.1427 30.7392 28.1784 30.6918 28.2152C30.0969 28.7071 29.6791 29.5395 29.4939 30.2849C29.4826 30.3256 29.4713 30.3664 29.4597 30.4084C29.2019 31.5226 29.3416 32.9089 29.9172 33.9005C30.42 34.6547 31.0793 35.1148 31.9698 35.2933C33.0273 35.3863 33.983 35.0913 34.8428 34.4731C34.9001 34.4387 34.9574 34.4043 35.0165 34.3688C35.1353 34.2677 35.1731 34.212 35.2074 34.0579C35.2184 33.88 35.2184 33.7048 35.215 33.5266C35.2151 33.459 35.2151 33.3914 35.2152 33.3218C35.215 33.1369 35.2133 32.9522 35.211 32.7673C35.2089 32.574 35.2087 32.3807 35.2083 32.1874C35.2073 31.8215 35.2045 31.4556 35.2012 31.0897C35.1974 30.6731 35.1956 30.2565 35.1939 29.8398C35.1904 28.983 35.1845 28.1262 35.1771 27.2693C35.0351 27.2324 34.893 27.1959 34.7508 27.1595C34.7109 27.1491 34.671 27.1387 34.6299 27.128C34.3178 27.0486 34.0232 27.0105 33.7006 27.0181C33.6266 27.0192 33.6266 27.0192 33.5512 27.0203C32.5342 27.052 31.5992 27.4404 30.8311 28.107Z" fill="#485954"/>
<path d="M44.2583 3.5354C44.5704 3.70181 44.8341 3.89791 45.1045 4.12524C45.1668 4.17717 45.1668 4.17717 45.2303 4.23014C45.585 4.52798 45.9293 4.83456 46.2642 5.15486C46.2916 5.18087 46.3191 5.20688 46.3474 5.23369C47.6628 6.48482 48.8381 8.23335 48.9016 10.1027C48.9229 11.7544 48.548 13.153 47.3785 14.369C47.3534 14.3956 47.3284 14.4222 47.3025 14.4495C43.883 18.0652 38.1031 19.1693 32.9682 19.6623C32.8346 19.6743 32.701 19.6869 32.5674 19.6994C31.0656 19.8378 29.5647 19.8578 28.0577 19.859C27.9112 19.8591 27.7647 19.8594 27.6182 19.8597C26.6533 19.8612 25.6906 19.8519 24.7273 19.7917C24.6578 19.7874 24.5882 19.7831 24.5166 19.7786C24.0361 19.7453 23.5621 19.687 23.0856 19.6183C23.0136 19.4017 23.0611 19.32 23.135 19.1055C23.1597 19.0322 23.1844 18.9589 23.209 18.8855C23.2224 18.8464 23.2357 18.8072 23.2495 18.7669C23.5337 17.9306 23.7789 17.0857 24.0084 16.2328C24.0229 16.1793 24.0373 16.1258 24.0521 16.0706C24.1795 15.5974 24.3053 15.124 24.4228 14.6482C24.4722 14.6486 24.4722 14.6486 24.5226 14.649C26.8711 14.6699 26.8711 14.6699 29.2146 14.5365C29.2535 14.533 29.2924 14.5295 29.3325 14.5259C33.8179 14.1156 38.3238 12.9449 44.2862 9.0604C44.9722 8.19111 45.3183 7.25138 45.2491 6.13037C45.1511 5.29228 44.8413 4.42088 44.3284 3.74198C44.2583 3.64708 44.2583 3.64709 44.2583 3.5354Z" fill="#485954"/>
<path d="M73.0523 25.2724C73.7821 25.9827 74.2302 26.9187 74.2516 27.9443C74.2625 29.4055 73.7029 30.5804 72.711 31.6436C71.3857 32.9884 69.3414 33.6405 67.4935 33.6909C67.4559 33.692 67.4183 33.6932 67.3795 33.6944C66.4464 33.7192 65.513 33.6464 64.5962 33.4675C65.0494 34.4812 65.7257 35.1733 66.7692 35.5896C68.5075 36.2093 70.4333 35.7122 72.0479 34.96C72.3262 34.8256 72.6016 34.6859 72.8752 34.5422C73.0676 34.4427 73.2615 34.3461 73.4553 34.2493C73.5885 34.5283 73.7214 34.8074 73.8539 35.0868C73.8989 35.1817 73.9441 35.2765 73.9894 35.3713C74.0547 35.508 74.1196 35.6448 74.1844 35.7818C74.2046 35.8237 74.2247 35.8657 74.2455 35.9089C74.3605 36.153 74.4474 36.3889 74.5139 36.6506C74.0461 37.1448 73.5918 37.5769 73.0096 37.935C72.9764 37.9556 72.9433 37.9762 72.9091 37.9975C71.6584 38.7678 70.2719 39.1663 68.8307 39.3869C68.7747 39.3958 68.7747 39.3958 68.7175 39.4049C66.4247 39.7156 63.9586 39.3012 62.0576 37.9448C61.4675 37.4928 60.9171 36.9522 60.5288 36.3155C60.4923 36.2578 60.4558 36.2001 60.4182 36.1406C59.2698 34.27 59.1873 31.7976 59.6791 29.7086C60.1822 27.7378 61.4108 26.0848 63.1475 25.0352C65.9907 23.3509 70.4422 22.8418 73.0523 25.2724ZM65.5632 27.8571C65.0862 28.3213 64.7573 28.8727 64.5405 29.5026C64.52 29.5599 64.52 29.5599 64.4991 29.6183C64.3943 29.9623 64.421 30.3195 64.429 30.6754C65.9996 30.9597 67.5603 30.8818 68.9278 30.0207C69.3961 29.6865 69.7003 29.2388 69.8162 28.6731C69.8646 28.185 69.7614 27.7421 69.4904 27.3337C69.1721 26.9591 68.7267 26.7625 68.2429 26.7127C67.2082 26.6961 66.3061 27.1678 65.5632 27.8571Z" fill="#485954"/>
<path d="M9.44292 11.4516C9.5414 11.4515 9.5414 11.4515 9.64187 11.4515C10.7525 11.4525 11.8438 11.5003 12.9462 11.6331C13.0287 11.6428 13.1112 11.6524 13.1938 11.6621C15.676 11.9568 18.1427 12.452 20.5551 13.106C20.5987 13.1177 20.6422 13.1295 20.6871 13.1417C21.1034 13.255 21.5165 13.3684 21.9167 13.5318C21.8211 13.7533 21.6752 13.934 21.5267 14.1216C21.4859 14.1735 21.4859 14.1735 21.4442 14.2264C21.23 14.4957 21.0031 14.7508 20.7691 15.0031C20.6336 15.153 20.507 15.3075 20.381 15.4653C20.1841 15.71 19.9743 15.9313 19.7498 16.1505C19.6422 16.2581 19.5428 16.3686 19.4442 16.4845C19.0126 16.9858 18.5374 17.4256 18.0165 17.8317C17.9826 17.8656 17.9487 17.8995 17.9138 17.9344C17.7266 18.0354 17.5675 17.97 17.3722 17.919C16.8471 17.7958 16.3191 17.6964 15.7878 17.6048C15.7458 17.5976 15.7039 17.5904 15.6607 17.5829C14.8703 17.4475 14.0791 17.3471 13.2805 17.2733C13.2293 17.2684 13.1781 17.2635 13.1254 17.2585C12.7356 17.2233 12.3491 17.2077 11.9578 17.2061C11.8975 17.2058 11.8372 17.2054 11.775 17.2051C11.648 17.2046 11.521 17.2042 11.394 17.204C11.2041 17.2035 11.0143 17.2017 10.8244 17.2C8.69059 17.1896 6.57037 17.5372 4.97855 19.0603C4.94371 19.091 4.90888 19.1217 4.87299 19.1534C4.23494 19.738 3.84275 20.6492 3.79716 21.5069C3.76239 23.356 4.70275 24.8966 5.92575 26.2082C5.87059 26.2266 5.81543 26.2451 5.75859 26.2641C5.63221 26.1801 5.51968 26.0953 5.40339 25.9988C5.36897 25.9709 5.33455 25.943 5.29909 25.9143C5.19164 25.8268 5.085 25.7385 4.97855 25.6498C4.92988 25.6094 4.92988 25.6094 4.88022 25.5682C4.66948 25.393 4.46139 25.2149 4.25422 25.0355C4.21069 24.9982 4.16717 24.9609 4.12232 24.9225C3.40803 24.2958 2.7113 23.6164 2.13695 22.8576C2.0922 22.8012 2.04745 22.7449 2.00135 22.6868C0.642985 20.9701 -0.181081 19.0697 0.0339574 16.8464C0.161098 15.9492 0.619226 15.0606 1.18975 14.3694C1.23945 14.3064 1.28914 14.2433 1.33883 14.1803C2.84196 12.3116 5.19745 11.7611 7.47531 11.5037C8.12891 11.4425 8.78713 11.4519 9.44292 11.4516Z" fill="#485954"/>
<path d="M24.1471 11.9684C24.1839 11.9869 24.2206 12.0053 24.2585 12.0243C23.2019 17.0148 21.7819 22.5294 18.5753 26.5994C18.5205 26.6714 18.5205 26.6714 18.4646 26.7449C17.3445 28.1761 15.8699 29.307 14.0282 29.5434C11.789 29.7296 9.86273 28.7197 8.18747 27.3114C7.83074 27.0053 7.49667 26.6762 7.16366 26.3446C7.11511 26.2965 7.06656 26.2483 7.01654 26.1987C6.68567 25.8655 6.38662 25.5151 6.09457 25.1475C6.0329 25.0722 5.9711 24.997 5.90914 24.9219C5.61814 24.5654 5.3512 24.2231 5.14737 23.8072C5.42493 23.8351 5.69797 23.8703 5.97269 23.9189C9.08972 24.4502 12.245 23.0445 14.7865 21.3501C14.8251 21.3246 14.8636 21.2991 14.9033 21.2727C15.7162 20.7314 16.49 20.1352 17.2381 19.5073C17.2662 19.4839 17.2943 19.4604 17.3233 19.4363C17.7384 19.0901 18.1414 18.7336 18.5369 18.3651C18.6072 18.3006 18.6781 18.237 18.7494 18.1738C19.1221 17.8427 19.4764 17.4959 19.8278 17.1424C19.9233 17.0464 20.019 16.9507 20.1149 16.8551C20.4013 16.5681 20.6835 16.2808 20.9465 15.9718C21.069 15.8282 21.1979 15.6911 21.3264 15.5529C21.5658 15.2931 21.7926 15.0258 22.0137 14.7501C22.1242 14.6141 22.2374 14.481 22.352 14.3484C23.0002 13.5956 23.5765 12.7811 24.1471 11.9684Z" fill="#485954"/>
<path d="M96.5808 23.9189C96.6469 23.945 96.7129 23.971 96.781 23.9978C96.9125 24.0747 96.9616 24.1126 97.0072 24.2599C97.0213 24.4166 97.0227 24.5692 97.0202 24.7264C97.0208 24.7858 97.0214 24.8452 97.022 24.9064C97.0236 25.1029 97.0223 25.2992 97.0211 25.4956C97.0216 25.6318 97.0223 25.7679 97.0232 25.9041C97.025 26.2625 97.0244 26.6209 97.0234 26.9793C97.0228 27.345 97.0244 27.7107 97.0258 28.0764C97.0282 28.794 97.0282 29.5116 97.0265 30.2292C97.0549 30.2007 97.0832 30.1722 97.1124 30.1428C97.3811 29.8724 97.6498 29.6022 97.9188 29.3321C98.057 29.1933 98.1952 29.0544 98.3332 28.9154C98.4924 28.7551 98.6518 28.5951 98.8112 28.4351C98.8601 28.3858 98.909 28.3365 98.9594 28.2857C99.1643 28.0804 99.3691 27.8783 99.589 27.689C99.8657 27.4507 100.12 27.1906 100.377 26.931C100.43 26.8774 100.483 26.8238 100.536 26.7702C100.704 26.6018 100.871 26.4331 101.038 26.2644C101.232 26.0685 101.426 25.8728 101.621 25.6773C101.698 25.5999 101.774 25.5223 101.851 25.4447C102.1 25.1944 102.352 24.952 102.62 24.7226C102.731 24.6267 102.834 24.5238 102.94 24.4215C103.474 23.9423 104.088 23.7288 104.797 23.7361C105.274 23.773 105.621 24.0217 105.941 24.3657C106.383 24.9142 106.383 24.9142 106.387 25.2033C106.286 25.339 106.286 25.339 106.14 25.4756C106.088 25.5244 106.037 25.5732 105.983 25.6235C105.824 25.7675 105.662 25.9097 105.499 26.0497C105.363 26.1721 105.234 26.3013 105.106 26.4319C104.909 26.6309 104.708 26.8174 104.496 26.9991C104.36 27.1214 104.231 27.2506 104.103 27.3812C103.907 27.5803 103.705 27.7667 103.493 27.9484C103.357 28.0708 103.229 28.1999 103.1 28.3306C102.904 28.5296 102.702 28.7161 102.49 28.8977C102.354 29.0201 102.226 29.1493 102.097 29.2799C101.901 29.4789 101.699 29.6654 101.487 29.8471C101.301 30.0144 101.127 30.1953 100.951 30.3739C100.834 30.4901 100.714 30.5998 100.589 30.7074C100.337 30.9248 100.088 31.1513 99.8681 31.402C99.8681 31.4388 99.8681 31.4757 99.8681 31.5136C99.9699 31.5907 100.075 31.6631 100.182 31.7335C101.32 32.5026 102.362 33.4362 103.323 34.4175C103.483 34.5787 103.644 34.7387 103.806 34.8978C104.183 35.2694 104.549 35.6378 104.876 36.0548C104.984 36.1913 105.096 36.323 105.21 36.4542C105.764 37.0947 106.253 37.7798 106.68 38.5115C106.706 38.5559 106.732 38.6002 106.758 38.6459C106.782 38.6877 106.806 38.7295 106.83 38.7726C106.851 38.8092 106.872 38.8458 106.893 38.8835C106.952 39.0128 106.974 39.1367 107 39.2759C106.567 39.2954 106.133 39.3102 105.699 39.3193C105.498 39.3236 105.297 39.3295 105.095 39.3391C103.797 39.3991 103.797 39.3991 103.477 39.1973C103.288 39.0081 103.186 38.7953 103.092 38.5477C103.008 38.3571 102.876 38.2035 102.745 38.0438C102.716 38.0078 102.688 37.9717 102.658 37.9346C102.583 37.8417 102.507 37.7489 102.431 37.6564C102.404 37.6236 102.377 37.5909 102.35 37.5571C101.956 37.0797 101.537 36.6366 101.094 36.2045C100.953 36.0645 100.814 35.9237 100.676 35.7813C100.332 35.4298 99.9748 35.1142 99.5896 34.8084C99.5264 34.7563 99.4634 34.7041 99.4004 34.6518C99.0289 34.3451 98.6489 34.0577 98.2488 33.7893C98.2108 33.7636 98.1728 33.738 98.1336 33.7116C97.7551 33.4621 97.3665 33.248 96.9708 33.0214C96.9708 35.0854 96.9708 37.1494 96.9708 39.2759C95.9963 39.2759 95.0218 39.2759 94.0178 39.2759C94.0141 37.4713 94.011 35.6667 94.0093 33.8621C94.009 33.6489 94.0088 33.4357 94.0086 33.2225C94.0086 33.1801 94.0085 33.1377 94.0085 33.0939C94.0077 32.4073 94.0064 31.7207 94.0049 31.034C94.0033 30.3291 94.0024 29.6243 94.0021 28.9194C94.0018 28.4847 94.0011 28.0499 93.9997 27.6152C93.9988 27.2815 93.9987 26.9478 93.9989 26.6141C93.9988 26.4775 93.9985 26.3408 93.9979 26.2042C93.997 26.0173 93.9972 25.8305 93.9977 25.6436C93.997 25.5629 93.997 25.5629 93.9962 25.4806C93.9996 24.9575 94.0993 24.5097 94.4653 24.1251C95.0391 23.631 95.9098 23.623 96.5808 23.9189Z" fill="#485954"/>
<path d="M80.9228 23.9188C80.989 23.9394 81.0551 23.96 81.1232 23.9812C81.2276 24.0427 81.2276 24.0427 81.3129 24.1422C81.3744 24.4227 81.3636 24.7043 81.3596 24.9899C81.3598 25.0782 81.3601 25.1666 81.3606 25.2549C81.3613 25.4453 81.3608 25.6356 81.3593 25.826C81.357 26.1277 81.3574 26.4293 81.3581 26.731C81.359 27.209 81.3581 27.687 81.3563 28.165C81.3532 29.0187 81.3528 29.8724 81.3537 30.7261C81.354 31.0252 81.3533 31.3243 81.3518 31.6235C81.351 31.8108 81.3508 31.9982 81.3509 32.1855C81.3508 32.2715 81.3503 32.3575 81.3496 32.4435C81.3393 33.6844 81.6403 34.8137 82.4829 35.7576C83.3696 36.493 84.4482 36.7812 85.5889 36.6821C86.5157 36.5851 87.4149 36.3055 88.0547 35.5901C88.7533 34.6592 89.0288 33.634 89.0233 32.474C89.0236 32.3946 89.0239 32.3153 89.0242 32.2359C89.0249 32.0667 89.025 31.8976 89.0248 31.7284C89.0244 31.4603 89.0253 31.1922 89.0264 30.924C89.0286 30.3067 89.0293 29.6894 89.0299 29.0721C89.0305 28.5054 89.0314 27.9388 89.0337 27.3721C89.0347 27.1062 89.0349 26.8403 89.0345 26.5744C89.0345 26.4084 89.0351 26.2424 89.0358 26.0764C89.0362 25.9641 89.0357 25.8518 89.0351 25.7395C89.0393 25.1186 89.083 24.5362 89.5395 24.0779C89.9875 23.7251 90.5132 23.6982 91.0635 23.7513C91.4221 23.8194 91.6976 23.9611 92.0107 24.1422C92.0146 25.2622 92.0175 26.3822 92.0193 27.5022C92.0202 28.0223 92.0213 28.5425 92.0233 29.0627C92.0249 29.5167 92.026 29.9708 92.0264 30.4248C92.0266 30.6646 92.0271 30.9044 92.0283 31.1442C92.0401 33.5336 91.861 35.9639 90.1163 37.768C90.087 37.8015 90.0576 37.8349 90.0275 37.8694C89.0421 38.9553 87.3555 39.4271 85.9374 39.4991C83.8585 39.5828 81.9194 39.2724 80.326 37.8572C78.921 36.5205 78.4101 34.4918 78.3542 32.609C78.3515 32.4085 78.3504 32.2081 78.35 32.0076C78.3496 31.9315 78.3492 31.8553 78.3489 31.7792C78.3477 31.5323 78.3471 31.2854 78.3465 31.0384C78.3463 30.9528 78.3461 30.8671 78.3459 30.7814C78.3448 30.3791 78.344 29.9769 78.3435 29.5746C78.343 29.1125 78.3415 28.6505 78.3393 28.1884C78.3376 27.8294 78.3368 27.4704 78.3366 27.1115C78.3365 26.8978 78.336 26.6842 78.3346 26.4705C78.3333 26.2696 78.333 26.0688 78.3336 25.8679C78.3336 25.7601 78.3326 25.6522 78.3315 25.5444C78.3344 25.0501 78.3971 24.5956 78.715 24.2015C79.3667 23.6884 80.1457 23.5761 80.9228 23.9188Z" fill="#485954"/>
<path d="M35.7874 0.00632689C35.8568 0.00584942 35.8568 0.00584942 35.9276 0.00536231C36.0251 0.00483824 36.1226 0.00447117 36.2201 0.00425457C36.3654 0.00371767 36.5107 0.00198382 36.6561 0.000219014C37.5094 -0.00521607 38.3439 0.0900671 39.164 0.335279C39.2123 0.349515 39.2605 0.36375 39.3102 0.378416C40.4577 0.730081 41.4556 1.29488 42.3086 2.13972C42.3518 2.17902 42.3951 2.21833 42.4396 2.25882C43.38 3.13469 44.2337 4.64789 44.3701 5.93707C44.2265 5.82598 44.0929 5.71504 43.9662 5.58456C43.3107 4.94247 42.5287 4.61577 41.64 4.4293C41.603 4.42095 41.566 4.4126 41.5279 4.40399C38.9938 3.85032 36.1857 4.45584 33.7838 5.26695C33.7286 5.28557 33.6734 5.30418 33.6166 5.32337C31.6427 6.00152 29.7765 6.99136 28.2677 8.45002C28.2314 8.48422 28.1951 8.51841 28.1576 8.55364C27.9189 8.78358 27.7121 9.03664 27.5049 9.29509C27.4231 9.39689 27.3404 9.49792 27.2563 9.59787C26.2582 10.7882 25.45 12.1466 24.869 13.5876C24.7984 13.3851 24.8279 13.2416 24.8755 13.0349C24.8907 12.9686 24.9059 12.9024 24.9215 12.8341C24.9472 12.7268 24.9472 12.7268 24.9734 12.6173C24.9822 12.5804 24.9909 12.5436 24.9999 12.5055C25.8063 9.10911 27.0826 5.43479 29.4894 2.82467C29.5945 2.70959 29.6937 2.59139 29.793 2.47129C30.0344 2.19421 30.3186 1.97342 30.6079 1.74882C30.6536 1.71203 30.6992 1.67525 30.7463 1.63735C32.1412 0.558462 34.038 0.0160183 35.7874 0.00632689Z" fill="#485954"/>
</svg>
