<svg width="95" height="28" viewBox="0 0 95 28" fill="none" xmlns="http://www.w3.org/2000/svg">
<g clip-path="url(#clip0_123_2258)">
<path d="M58.9229 21.8744C53.4089 25.8432 45.4167 27.9607 38.5355 27.9607C28.8871 27.9607 20.2009 24.4759 13.6295 18.6799C13.1133 18.2242 13.5758 17.603 14.1954 17.958C21.2872 21.9873 30.0559 24.4114 39.1138 24.4114C45.2226 24.4114 51.9427 23.1771 58.1217 20.616C59.0551 20.2288 59.8358 21.2129 58.9229 21.8744Z" fill="#485954"/>
<path d="M61.2155 19.3133C60.5134 18.434 56.5565 18.8978 54.7804 19.1035C54.2394 19.1681 54.1568 18.7083 54.6441 18.3775C57.7956 16.2116 62.9668 16.8368 63.5698 17.5628C64.1728 18.2928 63.4129 23.3547 60.4514 25.7707C59.9971 26.1418 59.5634 25.9441 59.7658 25.4521C60.4308 23.8306 61.9218 20.1966 61.2155 19.3133Z" fill="#485954"/>
<path d="M54.9041 3.08704V0.981622C54.9041 0.662986 55.1519 0.449219 55.4493 0.449219H65.1019C65.4117 0.449219 65.6595 0.66702 65.6595 0.981622V2.78453C65.6554 3.08704 65.3952 3.4823 64.9326 4.10748L59.9307 11.0812C61.7894 11.0368 63.7513 11.307 65.4365 12.2347C65.8165 12.4444 65.9197 12.751 65.9486 13.0535V15.3001C65.9486 15.6066 65.6017 15.9656 65.2382 15.78C62.2685 14.2594 58.324 14.0941 55.0404 15.7962C54.7058 15.9736 54.3547 15.6187 54.3547 15.3122V13.1785C54.3547 12.8357 54.3589 12.2508 54.7099 11.7305L60.5048 3.61541H55.4617C55.1519 3.61541 54.9041 3.40164 54.9041 3.08704Z" fill="#485954"/>
<path d="M19.6932 16.2237H16.7565C16.4756 16.2035 16.2526 15.9978 16.2319 15.7356V1.0179C16.2319 0.723461 16.4839 0.489524 16.7978 0.489524H19.5362C19.8212 0.501617 20.0484 0.715392 20.069 0.981594V2.90551H20.1227C20.8373 1.04613 22.1796 0.178955 23.9887 0.178955C25.8267 0.178955 26.975 1.04613 27.801 2.90551C28.5115 1.04613 30.1264 0.178955 31.857 0.178955C33.0879 0.178955 34.4344 0.675058 35.2563 1.78827C36.1856 3.02651 35.9957 4.82539 35.9957 6.40243L35.9915 15.6913C35.9915 15.9857 35.7396 16.2237 35.4257 16.2237H32.4931C32.1999 16.2035 31.9644 15.9736 31.9644 15.6913V7.89074C31.9644 7.2696 32.0223 5.72079 31.8818 5.13192C31.6629 4.14375 31.0062 3.86545 30.1553 3.86545C29.4449 3.86545 28.7015 4.32928 28.3999 5.07142C28.0984 5.81356 28.1273 7.05583 28.1273 7.89074V15.6913C28.1273 15.9857 27.8754 16.2237 27.5615 16.2237H24.6289C24.3315 16.2035 24.1002 15.9736 24.1002 15.6913L24.0961 7.89074C24.0961 6.24916 24.3728 3.83318 22.287 3.83318C20.1764 3.83318 20.259 6.18866 20.259 7.89074V15.6913C20.259 15.9857 20.0071 16.2237 19.6932 16.2237Z" fill="#485954"/>
<path d="M73.9699 0.178955C78.3274 0.178955 80.6858 3.83318 80.6858 8.47961C80.6858 12.9687 78.0796 16.5302 73.9699 16.5302C69.6908 16.5302 67.3613 12.876 67.3613 8.32231C67.3613 3.74041 69.7198 0.178955 73.9699 0.178955ZM73.9947 3.18381C71.8304 3.18381 71.6941 6.06363 71.6941 7.85848C71.6941 9.65735 71.6652 13.4971 73.9699 13.4971C76.2457 13.4971 76.3531 10.3995 76.3531 8.51188C76.3531 7.2696 76.2994 5.78533 75.9153 4.60758C75.5849 3.58311 74.9281 3.18381 73.9947 3.18381Z" fill="#485954"/>
<path d="M86.3362 16.2237H83.412C83.1187 16.2035 82.8833 15.9736 82.8833 15.6913L82.8792 0.969494C82.9039 0.699258 83.1476 0.489524 83.445 0.489524H86.1669C86.423 0.501617 86.6336 0.671026 86.6915 0.900927V3.15154H86.7452C87.5671 1.1389 88.7195 0.178955 90.7475 0.178955C92.065 0.178955 93.3496 0.642792 94.1757 1.9133C94.9439 3.09104 94.9439 5.07142 94.9439 6.4952V15.7598C94.9109 16.018 94.6672 16.2237 94.378 16.2237H91.4331C91.1646 16.2035 90.9416 16.0099 90.9127 15.7598V7.76571C90.9127 6.1564 91.1027 3.80091 89.0747 3.80091C88.3601 3.80091 87.7034 4.26878 87.3771 4.97865C86.9641 5.8781 86.9104 6.7735 86.9104 7.76571V15.6913C86.9062 15.9857 86.6502 16.2237 86.3362 16.2237Z" fill="#485954"/>
<path d="M47.2092 9.19357V8.57243C45.0862 8.57243 42.8435 9.0161 42.8435 11.4603C42.8435 12.6986 43.5002 13.5375 44.6278 13.5375C45.4538 13.5375 46.1932 13.0414 46.6599 12.2347C47.2381 11.2425 47.2092 10.3108 47.2092 9.19357ZM50.1707 16.1834C49.9766 16.3528 49.6957 16.3649 49.4768 16.252C48.502 15.4614 48.3286 15.0944 47.7916 14.3401C46.1808 15.9454 45.0408 16.4254 42.9508 16.4254C40.4809 16.4254 38.5562 14.9371 38.5562 11.9564C38.5562 9.62917 39.849 8.04406 41.687 7.26966C43.2813 6.58398 45.5075 6.46299 47.2092 6.27342V5.90235C47.2092 5.22071 47.2629 4.41404 46.854 3.82517C46.4947 3.2968 45.809 3.079 45.206 3.079C44.0867 3.079 43.0871 3.63963 42.8435 4.80124C42.7939 5.05938 42.5998 5.31348 42.3354 5.32558L39.4855 5.02711C39.2459 4.97468 38.9816 4.78511 39.0477 4.42614C39.7044 1.05425 42.8228 0.0378418 45.6149 0.0378418C47.044 0.0378418 48.9109 0.408911 50.0385 1.46565C51.4676 2.76843 51.3313 4.5068 51.3313 6.39845V10.8674C51.3313 12.2105 51.9013 12.7994 52.4383 13.5254C52.6282 13.7835 52.6696 14.0941 52.43 14.2877C51.8311 14.7757 50.7655 15.6832 50.179 16.1915L50.1707 16.1834Z" fill="#485954"/>
<path d="M8.71045 9.19357V8.57243C6.58745 8.57243 4.34467 9.0161 4.34467 11.4603C4.34467 12.6986 5.0014 13.5375 6.12898 13.5375C6.95505 13.5375 7.69438 13.0414 8.16112 12.2347C8.73936 11.2425 8.71045 10.3108 8.71045 9.19357ZM11.6719 16.1834C11.4778 16.3528 11.1969 16.3649 10.978 16.252C10.0033 15.4614 9.82977 15.0944 9.29283 14.3401C7.68199 15.9454 6.54202 16.4254 4.45206 16.4254C1.98211 16.4254 0.057373 14.9371 0.057373 11.9564C0.057373 9.62917 1.35017 8.04406 3.18818 7.26966C4.78249 6.58398 7.00875 6.46299 8.71045 6.27342V5.90235C8.71045 5.22071 8.76415 4.41404 8.35524 3.82517C7.9959 3.2968 7.31026 3.079 6.70723 3.079C5.58791 3.079 4.58836 3.63963 4.34467 4.80124C4.29511 5.05938 4.10098 5.31348 3.83664 5.32558L0.986701 5.02711C0.747141 4.97468 0.482798 4.78511 0.548884 4.42614C1.20561 1.05425 4.32402 0.0378418 7.11614 0.0378418C8.54524 0.0378418 10.4122 0.408911 11.5397 1.46565C12.9688 2.76843 12.8325 4.5068 12.8325 6.39845V10.8674C12.8325 12.2105 13.4025 12.7994 13.9395 13.5254C14.1295 13.7835 14.1708 14.0941 13.9312 14.2877C13.3323 14.7757 12.2667 15.6832 11.6802 16.1915L11.6719 16.1834Z" fill="#485954"/>
</g>
<defs>
<clipPath id="clip0_123_2258">
<rect width="95" height="28" fill="white"/>
</clipPath>
</defs>
</svg>
