<svg width="14" height="14" viewBox="0 0 14 14" fill="none" xmlns="http://www.w3.org/2000/svg">
<path d="M7.43382 1.42718C7.10634 3.79503 5.86862 5.29722 4.44876 6.19648C4.37359 6.24408 4.29725 6.2889 4.22123 6.33315H14V7.56946H4.04658C4.18097 7.64281 4.31515 7.71993 4.44715 7.80352C5.86702 8.70279 7.10554 10.2049 7.43302 12.5728L6.56538 12.6875C6.27517 10.5896 5.19721 9.30007 3.97288 8.52457C3.13574 7.99438 2.22531 7.70317 1.44687 7.56946H0V6.33315H1.91874C2.57991 6.17334 3.30047 5.90179 3.97368 5.47543C5.19809 4.69995 6.27675 3.41051 6.56698 1.3125L7.43382 1.42718Z" fill="white"/>
</svg>
