<svg width="16" height="13" viewBox="0 0 16 13" fill="none" xmlns="http://www.w3.org/2000/svg">
<path d="M7.50421 0.131059C7.87846 2.83717 9.29301 4.55396 10.9157 5.58169C11.0016 5.63609 11.0889 5.68731 11.1757 5.73788H0V7.15081H11.3753C11.2218 7.23464 11.0684 7.32278 10.9175 7.41831C9.29483 8.44604 7.87938 10.1628 7.50512 12.8689L8.49671 13C8.82838 10.6024 10.0603 9.12865 11.4596 8.24237C12.4163 7.63644 13.4568 7.30363 14.3464 7.15081H16V5.73788H13.8072C13.0515 5.55525 12.228 5.2449 11.4587 4.75763C10.0593 3.87137 8.82657 2.39772 8.49488 0L7.50421 0.131059Z" fill="#151717"/>
</svg>
