<svg width="56" height="56" viewBox="0 0 56 56" fill="none" xmlns="http://www.w3.org/2000/svg">
<rect width="56" height="56" fill="#151717"/>
<path d="M28.4338 22.4272C28.1063 24.795 26.8686 26.2972 25.4488 27.1965C25.3736 27.2441 25.2972 27.2889 25.2212 27.3331H35V28.5695H25.0466C25.181 28.6428 25.3151 28.7199 25.4472 28.8035C26.867 29.7028 28.1055 31.2049 28.433 33.5728L27.5654 33.6875C27.2752 31.5896 26.1972 30.3001 24.9729 29.5246C24.1357 28.9944 23.2253 28.7032 22.4469 28.5695H21V27.3331H22.9187C23.5799 27.1733 24.3005 26.9018 24.9737 26.4754C26.1981 25.7 27.2768 24.4105 27.567 22.3125L28.4338 22.4272Z" fill="white"/>
</svg>
