<svg width="144" height="23" viewBox="0 0 144 23" fill="none" xmlns="http://www.w3.org/2000/svg">
<path fill-rule="evenodd" clip-rule="evenodd" d="M84.0244 4.93612L84.0199 4.93386C84.5599 4.34813 85.1582 3.72607 85.7843 3.12755C85.0224 2.75858 84.3187 2.34034 83.6379 1.93575C82.1627 1.05905 80.7952 0.246382 79.1768 0.137625C77.9215 0.0604378 76.6648 0.266793 75.5011 0.741196C75.5011 0.741196 74.872 -0.107239 72.9347 0.167696C70.9973 0.442633 65.0298 2.9192 59.9444 10.9954C55.3477 18.2963 57.5077 22.4826 60.8093 22.4375C64.3877 22.3881 67.7908 18.4359 68.9454 15.1775C70.1001 11.9191 68.7379 11.0363 67.6914 11.12C66.5347 11.2167 64.4914 12.2391 63.3671 14.4988C62.2428 16.7584 62.2428 18.1503 62.2428 18.1503C62.7023 17.6713 63.2021 17.2322 63.7369 16.8379C64.2181 16.4645 64.7484 16.1581 65.3131 15.9271C65.4452 15.3432 65.6417 14.7757 65.899 14.2345C66.3055 13.3926 66.9498 12.5162 67.7455 12.3186C69.3606 11.9169 68.5866 14.8424 67.3996 16.7498C66.7617 17.7679 64.4979 20.7127 62.5542 20.7127C60.6104 20.7127 60.2385 18.8526 60.6471 17.1063C61.0557 15.36 61.6244 13.152 64.4655 9.13103C67.3066 5.1101 70.3789 2.72589 72.1584 1.7271C73.9855 0.698238 74.7292 1.1493 74.7292 1.1493C74.7292 1.1493 72.3963 2.57124 71.0687 4.28959C69.8017 5.93062 69.0428 7.77569 69.6309 8.67997C70.193 9.54129 72.1671 9.55847 74.3443 6.43967C76.4935 3.35953 75.9531 1.52735 75.9531 1.52735C76.0945 1.48165 76.239 1.44575 76.3854 1.41995C77.4341 1.28033 78.273 1.55741 79.5703 2.21898C80.203 2.54173 80.8239 2.95511 81.4871 3.39665C82.2485 3.90343 83.0657 4.44743 84.0199 4.93386L84.0179 4.93612H84.0244ZM75.2179 1.76576C75.2179 1.76576 73.8341 2.31349 72.2254 4.07479C70.6168 5.8361 69.6785 7.81865 70.3724 8.34274C70.6385 8.54249 71.2525 8.57687 72.3682 7.58022C73.3968 6.69265 74.2043 5.58025 74.727 4.3304C75.406 2.68594 75.241 1.87973 75.2199 1.77677C75.2187 1.77053 75.2179 1.76687 75.2179 1.76576Z" fill="#485954"/>
<path d="M86.8307 5.93362L86.8297 5.93473C90.6091 6.67792 93.9194 4.3517 95.6794 2.37131C96.3217 1.6626 96.8742 0.878507 97.3248 0.036499C96.5232 0.865505 95.6262 1.59797 94.6524 2.21881L94.6415 2.21666C93.0027 3.26056 90.7346 4.20779 88.5551 3.99944C88.0038 4.5665 87.4135 5.22162 86.8254 5.93258L86.8307 5.93362Z" fill="#485954"/>
<path fill-rule="evenodd" clip-rule="evenodd" d="M88.1596 19.2775C87.8462 19.7758 87.4894 20.7316 88.5251 20.1367C89.7856 19.4127 91.5823 16.6999 91.5823 16.6999H92.3953C91.6545 17.8337 90.8291 18.9107 89.9262 19.9219C88.6484 21.3288 87.0894 22.6068 85.9911 22.48C84.7089 22.3318 85.1111 20.6585 85.1111 20.6585C85.1111 20.6585 83.2688 22.5917 82.004 22.4607C80.2894 22.2716 80.8126 20.1667 80.8126 20.1667C80.8126 20.1667 78.8667 22.5295 77.5521 22.4585C75.4808 22.3404 76.0019 19.8295 76.577 18.0724C76.8862 17.1295 77.1716 16.3885 77.1716 16.3885C77.1716 16.3885 76.9662 16.4422 76.523 16.5066C76.2916 16.5388 75.8744 16.5625 75.8744 16.5625C75.3989 17.3953 74.8808 18.2032 74.3219 18.9832C73.6322 19.8939 70.7025 23.0234 68.9727 22.3963C67.377 21.8164 67.9045 19.3892 68.8343 17.456C70.19 14.6444 74.004 10.6041 76.203 11.1346C78.4841 11.6845 76.2549 15.8172 76.2549 15.8172C76.2549 15.8172 76.2549 15.8321 76.2786 15.8429C76.4226 15.8687 76.5708 15.8606 76.7111 15.8192C76.9962 15.762 77.2754 15.6793 77.5456 15.5722C77.5456 15.5722 79.8376 10.8038 82.3694 7.68503C84.9013 4.56623 89.9586 -0.799312 91.9413 0.50019C92.4256 0.820232 92.205 1.91998 91.5521 3.25599C91.2579 3.34844 90.9591 3.42587 90.657 3.48797C91.0191 2.89137 91.2928 2.24611 91.4699 1.57201C91.7683 -0.0389421 87.9802 3.35695 85.2732 7.01273C83.6452 9.21507 82.199 11.5446 80.9489 13.9785C81.438 13.6832 81.9048 13.3529 82.3456 12.9905C83.5533 11.9956 84.7011 10.9312 85.7835 9.80291C86.8219 8.74009 87.7959 7.61688 88.7002 6.43924C88.9899 6.4257 89.2786 6.39631 89.5651 6.35117C88.5755 7.68441 87.497 8.95024 86.337 10.1401C86.2414 10.2351 86.1452 10.3308 86.0484 10.4271C85.0506 11.4197 83.9985 12.4664 83.0722 13.2417C82.1677 14.0103 81.2136 14.7192 80.2159 15.3639C80.2159 15.3639 77.8376 20.1065 79.1349 20.4115C79.8916 20.592 81.3878 18.3045 81.3878 18.3045C81.3878 18.3045 83.3338 15.3467 84.5143 14.0086C86.11 12.2043 87.4916 11.1647 88.8645 11.1368C89.6688 11.1217 90.1424 11.9744 90.1424 11.9744L90.5207 11.3924H92.8493C92.8493 11.3924 88.5013 18.7211 88.1532 19.2731L88.1596 19.2775ZM89.6192 12.795C89.6475 12.7452 89.6707 12.6926 89.6883 12.6382C89.6773 12.5523 89.6369 12.4728 89.5739 12.413C89.5109 12.3532 89.4292 12.3167 89.3424 12.3095C88.9835 12.2924 88.4905 12.3611 87.204 13.7766C86.135 14.9487 85.2156 16.2473 84.4667 17.6429C83.7295 18.981 83.431 19.9776 83.8548 20.2355C83.9922 20.3056 84.1513 20.3217 84.3003 20.2805C84.5878 20.2118 84.9121 19.9454 85.4073 19.3763C85.5925 19.163 85.7944 18.878 86.0252 18.5523L86.0274 18.5492C86.0842 18.4693 86.1426 18.3867 86.2029 18.3023C87.0548 17.151 89.1954 13.5253 89.6192 12.7929V12.795ZM76.244 14.3329C76.4602 13.7744 76.7327 12.679 76.164 12.2494C75.5522 11.7919 74.0019 12.8637 73.9868 13.9677C73.9716 15.0718 75.083 15.6023 75.3489 15.6732C75.5002 15.714 75.5522 15.7076 75.6257 15.5873C75.8608 15.1853 76.0674 14.7677 76.244 14.3372V14.3329ZM75.0657 16.3842C74.6797 16.2069 74.3197 15.9786 73.9954 15.7055C73.6689 15.4346 73.3955 15.1061 73.1889 14.7367C73.171 14.7065 73.1532 14.7263 73.1341 14.7473C73.13 14.7518 73.126 14.7563 73.1219 14.7603C73.0975 14.7846 73.0006 14.8808 72.1706 16.0878C71.3359 17.3013 70.0647 19.8016 71.2191 20.229C71.9586 20.5018 73.1889 19.2152 73.8635 18.3625C74.3201 17.7677 74.7341 17.1418 75.1025 16.4894C75.1371 16.4164 75.1025 16.3992 75.0657 16.3842Z" fill="#485954"/>
<path d="M61.957 5.81458H59.7429L58.4911 7.82504H60.7051L61.957 5.81458Z" fill="#485954"/>
<path fill-rule="evenodd" clip-rule="evenodd" d="M56.7603 11.3152H57.5646C57.5646 11.3152 53.4997 17.1512 51.2014 16.8849C49.9192 16.7366 50.2997 15.1664 50.2997 15.1664C50.2997 15.1664 48.4943 17.2607 46.8403 16.8419C45.3397 16.4595 46.3084 13.983 46.3084 13.983C46.2828 13.9932 46.1885 14.0832 46.0389 14.2261C45.1884 15.038 42.551 17.5556 40.6111 16.8139C38.2328 15.899 39.463 12.8553 39.9171 11.9402C40.3019 11.1692 40.7279 10.4174 40.7279 10.4174C40.7279 10.4174 40.3624 10.5205 40.1332 10.572C39.9041 10.6236 39.5603 10.6902 39.5603 10.6902C39.5603 10.6902 38.4317 12.5137 37.742 13.4223C37.0522 14.331 34.1182 17.4584 32.3905 16.8354C30.663 16.2125 31.0933 13.8112 32.0619 11.8951C33.636 8.80215 37.3722 5.00029 39.6294 5.57165C41.8868 6.14299 40.0208 9.80953 40.0208 9.80953C40.0208 9.80953 40.4728 9.86752 41.5559 9.13292C42.0034 8.83048 42.4911 8.38169 43.0115 7.90286C44.3094 6.70857 45.8103 5.32755 47.3938 5.5652C48.4403 5.722 49.4154 6.78952 48.0814 8.81503C47.6489 9.45941 46.9376 10.0479 46.3884 9.4723C46.0468 9.11789 46.3451 8.46277 46.7041 8.016C46.8444 7.83393 47.0276 7.68895 47.2376 7.59381C47.4476 7.49867 47.678 7.45629 47.9083 7.47043C47.9083 7.47043 48.276 6.63058 47.3397 6.64776C46.5808 6.66279 44.6608 8.41766 43.5776 10.1919C42.5959 11.8265 41.0932 14.6016 42.5959 15.2073C43.9819 15.7636 46.6197 12.6533 47.8413 11.0231C49.0629 9.39282 51.8435 5.69838 54.1787 5.55017C54.983 5.49861 55.4608 6.22677 55.4608 6.22677L55.731 5.79718H58.0619C58.0619 5.79718 53.6727 13.098 53.3289 13.6458C53.0587 14.0753 52.6997 15.0483 53.6943 14.505C54.6889 13.9615 56.7603 11.3152 56.7603 11.3152ZM51.4738 12.7694C52.4164 11.4806 55.0154 6.99143 55.0154 6.99143C55.0043 6.90559 54.9639 6.82613 54.9009 6.76631C54.8379 6.7065 54.7563 6.66996 54.6695 6.6628C54.3105 6.64561 53.7138 6.7659 52.5073 8.24798C51.3008 9.73005 50.4014 10.9093 49.7311 12.1357C48.9916 13.4739 48.6695 14.419 49.0933 14.6746C49.231 14.7438 49.3896 14.7598 49.5386 14.7197C49.8154 14.651 50.1764 14.376 50.6717 13.809C50.9052 13.5448 51.1689 13.1882 51.4781 12.7694H51.4738ZM39.597 6.69073C38.9851 6.23106 37.435 7.30503 37.4198 8.40907C37.4046 9.51311 38.8251 9.85678 39.009 9.86537C39.0499 9.87611 39.0934 9.87307 39.1325 9.85677C39.1716 9.84045 39.2041 9.81177 39.2252 9.77516C39.3914 9.45153 39.5409 9.11959 39.6727 8.78067C39.889 8.2222 40.1592 7.12675 39.5905 6.69717L39.597 6.69073ZM38.6673 10.5635C38.2455 10.4324 37.8422 10.2483 37.4674 10.0157C37.1017 9.78114 36.8037 9.45621 36.6025 9.07278C36.5836 9.04096 36.5632 9.0646 36.5438 9.08685C36.541 9.09013 36.5383 9.09338 36.5355 9.09641C36.5138 9.12004 36.3885 9.28329 35.556 10.4969C34.7236 11.7105 33.489 14.1934 34.6457 14.6188C35.3852 14.8916 36.6284 13.6006 37.3009 12.7479C37.8076 12.0824 38.2761 11.3889 38.704 10.6709C38.7322 10.5978 38.704 10.5806 38.663 10.5677L38.6673 10.5635Z" fill="#485954"/>
<path d="M55.4877 23C53.7682 21.8178 51.7093 21.2208 49.6196 21.2988C49.054 21.314 48.4999 21.4615 48.0024 21.7296C47.505 21.9975 47.0783 22.3783 46.757 22.8411C45.8662 21.2967 44.1061 20.3495 41.384 20.3709C39.0792 20.3969 36.7834 20.9625 34.6231 21.4948C32.6613 21.9781 30.8112 22.434 29.1679 22.4329C25.8511 22.4329 23.4359 20.3624 23.5159 16.6872C23.6587 10.2434 29.1375 4.44398 33.2457 1.82779C35.6002 0.324234 37.5699 -0.11824 38.8673 0.0256715C39.8078 0.128772 40.9386 1.20919 40.225 2.8008C39.1765 5.13132 37.7278 4.93586 37.7819 3.82322C37.8043 3.53297 37.8959 3.25217 38.0488 3.00387C38.2019 2.75556 38.412 2.54685 38.6618 2.39484C38.9271 2.25141 39.2247 2.17749 39.5267 2.18005C39.7429 2.00607 39.8921 0.732343 38.2056 1.1512C36.5192 1.57004 34.4651 3.2175 32.5278 5.34396C30.5906 7.47042 27.5765 11.4871 26.8305 15.7057C26.4824 17.6624 26.7137 21.2302 31.371 21.1914C33.1667 21.1768 35.3514 20.6356 37.7039 20.0529C40.5325 19.3523 43.6035 18.5916 46.532 18.6139C48.4001 18.6061 50.2347 19.1052 51.838 20.0574C53.2262 20.9165 54.8888 22.1451 55.4791 22.9914L55.4877 23Z" fill="#485954"/>
<path d="M13.0548 14.6443H17.7293L17.5758 13.5875H14.2699V12.2988H16.497V11.2248H14.2699V10.1293H17.5131L17.6688 9.07253H13.057L13.0548 14.6443Z" fill="#485954"/>
<path d="M6.13625 14.6444H7.35138V12.1807H10.2141V14.6423H11.4335V9.08985H10.2162V11.1025H7.35138V9.0877H6.14274L6.13625 14.6444Z" fill="#485954"/>
<path d="M0 10.1723H1.86378V14.6379H3.08323V10.1723H4.94701V9.08545H0V10.1723Z" fill="#485954"/>
<path d="M142.657 9.10276H144L141.788 12.7886V14.6552H140.569V12.8123L138.335 9.10061H139.708L141.189 11.6997L142.657 9.10276Z" fill="#485954"/>
<path d="M136.188 12.8614V9.10257L137.375 9.09612V14.6485H136.149L133.436 10.8231V14.6485H132.248V9.09612H133.511L136.188 12.8614Z" fill="#485954"/>
<path fill-rule="evenodd" clip-rule="evenodd" d="M131.183 14.6512H129.901L129.435 13.4118H126.981L126.517 14.6447H125.244L127.469 9.09443H128.967L131.183 14.6512ZM128.216 10.1662L127.379 12.3679L129.046 12.3658L128.216 10.1662Z" fill="#485954"/>
<path fill-rule="evenodd" clip-rule="evenodd" d="M120.392 9.09226H123.266C123.639 9.08028 124.01 9.15841 124.347 9.31994C124.627 9.45779 124.859 9.67635 125.013 9.94714C125.161 10.2255 125.239 10.5355 125.239 10.8503C125.239 11.1652 125.161 11.4752 125.013 11.7535C124.858 12.0247 124.626 12.2443 124.347 12.3851C124.01 12.5473 123.64 12.6262 123.266 12.6149H121.612V14.6425H120.392V9.09226ZM121.62 11.543H123.244C123.449 11.5563 123.65 11.491 123.808 11.3605C123.939 11.2221 124.01 11.0397 124.01 10.8503C124.01 10.661 123.939 10.4786 123.808 10.3402C123.648 10.2132 123.447 10.1497 123.242 10.1619H121.62V11.543Z" fill="#485954"/>
<path d="M117.136 9.09219H118.773L118.774 14.6467H117.594V10.5657L115.878 14.5608H115.062L113.365 10.6666V14.6382H112.184V9.09219H113.821L115.495 12.9585L117.136 9.09219Z" fill="#485954"/>
<path d="M107.867 13.6395C107.866 13.6395 107.867 13.6396 107.867 13.6395V13.6395Z" fill="#485954"/>
<path fill-rule="evenodd" clip-rule="evenodd" d="M109.409 14.3698C108.934 14.6183 108.404 14.7439 107.867 14.7349L107.861 14.7371C107.324 14.7455 106.794 14.6199 106.319 14.372C105.876 14.1366 105.508 13.7823 105.257 13.3495C105.005 12.8934 104.872 12.3814 104.872 11.861C104.872 11.3405 105.005 10.8285 105.257 10.3725C105.509 9.93961 105.877 9.58541 106.321 9.35005C106.799 9.10929 107.327 8.98381 107.863 8.98381C108.398 8.98381 108.927 9.10929 109.404 9.35005C109.855 9.58281 110.229 9.93724 110.485 10.3725C110.737 10.8284 110.869 11.3399 110.869 11.8599C110.869 12.3798 110.737 12.8915 110.485 13.3473C110.23 13.782 109.857 14.1363 109.409 14.3698ZM106.981 13.4118C107.25 13.5656 107.557 13.6441 107.868 13.6394C108.179 13.6462 108.487 13.5674 108.756 13.4118C109.015 13.2631 109.227 13.0451 109.368 12.7824C109.513 12.4967 109.588 12.1811 109.588 11.861C109.588 11.5409 109.513 11.2253 109.368 10.9395C109.228 10.6748 109.016 10.455 108.756 10.3059C108.484 10.1573 108.179 10.0795 107.869 10.0795C107.559 10.0795 107.254 10.1573 106.983 10.3059C106.723 10.4509 106.51 10.6652 106.367 10.9245C106.216 11.2082 106.142 11.5255 106.15 11.846C106.143 12.1663 106.217 12.4832 106.367 12.7674C106.506 13.0353 106.719 13.2587 106.981 13.4118Z" fill="#485954"/>
<path d="M103.27 14.5219C102.861 14.6688 102.428 14.7415 101.992 14.7368L101.999 14.7432C101.434 14.7531 100.875 14.6239 100.373 14.3673C99.9099 14.1308 99.5216 13.7721 99.2503 13.3307C98.9792 12.8893 98.8357 12.3821 98.8357 11.865C98.8357 11.3478 98.9792 10.8407 99.2503 10.3992C99.5216 9.95776 99.9099 9.59909 100.373 9.3626C100.869 9.10858 101.421 8.9802 101.979 8.98886C102.415 8.98112 102.848 9.05395 103.257 9.20365C103.627 9.33796 103.957 9.56337 104.215 9.85877L103.456 10.6965C103.263 10.4957 103.032 10.3338 102.777 10.2196C102.535 10.1187 102.274 10.0675 102.012 10.0693C101.675 10.0648 101.342 10.1462 101.045 10.3055C100.765 10.4557 100.53 10.6784 100.366 10.9499C100.195 11.2238 100.106 11.5405 100.109 11.8628C100.105 12.1805 100.189 12.4933 100.353 12.7663C100.516 13.0394 100.753 13.262 101.037 13.4093C101.338 13.57 101.676 13.6514 102.018 13.6456C102.292 13.6501 102.563 13.5985 102.815 13.4938C103.067 13.3893 103.295 13.2339 103.484 13.0377L104.245 13.8625C103.983 14.1619 103.647 14.3889 103.27 14.5219Z" fill="#485954"/>
</svg>
