<svg width="32" height="32" viewBox="0 0 32 32" fill="none" xmlns="http://www.w3.org/2000/svg">
<rect width="32" height="32" fill="white"/>
<g clip-path="url(#clip0_202_1445)">
<path d="M16.9707 5.24219V9.57005H16.6198C16.6198 7.79138 15.3598 6.62581 13.2938 6.56266H8.53883V15.495H10.8848C12.6017 15.4633 13.8646 14.3578 13.8646 12.8855H14.1791V19.4233H13.8646C13.8646 17.9497 12.6014 16.8438 10.9194 16.7838H8.53883V24.5189C8.55951 25.1317 8.90725 25.6924 9.43977 26.0495C9.51572 26.1016 9.59479 26.1475 9.67698 26.19C10.0026 26.3559 10.379 26.4522 10.782 26.4522V26.7586H1V26.4522H1.03486C1.91681 26.4522 2.68994 25.9926 3.05496 25.3466C3.11816 25.2345 3.17031 25.1161 3.20687 24.9944C3.25419 24.8412 3.278 24.6817 3.278 24.5189V7.3904C3.278 7.29553 3.27006 7.20237 3.25108 7.1109C3.24002 7.04917 3.22415 6.99083 3.20517 6.9325C3.19581 6.90248 3.18448 6.87416 3.17342 6.84414C3.09435 6.64365 2.97277 6.45562 2.81945 6.29137C2.40058 5.84083 1.74308 5.54859 1.03486 5.54859L1 5.24219H16.9707ZM18.2701 5.2453C22.3769 5.33224 26.2119 6.89908 26.2119 11.0437C26.2119 13.6215 24.4588 16.5374 20.4973 16.8753C21.9708 17.3049 23.2668 18.5339 24.073 19.608C24.1805 19.7643 26.283 22.6771 27.5793 24.119C28.8124 25.4981 29.674 26.3525 31 26.3573V26.7586H28.6398C24.7844 26.7586 21.8993 26.0226 20.2871 23.568C19.4445 22.2475 17.8322 19.2084 17.3768 18.3175C16.6813 17.0381 15.9144 16.3936 15.0104 16.2342V15.9547H16.0442C17.9379 15.9246 19.8665 15.0955 20.4973 12.3945C20.5668 12.0249 20.6379 11.5353 20.6033 10.9208C20.4911 8.58004 19.4068 7.2658 17.8053 6.80931V5.2453H18.2701Z" fill="#088862"/>
</g>
<defs>
<clipPath id="clip0_202_1445">
<rect width="30" height="21.5164" fill="white" transform="translate(1 5.24219)"/>
</clipPath>
</defs>
</svg>
