<svg width="144" height="56" viewBox="0 0 144 56" fill="none" xmlns="http://www.w3.org/2000/svg">
<path fill-rule="evenodd" clip-rule="evenodd" d="M107.048 28.5532L113.55 25.772C113.191 24.8357 112.117 24.182 110.85 24.182C109.224 24.182 106.966 25.6582 107.048 28.5532ZM114.678 31.2495L117.158 32.952C116.36 34.1732 114.431 36.2732 111.098 36.2732C106.966 36.2732 103.981 32.9807 103.981 28.7807C103.981 24.3245 106.993 21.287 110.74 21.287C114.513 21.287 116.36 24.3807 116.965 26.0557L117.295 26.907L107.571 31.0507C108.316 32.5545 109.472 33.3207 111.098 33.3207C112.722 33.3207 113.852 32.4982 114.678 31.2495Z" fill="#485954"/>
<path fill-rule="evenodd" clip-rule="evenodd" d="M98.9232 35.8185H102.119V13.7947H98.9232V35.8185Z" fill="#485954"/>
<path fill-rule="evenodd" clip-rule="evenodd" d="M93.7038 28.8083C93.7038 26.1696 91.9954 24.2383 89.8199 24.2383C87.6165 24.2383 85.7698 26.1696 85.7698 28.8083C85.7698 31.4196 87.6165 33.3208 89.8199 33.3208C91.9954 33.3208 93.7038 31.4196 93.7038 28.8083ZM96.5138 21.7408V35.1946C96.5138 40.7283 93.3458 42.9996 89.599 42.9996C86.0731 42.9996 83.9522 40.5583 83.1526 38.5721L85.9348 37.3796C86.431 38.5996 87.6432 40.0471 89.599 40.0471C91.9954 40.0471 93.4841 38.5158 93.4841 35.6483V34.5696H93.3725C92.6566 35.4783 91.2795 36.2721 89.5444 36.2721C85.9081 36.2721 82.5751 33.0096 82.5751 28.8083C82.5751 24.5796 85.9081 21.2871 89.5444 21.2871C91.2795 21.2871 92.6566 22.0821 93.3725 22.9621H93.4841V21.7408H96.5138Z" fill="#485954"/>
<path fill-rule="evenodd" clip-rule="evenodd" d="M77.7138 28.78C77.7138 26.0837 75.8477 24.2387 73.6831 24.2387C71.5197 24.2387 69.6524 26.0837 69.6524 28.78C69.6524 31.4475 71.5197 33.3212 73.6831 33.3212C75.8477 33.3212 77.7138 31.4475 77.7138 28.78ZM80.8515 28.78C80.8515 33.0937 77.6325 36.2725 73.6831 36.2725C69.7337 36.2725 66.5159 33.0937 66.5159 28.78C66.5159 24.4375 69.7337 21.2875 73.6831 21.2875C77.6325 21.2875 80.8515 24.4375 80.8515 28.78Z" fill="#485954"/>
<path fill-rule="evenodd" clip-rule="evenodd" d="M61.6392 28.78C61.6392 26.0837 59.7731 24.2387 57.6085 24.2387C55.4452 24.2387 53.579 26.0837 53.579 28.78C53.579 31.4475 55.4452 33.3212 57.6085 33.3212C59.7731 33.3212 61.6392 31.4475 61.6392 28.78ZM64.7769 28.78C64.7769 33.0937 61.5579 36.2725 57.6085 36.2725C53.6603 36.2725 50.4414 33.0937 50.4414 28.78C50.4414 24.4375 53.6603 21.2875 57.6085 21.2875C61.5579 21.2875 64.7769 24.4375 64.7769 28.78Z" fill="#485954"/>
<path fill-rule="evenodd" clip-rule="evenodd" d="M38.1631 36.2727C31.9374 36.2727 26.7031 31.0515 26.7031 24.6365C26.7031 18.2227 31.9374 13.0002 38.1631 13.0002C41.6077 13.0002 44.0586 14.3902 45.9053 16.2065L43.7286 18.449C42.4061 17.1715 40.6152 16.179 38.1631 16.179C33.6179 16.179 30.0641 19.954 30.0641 24.6365C30.0641 29.319 33.6179 33.094 38.1631 33.094C41.1115 33.094 42.7907 31.874 43.8657 30.7665C44.7466 29.859 45.3266 28.5527 45.5462 26.7652H38.1631V23.5865H48.5492C48.6596 24.154 48.7154 24.8352 48.7154 25.5727C48.7154 27.9577 48.0808 30.909 46.0424 33.009C44.0586 35.1377 41.524 36.2727 38.1631 36.2727Z" fill="#485954"/>
</svg>
