<svg width="144" height="56" viewBox="0 0 144 56" fill="none" xmlns="http://www.w3.org/2000/svg">
<path fill-rule="evenodd" clip-rule="evenodd" d="M106.819 28.553L113.279 25.7717C112.922 24.8355 111.855 24.1817 110.597 24.1817C108.982 24.1817 106.738 25.658 106.819 28.553ZM114.4 31.2492L116.864 32.9517C116.071 34.173 114.154 36.273 110.843 36.273C106.738 36.273 103.773 32.9805 103.773 28.7805C103.773 24.3242 106.765 21.2867 110.487 21.2867C114.236 21.2867 116.071 24.3805 116.672 26.0555L117 26.9067L107.339 31.0505C108.079 32.5542 109.228 33.3205 110.843 33.3205C112.457 33.3205 113.579 32.498 114.4 31.2492Z" fill="#EA4335"/>
<path fill-rule="evenodd" clip-rule="evenodd" d="M98.7479 35.8182H101.923V13.7945H98.7479V35.8182Z" fill="#34A853"/>
<path fill-rule="evenodd" clip-rule="evenodd" d="M93.5626 28.8081C93.5626 26.1694 91.8654 24.2381 89.7041 24.2381C87.5151 24.2381 85.6805 26.1694 85.6805 28.8081C85.6805 31.4194 87.5151 33.3206 89.7041 33.3206C91.8654 33.3206 93.5626 31.4194 93.5626 28.8081ZM96.3543 21.7406V35.1944C96.3543 40.7281 93.207 42.9994 89.4847 42.9994C85.9818 42.9994 83.8748 40.5581 83.0804 38.5719L85.8444 37.3794C86.3374 38.5994 87.5416 40.0469 89.4847 40.0469C91.8654 40.0469 93.3444 38.5156 93.3444 35.6481V34.5694H93.2335C92.5223 35.4781 91.1542 36.2719 89.4305 36.2719C85.8179 36.2719 82.5067 33.0094 82.5067 28.8081C82.5067 24.5793 85.8179 21.2868 89.4305 21.2868C91.1542 21.2868 92.5223 22.0818 93.2335 22.9618H93.3444V21.7406H96.3543Z" fill="#4285F4"/>
<path fill-rule="evenodd" clip-rule="evenodd" d="M77.6772 28.7797C77.6772 26.0835 75.8232 24.2385 73.6728 24.2385C71.5236 24.2385 69.6685 26.0835 69.6685 28.7797C69.6685 31.4472 71.5236 33.321 73.6728 33.321C75.8232 33.321 77.6772 31.4472 77.6772 28.7797ZM80.7943 28.7797C80.7943 33.0935 77.5964 36.2722 73.6728 36.2722C69.7492 36.2722 66.5525 33.0935 66.5525 28.7797C66.5525 24.4372 69.7492 21.2872 73.6728 21.2872C77.5964 21.2872 80.7943 24.4372 80.7943 28.7797Z" fill="#FBBC05"/>
<path fill-rule="evenodd" clip-rule="evenodd" d="M61.7077 28.7798C61.7077 26.0835 59.8538 24.2385 57.7033 24.2385C55.5541 24.2385 53.7002 26.0835 53.7002 28.7798C53.7002 31.4473 55.5541 33.321 57.7033 33.321C59.8538 33.321 61.7077 31.4473 61.7077 28.7798ZM64.8248 28.7798C64.8248 33.0935 61.6269 36.2723 57.7033 36.2723C53.781 36.2723 50.583 33.0935 50.583 28.7798C50.583 24.4372 53.781 21.2872 57.7033 21.2872C61.6269 21.2872 64.8248 24.4372 64.8248 28.7798Z" fill="#EA4335"/>
<path fill-rule="evenodd" clip-rule="evenodd" d="M38.385 36.2725C32.2001 36.2725 27 31.0513 27 24.6363C27 18.2225 32.2001 13 38.385 13C41.8071 13 44.2421 14.39 46.0767 16.2063L43.9142 18.4488C42.6003 17.1713 40.8211 16.1788 38.385 16.1788C33.8696 16.1788 30.339 19.9538 30.339 24.6363C30.339 29.3188 33.8696 33.0938 38.385 33.0938C41.3141 33.0938 42.9824 31.8738 44.0504 30.7663C44.9255 29.8588 45.5017 28.5525 45.7199 26.765H38.385V23.5863H48.7032C48.8129 24.1538 48.8684 24.835 48.8684 25.5725C48.8684 27.9575 48.238 30.9088 46.2129 33.0088C44.2421 35.1375 41.724 36.2725 38.385 36.2725Z" fill="#4285F4"/>
</svg>
