<svg width="56" height="56" viewBox="0 0 56 56" fill="none" xmlns="http://www.w3.org/2000/svg">
<path d="M26.1817 42.5476V34.7853L16.4829 51.5899C15.9809 52.4597 14.8694 52.7583 13.9998 52.2564C13.1301 51.7542 12.8324 50.6415 13.3345 49.7717L23.0313 32.969L16.3146 36.8482C15.445 37.3504 14.3336 37.0526 13.8315 36.1828C13.3294 35.313 13.6272 34.2013 14.4968 33.6991L21.2173 29.8179H1.81785C0.81383 29.8179 0.00024786 29.0039 0 27.9997C0 26.9953 0.813677 26.1805 1.81785 26.1805H21.2163L14.4968 22.3003C13.6271 21.7981 13.3294 20.6854 13.8315 19.8156C14.3336 18.9462 15.4452 18.6482 16.3146 19.1501L23.0303 23.0284L13.3345 6.22766C12.8324 5.35784 13.1302 4.24614 13.9998 3.74396C14.8694 3.24183 15.9808 3.53966 16.4829 4.40941L26.1817 21.2121V13.4507C26.1819 12.4465 26.9955 11.6325 27.9995 11.6325C29.0036 11.6325 29.8172 12.4465 29.8174 13.4507V21.214L39.5161 4.40941C40.0181 3.53959 41.1296 3.24188 41.9993 3.74396C42.8689 4.24607 43.1674 5.35784 42.6656 6.22766L32.9678 23.0293L39.6873 19.1501C40.5568 18.6483 41.6684 18.9461 42.1705 19.8156C42.6726 20.6854 42.3748 21.7981 41.5052 22.3003L34.7856 26.1805H54.1822C55.1861 26.1807 56 26.9954 56 27.9997C55.9998 29.0037 55.186 29.8177 54.1822 29.8179H34.7846L41.5052 33.6991C42.3747 34.2013 42.6725 35.313 42.1705 36.1828C41.6684 37.0526 40.5569 37.3503 39.6873 36.8482L32.9658 32.9671L42.6656 49.7717C43.1675 50.6415 42.8689 51.7542 41.9993 52.2564C41.1297 52.7582 40.0181 52.4596 39.5161 51.5899L29.8174 34.7853V42.5476C29.8174 43.552 29.0037 44.3669 27.9995 44.3669C26.9953 44.3669 26.1817 43.552 26.1817 42.5476Z" fill="#088862"/>
</svg>
