<svg width="56" height="56" viewBox="0 0 56 56" fill="none" xmlns="http://www.w3.org/2000/svg">
<path d="M26.456 54.4437V36.9025C20.5498 36.6057 14.5738 34.5969 11.3388 30.5268C10.8056 29.856 10.9135 28.8772 11.5799 28.3404C12.2463 27.8038 13.2188 27.9124 13.752 28.5832C16.1854 31.6448 21.0725 33.4916 26.456 33.7889V29.555C26.456 28.6959 27.1477 27.9997 28.0012 27.9997C28.8547 27.9997 29.5464 28.6959 29.5464 29.555V33.7889C34.9288 33.4912 39.8143 31.6443 42.2474 28.5832C42.7806 27.9123 43.7531 27.8039 44.4195 28.3404C45.086 28.8771 45.1947 29.8559 44.6617 30.5268C41.4271 34.5964 35.4518 36.6052 29.5464 36.9025V54.4437C29.5464 55.3028 28.8547 56 28.0012 56C27.1477 56 26.456 55.3028 26.456 54.4437ZM27.6744 0.0350008C28.0562 -0.0481167 28.4579 0.0177835 28.7964 0.222231C32.8344 2.66094 35.5766 5.69158 36.2783 9.22315C36.9943 12.8275 35.4919 16.4378 32.185 19.7665C27.1094 24.8753 19.937 25.194 16.0905 21.3228C15.7632 20.9934 15.5992 20.5332 15.6446 20.0696C15.6902 19.6059 15.9405 19.1869 16.3257 18.9284C18.5391 17.4431 19.8066 16.0892 20.4071 14.7291C20.9757 13.4411 21.0368 11.9348 20.3756 9.89877C19.3408 7.68342 19.9991 5.51625 21.4189 3.84895C22.8208 2.20268 25.0333 0.911277 27.512 0.0795794L27.6744 0.0350008ZM27.8191 3.2724C25.9896 3.97696 24.584 4.9123 23.7652 5.87381C22.8948 6.89602 22.7788 7.78699 23.2013 8.63769C23.234 8.70352 23.2628 8.77193 23.2859 8.84176C24.1447 11.4351 24.2017 13.7966 23.2318 15.9932C22.5363 17.5682 21.3635 18.9347 19.8274 20.1954C22.4842 21.4361 26.5728 21.0158 29.9991 17.5673C32.8736 14.674 33.6896 12.0621 33.247 9.83338C32.8157 7.66285 31.1062 5.39246 27.8191 3.2724Z" fill="#088862"/>
</svg>
