<svg width="88" height="88" viewBox="0 0 88 88" fill="none" xmlns="http://www.w3.org/2000/svg">
<path d="M44.0023 0C68.303 0 88.0037 19.6997 88.0037 44.0005C88.0037 68.3012 68.303 88.0009 44.0023 88.0009C19.7016 88.0009 0 68.3003 0 44.0005C0 19.7006 19.7006 0 44.0023 0ZM18.404 63.2692C18.4635 63.3488 18.5229 63.4257 18.5824 63.5053L9.47285 70.3702C17.4111 80.7508 29.9248 87.4445 44.0023 87.4445C58.0798 87.4445 70.5916 80.7508 78.5308 70.3702L69.4212 63.5053C69.4405 63.4806 69.4587 63.4531 69.4771 63.4284C63.6233 71.0931 54.3902 76.0372 44.0023 76.0372L43.5878 76.0336C33.2959 75.9045 24.1744 70.922 18.404 63.2674V63.2692ZM48.4779 83.1391L44.9476 83.3267L44.9201 82.8088L47.8968 82.6486L47.8246 81.2998L44.8469 81.46L44.8204 80.9557L47.798 80.7956L47.7239 79.4047L44.7472 79.5648L44.7188 79.0396L48.2501 78.8483L48.4779 83.1391ZM37.25 78.3643L36.9718 80.0022L39.9174 80.5028L40.1956 78.8611L40.7419 78.9554L40.0235 83.1913L37.5711 82.7777C37.4174 82.7502 37.271 82.7154 37.131 82.6697C36.9882 82.6248 36.851 82.5617 36.7183 82.4858C36.5838 82.4089 36.4712 82.3192 36.3806 82.2213C36.2882 82.1243 36.2205 82.0026 36.1775 81.8635C36.1326 81.7244 36.1235 81.5716 36.1509 81.4078C36.1775 81.255 36.2461 81.1223 36.3587 81.0079C36.4712 80.8963 36.603 80.813 36.754 80.7572C36.905 80.7014 37.0578 80.6629 37.2115 80.6391C37.3625 80.6181 37.5034 80.6144 37.6334 80.6254L36.3221 80.403L36.6844 78.2682L37.2509 78.3652L37.25 78.3643ZM54.058 82.0959L50.5899 82.7877L50.4883 82.2735L53.412 81.6924L53.1485 80.3674L50.2239 80.9484L50.1251 80.4543L53.0496 79.8732L52.7769 78.507L49.8524 79.0881L49.7499 78.5738L53.218 77.882L54.058 82.0959ZM37.9335 80.6767C37.6297 80.6245 37.3543 80.6666 37.1063 80.802C36.8583 80.9411 36.7137 81.1287 36.6725 81.3721C36.6524 81.4865 36.6625 81.5945 36.7027 81.6924C36.7403 81.793 36.7942 81.8736 36.8647 81.9358C36.9352 81.998 37.0212 82.0538 37.1218 82.1023C37.2234 82.1545 37.3158 82.1893 37.4009 82.214C37.486 82.2387 37.5711 82.2588 37.6562 82.2735L39.5614 82.5965L39.8323 80.9969L37.9335 80.6767ZM35.1654 77.9854L33.8047 82.0612L30.4509 80.9411L30.6157 80.447L33.4432 81.3932L33.8715 80.1102L31.043 79.164L31.2022 78.6873L34.0307 79.6335L34.4718 78.3121L31.6433 77.3659L31.8107 76.8654L35.1654 77.9854ZM60.0161 79.9986L57.6799 80.8505C57.5335 80.9027 57.388 80.9448 57.2434 80.9759C57.0979 81.007 56.9479 81.0207 56.7941 81.0207C56.6404 81.0207 56.4967 80.9997 56.3695 80.9585C56.2405 80.9201 56.1215 80.8469 56.0145 80.7462C55.9056 80.6492 55.8232 80.5202 55.7665 80.3637C55.7125 80.2173 55.707 80.0681 55.7491 79.9153C55.7912 79.7625 55.8635 79.6234 55.9678 79.5017C56.0721 79.38 56.1847 79.2684 56.3073 79.175C56.3988 79.1018 56.4885 79.0432 56.5782 78.9975L56.6678 78.9527L55.4178 79.4084L54.6748 77.3741L55.2156 77.1756L55.7866 78.7404L58.5932 77.7146L58.0221 76.1534L58.5428 75.9622L60.017 79.9995L60.0161 79.9986ZM56.9552 78.8474C56.666 78.9517 56.4473 79.1256 56.2991 79.3653C56.1508 79.6088 56.1197 79.8448 56.2039 80.0745C56.2442 80.1862 56.3064 80.2731 56.3897 80.339C56.472 80.4049 56.5589 80.4506 56.6514 80.4708C56.7438 80.4882 56.8463 80.4955 56.9579 80.4882C57.0705 80.4808 57.1693 80.4671 57.2553 80.4461C57.3413 80.425 57.4246 80.4012 57.5051 80.3692L59.3206 79.7085L58.7643 78.1858L56.9543 78.8465L56.9552 78.8474ZM30.3402 76.3548L28.5604 80.2667L28.0562 80.037L29.836 76.1251L30.3402 76.3548ZM28.4176 75.4644L26.2819 79.1924L25.8088 78.9215L27.9446 75.1935L28.4176 75.4644ZM65.0673 77.2973L61.9661 79.0085L61.7099 78.5427L64.3261 77.0996L63.6444 75.8652L61.0282 77.3083L60.7793 76.8562L63.3955 75.4131L62.5069 73.8035L62.9928 73.5354L65.0682 77.2982L65.0673 77.2973ZM25.817 73.9756L25.8088 78.9215L25.3073 78.6351L25.3027 73.68L23.1669 77.408L22.6911 77.1371L24.8269 73.4091L25.817 73.9756ZM44.0023 12.5219C26.6168 12.5219 12.5219 26.6122 12.5219 43.9995C12.5219 61.3869 26.6159 75.4809 44.0023 75.4809C61.3887 75.4809 75.4818 61.3869 75.4818 43.9995C75.4818 26.6122 61.3878 12.5219 44.0023 12.5219ZM9.13702 18.0755C3.74815 25.3128 0.558196 34.2842 0.558196 44.0005C0.558196 53.7167 3.74815 62.6881 9.13702 69.9245L18.2475 63.0596C14.3758 57.8364 12.0552 51.3924 11.9673 44.4132L11.9646 43.9995C11.9646 36.8601 14.2999 30.267 18.2475 24.9431L9.13702 18.0755ZM69.7561 24.9404C73.7038 30.2679 76.04 36.861 76.04 44.0005L76.0372 44.4141C75.9485 51.3933 73.6278 57.8373 69.7571 63.0606L78.8666 69.9254C84.2555 62.689 87.4455 53.7167 87.4455 44.0014C87.4455 34.286 84.2555 25.3137 78.8666 18.0773L69.7571 24.9422L69.7561 24.9404ZM9.93863 52.0055L5.83543 53.143L5.83726 53.1503L10.3239 53.3937L10.6149 54.4469L6.89966 57.0833L6.90149 57.0906L11.0303 55.9468L11.1749 56.4647L7.03418 57.6122L6.74502 56.569L10.4694 53.9226L5.93884 53.6618L5.65333 52.6324L9.79405 51.4849L9.93863 52.0055ZM78.4311 53.2464C78.9106 52.9856 79.4715 52.9581 80.1111 53.1631C80.7489 53.3644 81.1891 53.7158 81.4325 54.22C81.675 54.7242 81.6915 55.3053 81.4837 55.9623C81.4023 56.2158 81.2998 56.4455 81.1735 56.6505C81.0473 56.8591 80.8981 57.0403 80.7252 57.1931C80.5522 57.3496 80.3491 57.4612 80.1166 57.5271C79.886 57.593 79.638 57.604 79.3745 57.5582L79.5456 57.0192C79.8375 57.0577 80.1166 56.9671 80.382 56.7484C80.6474 56.5324 80.8487 56.2094 80.985 55.7784C81.0564 55.5524 81.0921 55.3401 81.0921 55.1424C81.0921 54.9438 81.0628 54.77 81.0033 54.6172C80.9466 54.468 80.8633 54.3316 80.7553 54.2099C80.6474 54.0882 80.5257 53.9839 80.3902 53.9007C80.2566 53.821 80.1075 53.7542 79.9437 53.7021C79.7762 53.6499 79.6143 53.6151 79.4578 53.6014C79.3031 53.5877 79.1457 53.5978 78.9865 53.6289C78.8291 53.6636 78.6836 53.7259 78.5509 53.8128C78.4183 53.8997 78.2938 54.0288 78.1785 54.1953C78.065 54.3618 77.9708 54.5641 77.8957 54.8002C77.8372 54.9841 77.7997 55.1653 77.7832 55.3428C77.7685 55.5203 77.775 55.6942 77.8042 55.8607C77.8344 56.0273 77.8976 56.181 77.9918 56.3201C78.0879 56.4592 78.2133 56.5708 78.3688 56.6578L78.2014 57.1867C78.0083 57.0897 77.8436 56.9707 77.7072 56.8252C77.5709 56.6788 77.4675 56.5223 77.397 56.3558C77.3266 56.1893 77.2799 56.0081 77.2579 55.8095C77.2378 55.6182 77.2396 55.4233 77.2643 55.2257C77.289 55.0308 77.333 54.8294 77.397 54.6272C77.6075 53.9665 77.9516 53.5044 78.4292 53.2464H78.4311ZM82.7273 51.3412L82.612 51.8838L78.4091 50.9871L78.5244 50.4444L82.7273 51.3412ZM7.3691 45.8992C7.56035 45.8818 7.73604 45.8855 7.8971 45.913C8.0554 45.9377 8.19541 45.9788 8.31528 46.042C8.43333 46.1015 8.53948 46.1774 8.63556 46.2753C8.73073 46.3723 8.81125 46.4767 8.87531 46.5919C8.94028 46.7036 8.9961 46.8317 9.04368 46.9781C9.09127 47.1245 9.12879 47.27 9.15624 47.4128C9.18186 47.5592 9.20199 47.7157 9.21755 47.8859C9.2331 48.0597 9.24226 48.2199 9.24409 48.3654C9.24409 48.5118 9.23402 48.6609 9.21389 48.8101C9.19376 48.9593 9.16173 49.0983 9.11964 49.22C9.07663 49.3417 9.01715 49.4598 8.9412 49.5714C8.86341 49.6831 8.77191 49.7764 8.66667 49.8569C8.55961 49.9366 8.43058 50.0061 8.27868 50.0583C8.12495 50.1141 7.95383 50.1488 7.76532 50.1662L5.13631 50.4096L5.08507 49.8606L7.71408 49.6135C7.90076 49.5961 8.06089 49.554 8.19266 49.4845C8.32261 49.4113 8.42418 49.328 8.49739 49.231C8.56876 49.1304 8.62092 49.0087 8.65569 48.8622C8.68772 48.7158 8.70602 48.5703 8.70877 48.4276C8.71151 48.2848 8.70419 48.122 8.6868 47.9371C8.67033 47.7596 8.64746 47.6031 8.61909 47.4677C8.58981 47.3249 8.54497 47.1858 8.48457 47.0504C8.42143 46.9076 8.34548 46.7933 8.25672 46.7063C8.16796 46.6157 8.05266 46.5462 7.90899 46.5014C7.76624 46.4529 7.60336 46.4355 7.42034 46.4529L4.79133 46.6963L4.74009 46.1436L7.3691 45.8992ZM80.3646 45.1168L80.3106 45.6522C80.1816 45.6384 80.0663 45.6522 79.9656 45.6943C79.865 45.7391 79.7826 45.7986 79.7186 45.8754C79.6545 45.9551 79.5996 46.053 79.5529 46.171C79.5081 46.2964 79.4752 46.4144 79.4532 46.5288C79.4312 46.6469 79.4129 46.7823 79.3983 46.9324C79.3837 47.0714 79.3736 47.1932 79.3672 47.2975C79.3626 47.4018 79.3626 47.5162 79.3653 47.6415C79.3681 47.7669 79.3827 47.8749 79.4074 47.9646C79.4322 48.0551 79.4669 48.1421 79.5108 48.2217C79.5548 48.3013 79.617 48.3644 79.6966 48.4129C79.7762 48.4614 79.8705 48.4898 79.9794 48.4999C80.0782 48.5099 80.1633 48.5035 80.2347 48.4752C80.3079 48.4505 80.3674 48.4056 80.414 48.3397C80.4607 48.2775 80.4982 48.2043 80.5257 48.1238C80.5531 48.0442 80.5806 47.9426 80.6071 47.8209L80.8871 46.3879C80.9585 46.0228 81.0958 45.7482 81.3007 45.5707C81.5075 45.3932 81.7766 45.32 82.1087 45.352C82.9433 45.439 83.2974 46.1097 83.1712 47.3652C83.1565 47.5116 83.1391 47.6434 83.119 47.7614C83.1007 47.8795 83.0732 48.0048 83.0366 48.1366C83.0009 48.2684 82.9589 48.3837 82.9113 48.4843C82.8628 48.585 82.8015 48.6792 82.7255 48.7698C82.6523 48.8641 82.5681 48.9364 82.4748 48.9922C82.3833 49.048 82.2716 49.0864 82.1408 49.1102C82.0117 49.1377 81.8681 49.145 81.7116 49.1276L81.7656 48.5923C81.8525 48.5996 81.934 48.5996 82.0072 48.585C82.0804 48.5749 82.1444 48.5539 82.2012 48.5191C82.257 48.4843 82.3055 48.4459 82.3485 48.4011C82.3933 48.3562 82.4318 48.3004 82.4647 48.2345C82.4977 48.1686 82.5242 48.1055 82.5471 48.0396C82.5699 47.9774 82.5892 47.9005 82.6065 47.8136C82.623 47.7266 82.6367 47.647 82.6459 47.5738C82.6569 47.5006 82.6679 47.4137 82.6779 47.3167C82.6889 47.2124 82.6962 47.1181 82.7008 47.0348C82.7063 46.9552 82.7081 46.8646 82.7063 46.7667C82.7045 46.6661 82.6962 46.5791 82.6816 46.5059C82.6688 46.4327 82.6468 46.3568 82.6166 46.2799C82.5882 46.2067 82.5498 46.1408 82.5031 46.0923C82.4565 46.0402 82.3952 45.9953 82.3201 45.9605C82.2478 45.9221 82.1637 45.9011 82.0676 45.891C81.7043 45.8562 81.4737 46.0786 81.3758 46.5691L81.1022 47.9948C80.9649 48.7424 80.5852 49.0828 79.9629 49.0206C79.8018 49.0068 79.6582 48.9684 79.5337 48.9126C79.4111 48.8568 79.3095 48.7872 79.229 48.7113C79.1512 48.6316 79.0853 48.5337 79.0323 48.4194C78.9792 48.305 78.9408 48.1897 78.9161 48.0789C78.8913 47.9646 78.8749 47.8319 78.8685 47.6827C78.863 47.5363 78.8639 47.4009 78.8703 47.2792C78.8767 47.1611 78.8868 47.0257 78.9023 46.8756C78.916 46.7365 78.9334 46.6048 78.9536 46.4858C78.9755 46.3678 79.0057 46.2424 79.0423 46.1134C79.0789 45.9843 79.1219 45.87 79.1704 45.7693C79.2208 45.665 79.2839 45.5707 79.3589 45.481C79.434 45.3905 79.5182 45.3145 79.6106 45.255C79.7048 45.1992 79.8156 45.158 79.9428 45.1297C80.0718 45.1049 80.2118 45.0985 80.3628 45.1159L80.3646 45.1168ZM6.14015 40.1782L6.10446 40.7172C6.01662 40.7098 5.93609 40.7172 5.8638 40.7309C5.79151 40.7446 5.72745 40.7693 5.67255 40.8041C5.61856 40.8425 5.57006 40.8837 5.52888 40.9295C5.48587 40.9743 5.44927 41.0301 5.41907 41.096C5.38888 41.1619 5.36417 41.2278 5.34312 41.2946C5.32299 41.3605 5.3056 41.4373 5.29188 41.5243C5.27815 41.6112 5.26809 41.6908 5.26168 41.7677C5.25253 41.8409 5.24521 41.9242 5.2388 42.0248C5.23148 42.1291 5.22782 42.2234 5.22691 42.303C5.22325 42.3826 5.22416 42.4732 5.22965 42.5739C5.23514 42.6745 5.24612 42.7578 5.26351 42.831C5.27907 42.9042 5.30286 42.9801 5.3358 43.057C5.36691 43.1302 5.40718 43.1924 5.45568 43.2409C5.50417 43.2894 5.5664 43.3315 5.64235 43.3663C5.71647 43.4011 5.80157 43.4185 5.89674 43.4258C6.26186 43.4505 6.48331 43.2172 6.56383 42.723L6.78711 41.29C6.89875 40.5387 7.26569 40.1809 7.88977 40.2221C8.05174 40.2322 8.19541 40.2642 8.32261 40.3164C8.44705 40.3685 8.55137 40.4344 8.63465 40.5076C8.71609 40.5845 8.78472 40.6778 8.84054 40.7931C8.89727 40.9075 8.94028 41.0191 8.96865 41.1308C8.99701 41.2424 9.01806 41.3742 9.02996 41.5233C9.04002 41.6698 9.0446 41.8052 9.04277 41.9269C9.04094 42.0449 9.03453 42.1804 9.02538 42.3341C9.01623 42.4732 9.00342 42.605 8.98786 42.7239C8.96956 42.8456 8.94486 42.9673 8.91283 43.0991C8.87989 43.2281 8.84145 43.3462 8.79661 43.4468C8.74994 43.5512 8.69047 43.6482 8.61817 43.7424C8.54588 43.8367 8.46444 43.9126 8.37476 43.9757C8.28326 44.0352 8.17345 44.0837 8.04808 44.1148C7.91997 44.1423 7.77997 44.1533 7.62806 44.1423L7.66375 43.6033C7.79369 43.6134 7.90808 43.596 8.0069 43.5475C8.10665 43.5027 8.18626 43.4395 8.24757 43.3599C8.30888 43.2803 8.36104 43.1787 8.40222 43.057C8.44248 42.9353 8.47085 42.8136 8.48915 42.6992C8.50653 42.5775 8.52118 42.4457 8.53033 42.2957C8.53948 42.1529 8.54588 42.0312 8.54863 41.9269C8.54863 41.8226 8.54588 41.7082 8.53765 41.5828C8.53033 41.4575 8.51203 41.3495 8.48366 41.2626C8.45529 41.172 8.41777 41.0887 8.3711 41.0091C8.32444 40.9295 8.26038 40.8663 8.17894 40.8251C8.0975 40.7803 8.00233 40.7519 7.89252 40.7455C7.79278 40.7382 7.70859 40.7529 7.63813 40.7803C7.56675 40.8078 7.50819 40.8572 7.46426 40.9231C7.42034 40.9889 7.38465 41.0621 7.35995 41.1418C7.33432 41.2214 7.31145 41.3229 7.28857 41.4447L7.05889 42.8877C7.00124 43.2565 6.87221 43.5347 6.67364 43.7223C6.47324 43.9062 6.20695 43.9867 5.87387 43.9657C5.03657 43.9099 4.65956 43.2528 4.74192 41.991C4.75107 41.8445 4.76388 41.7128 4.77944 41.5947C4.79316 41.4767 4.81604 41.3513 4.84898 41.2195C4.87918 41.0841 4.91761 40.9661 4.96245 40.8645C5.00729 40.7638 5.06494 40.6659 5.13814 40.5726C5.20861 40.4783 5.29005 40.4024 5.38156 40.3429C5.47123 40.2834 5.58196 40.2422 5.71098 40.2111C5.83909 40.18 5.98184 40.169 6.14015 40.18V40.1782ZM83.0961 39.4864L80.4607 39.6429C80.2731 39.6529 80.1121 39.6914 79.9785 39.7573C79.8467 39.8231 79.7424 39.9037 79.6655 40.0007C79.5914 40.0977 79.5346 40.2166 79.4953 40.3621C79.4578 40.5085 79.4358 40.654 79.4276 40.7968C79.4202 40.9395 79.4221 41.1024 79.4331 41.2873C79.4431 41.4611 79.4605 41.6213 79.4852 41.7604C79.5099 41.8994 79.5502 42.0385 79.6069 42.1813C79.6655 42.324 79.7369 42.4384 79.8229 42.5327C79.908 42.6233 80.0215 42.6965 80.1633 42.7486C80.3051 42.8008 80.4671 42.8255 80.6501 42.8109L83.2855 42.6544L83.3185 43.2107L80.6831 43.3672C80.4918 43.3773 80.3161 43.3672 80.156 43.3361C79.9977 43.3087 79.8604 43.2592 79.7424 43.1934C79.6262 43.1311 79.5228 43.047 79.4312 42.9463C79.3397 42.8493 79.2629 42.7413 79.2016 42.626C79.1402 42.5116 79.089 42.3789 79.046 42.2334C79.003 42.087 78.971 41.9415 78.9481 41.7951C78.9279 41.6487 78.9115 41.4895 78.9014 41.3184C78.8913 41.1473 78.8877 40.988 78.8913 40.8389C78.8968 40.6925 78.9115 40.547 78.9371 40.3969C78.9618 40.2477 78.9984 40.1114 79.0451 39.9897C79.0917 39.868 79.1549 39.7536 79.2345 39.6456C79.3159 39.534 79.4102 39.4443 79.5182 39.3674C79.6271 39.2906 79.7588 39.2283 79.9117 39.1798C80.0672 39.1277 80.2392 39.1002 80.4287 39.0893L83.0641 38.9291L83.097 39.4855L83.0961 39.4864ZM9.37586 38.2071L9.27977 38.7534L5.04755 38.0095L5.14364 37.4632L9.37586 38.2071ZM81.6713 32.7295L77.8564 35.2468L82.375 35.6605L82.6239 36.7037L78.4457 37.7047L78.3194 37.1758L82.4592 36.1811L82.4574 36.1775L77.9827 35.7739L77.7283 34.7134L81.5341 32.2061L81.5322 32.2024L77.365 33.2007L77.2396 32.6755L81.4179 31.6744L81.6704 32.7276L81.6713 32.7295ZM7.44322 31.7284C7.67199 31.6552 7.91814 31.6341 8.18443 31.6726L8.03161 32.2152C7.73879 32.1878 7.46335 32.2884 7.20438 32.5144C6.94633 32.7405 6.756 33.0708 6.63429 33.5055C6.57115 33.7315 6.54279 33.9474 6.54919 34.1451C6.5556 34.3437 6.59128 34.5175 6.65534 34.6667C6.71756 34.8131 6.8045 34.9485 6.91705 35.0666C7.02869 35.1846 7.15405 35.2825 7.29223 35.3622C7.42858 35.4354 7.57956 35.4976 7.74519 35.5433C7.91448 35.5918 8.07736 35.6202 8.23476 35.6303C8.38941 35.6403 8.5468 35.6229 8.70511 35.5854C8.86158 35.547 9.00434 35.4811 9.13428 35.3869C9.2633 35.2963 9.38318 35.1645 9.4939 34.9943C9.60188 34.8241 9.68881 34.6191 9.75561 34.3784C9.80777 34.1945 9.8398 34.0097 9.84986 33.8321C9.8581 33.651 9.84529 33.4808 9.81052 33.3142C9.77391 33.1504 9.7062 32.9976 9.60737 32.8622C9.50671 32.7267 9.37677 32.6188 9.21938 32.5355L9.36854 32.0038C9.56528 32.0944 9.73365 32.2088 9.87549 32.3516C10.0173 32.4906 10.1253 32.6435 10.2013 32.8109C10.2772 32.9747 10.3303 33.1513 10.3586 33.3462C10.3852 33.5412 10.3898 33.7361 10.3715 33.9337C10.3541 34.1286 10.3166 34.3299 10.2598 34.5322C10.0722 35.2029 9.74372 35.676 9.2752 35.9505C8.80393 36.2251 8.24574 36.2708 7.59878 36.0896C6.95457 35.9121 6.50161 35.5754 6.24172 35.0812C5.98276 34.5843 5.94524 34.0033 6.131 33.3389C6.20329 33.0818 6.29937 32.8484 6.41742 32.6398C6.53638 32.4275 6.68005 32.2436 6.84751 32.0798C7.01588 31.9196 7.21353 31.8016 7.44322 31.7284ZM18.5824 24.4947C24.4389 16.8758 33.6473 11.9619 44.0023 11.9619L44.4159 11.9655C54.6409 12.0945 63.7103 17.0149 69.4862 24.5817C69.4642 24.5542 69.4423 24.5258 69.4212 24.4947L78.5308 17.6298C70.5916 7.2538 58.0789 0.556365 44.0023 0.556365C29.9257 0.556365 17.412 7.25014 9.47285 17.6307L18.5824 24.4947ZM65.3125 10.8638L63.1768 14.5918L62.7009 14.3209L64.8367 10.5929L65.3125 10.8638ZM26.2938 9.45821L23.6776 10.9013L24.3593 12.1357L26.9755 10.6926L27.2244 11.1447L24.6082 12.5878L25.4967 14.1974L25.0108 14.4655L22.9354 10.7027L26.0375 8.99152L26.2938 9.45821ZM62.6964 9.36487L62.7009 14.3209L62.1867 14.0244L62.1949 9.07937L62.6964 9.36487ZM62.1949 9.07937L60.0591 12.8074L59.586 12.5365L61.7218 8.80851L62.1949 9.07937ZM31.2086 6.97928C31.3642 6.97928 31.506 7.00032 31.6332 7.0415C31.7622 7.07993 31.8812 7.15314 31.9883 7.2538C32.0972 7.3508 32.1795 7.47982 32.2363 7.6363C32.2902 7.78271 32.2957 7.93187 32.2536 8.08469C32.2115 8.2375 32.1393 8.37659 32.0349 8.4983C31.9306 8.62366 31.8181 8.73164 31.6954 8.82864C31.5737 8.91923 31.4539 8.99519 31.3358 9.04735L32.5858 8.59164L33.3289 10.6258L32.788 10.8244L32.218 9.2633L29.4114 10.2854L29.9824 11.8466L29.4617 12.0378L27.9876 8.0005L30.3237 7.14856C30.4702 7.09641 30.6157 7.05431 30.7602 7.0232C30.9057 6.99209 31.0558 6.97836 31.2095 6.97836L31.2086 6.97928ZM59.9475 7.96298L58.1676 11.8749L57.6634 11.6452L59.4433 7.7333L59.9475 7.96298ZM57.5527 7.05889L57.388 7.55303L54.5595 6.6105L54.1312 7.88977L56.9597 8.83596L56.8005 9.31272L53.972 8.36653L53.531 9.69156L56.3595 10.6341L56.1929 11.1346L52.8392 10.0146L54.1999 5.93884L57.5527 7.05889ZM37.5153 5.72745L34.5917 6.30853L34.8561 7.63355L37.7798 7.05248L37.8786 7.54662L34.954 8.12769L35.2267 9.4939L38.1504 8.91283L38.2529 9.4271L34.7847 10.1189L33.9447 5.90406L37.4128 5.21593L37.5153 5.72745ZM31.0457 7.51093C30.9332 7.51825 30.8344 7.53198 30.7483 7.55303C30.6623 7.57407 30.5791 7.59787 30.4985 7.62989L28.683 8.29058L29.2394 9.81326L31.0494 9.15258C31.3377 9.04826 31.5564 8.8744 31.7046 8.63465C31.8528 8.39124 31.884 8.15515 31.7998 7.92546C31.7595 7.81382 31.6973 7.72689 31.614 7.66101C31.5316 7.59512 31.4447 7.54937 31.3523 7.52924C31.2599 7.51185 31.1583 7.50361 31.0457 7.51093ZM50.4325 5.22325C50.5863 5.2507 50.7327 5.28547 50.8727 5.33489C51.0154 5.37698 51.1527 5.4392 51.2854 5.51607C51.4199 5.59294 51.5324 5.68261 51.623 5.78053C51.7155 5.87752 51.7841 5.99923 51.8262 6.13832C51.871 6.27741 51.8802 6.43023 51.8527 6.59403C51.8262 6.74685 51.7575 6.87953 51.645 6.99392C51.5324 7.10556 51.4007 7.18883 51.2497 7.24465C51.0987 7.30047 50.9459 7.34165 50.7921 7.36269C50.6402 7.38374 50.5002 7.3874 50.3703 7.37642L51.6816 7.59878L51.3192 9.73365L50.7519 9.63665L51.0301 7.99867L48.0844 7.49812L47.8063 9.13977L47.26 9.04551L47.9783 4.80963L50.4307 5.22325H50.4325ZM43.0845 5.19213L40.1068 5.35227L40.1791 6.70109L43.1568 6.54096L43.1833 7.04516L40.2066 7.2053L40.2807 8.59621L43.2583 8.43608L43.2867 8.96499L39.7554 9.15258L39.5267 4.86179L43.0579 4.6742L43.0845 5.19213ZM48.1704 7.00398L50.0701 7.32426C50.373 7.37642 50.6494 7.33432 50.8974 7.19889C51.1454 7.0598 51.2899 6.87221 51.3311 6.6288C51.3513 6.51442 51.3412 6.40644 51.3009 6.30853C51.2634 6.20787 51.2094 6.12734 51.139 6.06512C51.0685 6.00289 50.9825 5.94707 50.8818 5.89857C50.7812 5.84641 50.6878 5.81164 50.6027 5.78693C50.5176 5.76223 50.4325 5.74209 50.3474 5.72745L48.4422 5.40443L48.1704 7.00398Z" fill="#151717"/>
<path d="M47.3324 27.454V33.7763H46.8209C46.8209 31.1784 44.9825 29.4745 41.9692 29.3839H35.0311V42.4246H38.4525C40.9589 42.3798 42.8 40.7656 42.8 38.6133H43.2603V48.1585H42.8C42.8 46.009 40.9589 44.3957 38.5038 44.3051H35.0301V55.5999C35.0603 56.4939 35.5682 57.3138 36.3451 57.8354C36.4558 57.9086 36.5711 57.9781 36.6919 58.0367C37.1668 58.2801 37.715 58.4229 38.3034 58.4229V58.8676H24.0319V58.4229H24.0831C25.3697 58.4229 26.498 57.7521 27.0306 56.8059C27.123 56.6421 27.198 56.4719 27.252 56.2917C27.3197 56.0693 27.3563 55.836 27.3563 55.5999V30.59C27.3563 30.4545 27.3426 30.3154 27.317 30.1828C27.2996 30.0922 27.2767 30.0052 27.2493 29.922C27.2355 29.8799 27.22 29.835 27.2035 29.7929C27.0882 29.501 26.9107 29.2265 26.6865 28.9858C26.0761 28.3288 25.1162 27.9006 24.084 27.9006L24.0328 27.4522H47.3315L47.3324 27.454ZM49.2284 27.4613C55.2203 27.5903 60.816 29.878 60.816 35.9258C60.816 39.6922 58.2584 43.9482 52.4788 44.4424C54.6265 45.0683 56.5188 46.8627 57.6956 48.4312C57.8521 48.6609 60.9194 52.9132 62.8109 55.0179C64.6081 57.031 65.8654 58.2801 67.8008 58.2865V58.8703H64.3583C58.7324 58.8703 54.524 57.796 52.1713 54.2108C50.9442 52.2846 48.5915 47.8474 47.9263 46.5461C46.9106 44.6785 45.7932 43.7396 44.4755 43.5072V43.0972H45.9836C48.7453 43.0524 51.5591 41.8417 52.4797 37.8987C52.5822 37.3633 52.6847 36.6432 52.6334 35.7501C52.4705 32.3313 50.8884 30.4124 48.5531 29.7444V27.4632H49.2294L49.2284 27.4613Z" fill="#151717"/>
</svg>
