<svg width="152" height="152" viewBox="0 0 152 152" fill="none" xmlns="http://www.w3.org/2000/svg">
<g clip-path="url(#clip0_202_1461)">
<path d="M76.0008 0C117.973 0 152 34.0268 152 76.0008C152 117.975 117.973 152.002 76.0008 152.002C34.0285 152.002 0 117.973 0 76.0008C0 34.0284 34.027 0 76.0008 0ZM31.7874 109.283C31.8901 109.421 31.9928 109.553 32.0956 109.691L16.3615 121.548C30.0725 139.479 51.6861 151.041 76.0008 151.041C100.315 151.041 121.926 139.479 135.638 121.548L119.904 109.691C119.938 109.648 119.969 109.601 120.001 109.558C109.89 122.797 93.9428 131.337 76.0008 131.337L75.2848 131.331C57.5087 131.108 41.7541 122.502 31.7874 109.28V109.283ZM83.7311 143.604L77.6335 143.928L77.5861 143.033L82.7275 142.757L82.6026 140.427L77.4596 140.704L77.4138 139.833L82.5568 139.556L82.4288 137.154L77.2873 137.43L77.2383 136.523L83.3376 136.193L83.7311 143.604ZM64.3382 135.356L63.8577 138.186L68.9454 139.05L69.4258 136.215L70.3694 136.378L69.1287 143.694L64.8929 142.98C64.6274 142.932 64.3745 142.872 64.1327 142.793C63.8861 142.716 63.649 142.607 63.4199 142.475C63.1875 142.343 62.9931 142.188 62.8367 142.019C62.677 141.851 62.5601 141.641 62.4858 141.401C62.4083 141.16 62.3925 140.896 62.4399 140.613C62.4858 140.35 62.6043 140.12 62.7987 139.923C62.9931 139.73 63.2207 139.586 63.4815 139.49C63.7423 139.393 64.0062 139.327 64.2718 139.286C64.5325 139.249 64.7759 139.243 65.0004 139.262L62.7355 138.878L63.3614 135.19L64.3397 135.358L64.3382 135.356ZM93.3691 141.802L87.3789 142.997L87.2035 142.109L92.2533 141.105L91.7981 138.816L86.7467 139.82L86.576 138.967L91.6274 137.963L91.1564 135.603L86.105 136.607L85.928 135.718L91.9182 134.523L93.3691 141.802ZM65.5188 139.351C64.9941 139.26 64.5183 139.333 64.09 139.567C63.6617 139.807 63.412 140.131 63.3408 140.552C63.3061 140.749 63.3235 140.936 63.393 141.105C63.4578 141.279 63.551 141.418 63.6727 141.525C63.7944 141.633 63.943 141.729 64.1169 141.813C64.2923 141.903 64.4519 141.963 64.5989 142.006C64.7459 142.049 64.8929 142.083 65.0399 142.109L68.3305 142.667L68.7984 139.904L65.5188 139.351ZM60.7377 134.702L58.3875 141.742L52.5949 139.807L52.8794 138.954L57.7632 140.588L58.5029 138.372L53.6175 136.738L53.8925 135.914L58.7779 137.549L59.5397 135.266L54.6543 133.632L54.9435 132.767L60.7377 134.702ZM103.66 138.179L99.6248 139.651C99.3719 139.741 99.1206 139.814 98.8709 139.867C98.6196 139.921 98.3604 139.945 98.0949 139.945C97.8293 139.945 97.5812 139.909 97.3615 139.837C97.1386 139.771 96.9332 139.645 96.7482 139.471C96.5602 139.303 96.4179 139.08 96.3199 138.81C96.2267 138.557 96.2172 138.299 96.2899 138.036C96.3626 137.772 96.4875 137.531 96.6676 137.321C96.8478 137.111 97.0422 136.918 97.254 136.757C97.4121 136.63 97.567 136.529 97.7218 136.45L97.8767 136.373L95.7177 137.16L94.4344 133.646L95.3685 133.303L96.3547 136.006L101.202 134.234L100.216 131.538L101.115 131.207L103.661 138.181L103.66 138.179ZM98.373 136.191C97.8736 136.371 97.4958 136.671 97.2398 137.086C96.9837 137.506 96.93 137.914 97.0754 138.311C97.145 138.503 97.2524 138.654 97.3963 138.767C97.5385 138.881 97.6887 138.96 97.8483 138.995C98.0079 139.025 98.1849 139.038 98.3778 139.025C98.5722 139.012 98.7429 138.989 98.8914 138.952C99.04 138.916 99.1838 138.875 99.3229 138.82L102.459 137.678L101.498 135.048L98.3714 136.189L98.373 136.191ZM52.4037 131.885L49.3295 138.642L48.4587 138.246L51.5328 131.489L52.4037 131.885ZM49.083 130.348L45.3941 136.787L44.5769 136.319L48.2659 129.88L49.083 130.348ZM112.384 133.514L107.028 136.469L106.585 135.665L111.104 133.172L109.927 131.04L105.408 133.532L104.978 132.752L109.497 130.259L107.962 127.479L108.801 127.016L112.386 133.515L112.384 133.514ZM44.5912 127.776L44.5769 136.319L43.7108 135.824L43.7029 127.265L40.014 133.705L39.1921 133.237L42.881 126.798L44.5912 127.776ZM76.0008 21.6287C45.9725 21.6287 21.6278 45.9665 21.6278 75.9992C21.6278 106.032 45.9709 130.376 76.0008 130.376C106.031 130.376 130.372 106.032 130.372 75.9992C130.372 45.9665 106.029 21.6287 76.0008 21.6287ZM15.7815 31.2213C6.4738 43.7221 0.964116 59.2182 0.964116 76.0008C0.964116 92.7834 6.4738 108.279 15.7815 120.779L31.5171 108.921C24.8299 99.8992 20.8217 88.7687 20.67 76.7136L20.6653 75.9992C20.6653 63.6675 24.6988 52.2794 31.5171 43.0835L15.7815 31.2213ZM120.483 43.0788C127.301 52.281 131.336 63.6691 131.336 76.0008L131.332 76.7152C131.178 88.7703 127.17 99.9008 120.484 108.923L136.219 120.78C145.526 108.281 151.036 92.7834 151.036 76.0024C151.036 59.2213 145.526 43.7237 136.219 31.2244L120.484 43.082L120.483 43.0788ZM17.166 89.8277L10.079 91.7924L10.0821 91.8051L17.8314 92.2255L18.334 94.0447L11.9171 98.5984L11.9203 98.611L19.0516 96.6353L19.3013 97.5299L12.1494 99.512L11.65 97.7101L18.0827 93.1391L10.2576 92.6886L9.76444 90.9104L16.9163 88.9284L17.166 89.8277ZM135.466 91.971C136.294 91.5205 137.263 91.4731 138.368 91.8272C139.47 92.1749 140.23 92.7818 140.65 93.6527C141.069 94.5237 141.098 95.5273 140.739 96.6622C140.598 97.1 140.421 97.4967 140.203 97.8508C139.985 98.2112 139.727 98.5241 139.429 98.7881C139.13 99.0583 138.779 99.2512 138.378 99.365C137.979 99.4788 137.551 99.4977 137.096 99.4187L137.391 98.4878C137.895 98.5541 138.378 98.3977 138.836 98.0199C139.294 97.6469 139.642 97.0889 139.877 96.3445C140.001 95.9541 140.062 95.5874 140.062 95.246C140.062 94.903 140.012 94.6027 139.909 94.3387C139.811 94.0811 139.667 93.8456 139.481 93.6354C139.294 93.4251 139.084 93.245 138.85 93.1011C138.619 92.9636 138.362 92.8482 138.079 92.7581C137.79 92.668 137.51 92.608 137.24 92.5843C136.972 92.5606 136.701 92.5779 136.426 92.6317C136.154 92.6917 135.902 92.7992 135.673 92.9494C135.444 93.0995 135.229 93.3224 135.03 93.6101C134.834 93.8977 134.671 94.247 134.542 94.6548C134.44 94.9725 134.376 95.2855 134.347 95.5921C134.322 95.8988 134.333 96.1991 134.384 96.4867C134.436 96.7744 134.545 97.0399 134.708 97.2802C134.873 97.5204 135.09 97.7133 135.359 97.8634L135.069 98.777C134.736 98.6095 134.452 98.404 134.216 98.1527C133.981 97.8998 133.802 97.6295 133.68 97.3418C133.559 97.0542 133.478 96.7412 133.44 96.3982C133.405 96.0679 133.408 95.7312 133.451 95.3898C133.494 95.0531 133.57 94.7054 133.68 94.3561C134.044 93.2149 134.638 92.4167 135.463 91.971H135.466ZM142.887 88.6802L142.688 89.6175L135.428 88.0686L135.627 87.1313L142.887 88.6802ZM12.7279 79.2805C13.0582 79.2505 13.3617 79.2568 13.6399 79.3042C13.9133 79.3469 14.1551 79.418 14.3622 79.5271C14.5661 79.6298 14.7494 79.761 14.9153 79.9301C15.0797 80.0977 15.2188 80.2778 15.3294 80.477C15.4417 80.6698 15.5381 80.8911 15.6203 81.144C15.7024 81.3969 15.7672 81.6482 15.8147 81.8948C15.8589 82.1477 15.8937 82.418 15.9206 82.7119C15.9474 83.0123 15.9632 83.2889 15.9664 83.5402C15.9664 83.7931 15.949 84.0507 15.9142 84.3083C15.8795 84.566 15.8241 84.8062 15.7514 85.0164C15.6772 85.2267 15.5744 85.4305 15.4432 85.6234C15.3089 85.8162 15.1508 85.9774 14.9691 86.1165C14.7842 86.254 14.5613 86.3742 14.2989 86.4642C14.0334 86.5607 13.7379 86.6207 13.4123 86.6508L8.87145 87.0712L8.78294 86.1228L13.3238 85.6961C13.6462 85.6661 13.9228 85.5934 14.1504 85.4732C14.3748 85.3468 14.5502 85.2029 14.6767 85.0354C14.8 84.8615 14.8901 84.6513 14.9501 84.3984C15.0054 84.1455 15.037 83.8942 15.0418 83.6477C15.0465 83.4011 15.0339 83.1197 15.0039 82.8005C14.9754 82.4938 14.9359 82.2235 14.8869 81.9896C14.8363 81.743 14.7589 81.5028 14.6546 81.2689C14.5455 81.0223 14.4143 80.8247 14.261 80.6746C14.1077 80.5181 13.9086 80.398 13.6604 80.3205C13.4139 80.2368 13.1325 80.2067 12.8164 80.2368L8.27559 80.6572L8.18708 79.7025L12.7279 79.2805ZM138.806 77.9291L138.713 78.8537C138.49 78.83 138.291 78.8537 138.117 78.9265C137.943 79.0039 137.801 79.1066 137.69 79.2394C137.579 79.3769 137.485 79.546 137.404 79.7499C137.326 79.9665 137.27 80.1704 137.232 80.3679C137.194 80.5718 137.162 80.8058 137.137 81.065C137.112 81.3052 137.094 81.5154 137.083 81.6956C137.075 81.8758 137.075 82.0734 137.08 82.2899C137.085 82.5065 137.11 82.693 137.153 82.8479C137.195 83.0043 137.255 83.1545 137.331 83.292C137.407 83.4295 137.515 83.5386 137.652 83.6224C137.79 83.7061 137.952 83.7551 138.14 83.7725C138.311 83.7899 138.458 83.7788 138.581 83.7298C138.708 83.6872 138.811 83.6097 138.891 83.4959C138.972 83.3884 139.037 83.262 139.084 83.1229C139.131 82.9854 139.179 82.81 139.225 82.5997L139.708 80.1245C139.832 79.4939 140.069 79.0197 140.423 78.7131C140.78 78.4064 141.245 78.28 141.818 78.3353C143.26 78.4855 143.871 79.644 143.653 81.8126C143.628 82.0655 143.598 82.2931 143.563 82.497C143.532 82.7009 143.484 82.9174 143.421 83.145C143.359 83.3726 143.287 83.5718 143.204 83.7457C143.121 83.9195 143.015 84.0823 142.884 84.2388C142.757 84.4016 142.612 84.5265 142.451 84.6229C142.292 84.7193 142.1 84.7857 141.874 84.8268C141.651 84.8742 141.403 84.8868 141.132 84.8568L141.226 83.9322C141.376 83.9448 141.516 83.9448 141.643 83.9195C141.769 83.9021 141.88 83.8658 141.978 83.8057C142.074 83.7456 142.158 83.6793 142.232 83.6018C142.31 83.5244 142.376 83.4279 142.433 83.3141C142.49 83.2003 142.536 83.0913 142.575 82.9775C142.615 82.87 142.648 82.7372 142.678 82.5871C142.707 82.4369 142.73 82.2994 142.746 82.173C142.765 82.0465 142.784 81.8964 142.801 81.7288C142.82 81.5486 142.833 81.3858 142.841 81.242C142.85 81.1045 142.854 80.948 142.85 80.7789C142.847 80.605 142.833 80.4549 142.808 80.3284C142.786 80.202 142.748 80.0708 142.695 79.938C142.646 79.8116 142.58 79.6978 142.499 79.614C142.419 79.5239 142.313 79.4465 142.183 79.3864C142.059 79.32 141.913 79.2837 141.747 79.2663C141.12 79.2062 140.721 79.5903 140.552 80.4375L140.08 82.9C139.843 84.1914 139.187 84.7794 138.112 84.6719C137.834 84.6482 137.586 84.5818 137.371 84.4854C137.159 84.3889 136.983 84.2688 136.844 84.1376C136.71 84.0001 136.596 83.831 136.505 83.6334C136.413 83.4359 136.347 83.2367 136.304 83.0454C136.261 82.8479 136.233 82.6187 136.222 82.3611C136.212 82.1082 136.214 81.8742 136.225 81.664C136.236 81.4601 136.253 81.2262 136.28 80.967C136.304 80.7267 136.334 80.4991 136.369 80.2937C136.407 80.0898 136.459 79.8732 136.522 79.6504C136.585 79.4275 136.659 79.2299 136.743 79.0561C136.83 78.8759 136.939 78.7131 137.069 78.5582C137.198 78.4017 137.344 78.2705 137.503 78.1678C137.666 78.0714 137.858 78.0002 138.077 77.9512C138.3 77.9086 138.542 77.8975 138.803 77.9275L138.806 77.9291ZM10.6053 69.3987L10.5436 70.3297C10.3919 70.317 10.2528 70.3297 10.128 70.3534C10.0031 70.3771 9.89246 70.4197 9.79763 70.4798C9.70438 70.5462 9.62061 70.6173 9.54949 70.6964C9.4752 70.7738 9.41198 70.8702 9.35983 70.984C9.30767 71.0978 9.265 71.2116 9.22864 71.327C9.19387 71.4408 9.16384 71.5736 9.14014 71.7237C9.11643 71.8739 9.09904 72.0114 9.08798 72.1442C9.07217 72.2706 9.05953 72.4144 9.04847 72.5883C9.03582 72.7685 9.0295 72.9313 9.02792 73.0688C9.0216 73.2063 9.02318 73.3628 9.03266 73.5367C9.04214 73.7105 9.06111 73.8544 9.09114 73.9808C9.11801 74.1072 9.1591 74.2384 9.216 74.3712C9.26974 74.4977 9.33928 74.6051 9.42305 74.6889C9.50681 74.7727 9.61429 74.8454 9.74547 74.9054C9.8735 74.9655 10.0205 74.9955 10.1849 75.0082C10.8155 75.0509 11.198 74.6478 11.3371 73.7943L11.7227 71.3191C11.9155 70.0214 12.5493 69.4034 13.6272 69.4746C13.907 69.4919 14.1551 69.5473 14.3748 69.6374C14.5898 69.7274 14.7699 69.8413 14.9138 69.9677C15.0544 70.1005 15.173 70.2617 15.2694 70.4608C15.3674 70.6584 15.4417 70.8512 15.4907 71.0441C15.5397 71.2369 15.576 71.4645 15.5966 71.7222C15.6139 71.975 15.6218 72.209 15.6187 72.4192C15.6155 72.6231 15.6045 72.857 15.5886 73.1226C15.5728 73.3628 15.5507 73.5904 15.5238 73.7959C15.4922 74.0061 15.4496 74.2163 15.3942 74.4439C15.3373 74.6668 15.271 74.8707 15.1935 75.0445C15.1129 75.2247 15.0102 75.3923 14.8853 75.5551C14.7605 75.7179 14.6198 75.8491 14.4649 75.9581C14.3068 76.0609 14.1172 76.1446 13.9007 76.1984C13.6794 76.2458 13.4376 76.2648 13.1752 76.2458L13.2368 75.3148C13.4613 75.3322 13.6588 75.3022 13.8295 75.2184C14.0018 75.141 14.1393 75.0319 14.2452 74.8944C14.3511 74.7569 14.4412 74.5814 14.5123 74.3712C14.5819 74.161 14.6309 73.9508 14.6625 73.7532C14.6925 73.543 14.7178 73.3154 14.7336 73.0562C14.7494 72.8096 14.7605 72.5994 14.7652 72.4192C14.7652 72.239 14.7605 72.0414 14.7462 71.8249C14.7336 71.6083 14.702 71.4218 14.653 71.2717C14.604 71.1152 14.5392 70.9714 14.4586 70.8339C14.378 70.6964 14.2673 70.5873 14.1267 70.5162C13.986 70.4387 13.8216 70.3897 13.632 70.3786C13.4597 70.366 13.3143 70.3913 13.1926 70.4387C13.0693 70.4861 12.9681 70.5715 12.8923 70.6853C12.8164 70.7991 12.7548 70.9255 12.7121 71.063C12.6679 71.2006 12.6283 71.376 12.5888 71.5862L12.1921 74.0788C12.0925 74.7158 11.8697 75.1963 11.5267 75.5203C11.1806 75.838 10.7207 75.9771 10.1453 75.9407C8.69917 75.8443 8.048 74.7094 8.19024 72.5298C8.20605 72.2769 8.22818 72.0493 8.25504 71.8454C8.27875 71.6415 8.31827 71.425 8.37516 71.1974C8.42732 70.9635 8.4937 70.7596 8.57115 70.5841C8.64859 70.4103 8.74817 70.2411 8.87461 70.0799C8.99631 69.9171 9.13697 69.7859 9.29503 69.6832C9.44992 69.5805 9.64116 69.5093 9.86401 69.4556C10.0853 69.4019 10.3318 69.3829 10.6053 69.4019V69.3987ZM143.524 68.2038L138.972 68.4741C138.648 68.4914 138.37 68.5578 138.139 68.6716C137.911 68.7854 137.731 68.9245 137.598 69.0921C137.47 69.2596 137.372 69.4651 137.304 69.7164C137.24 69.9693 137.202 70.2206 137.187 70.4672C137.175 70.7137 137.178 70.9951 137.197 71.3144C137.214 71.6147 137.244 71.8913 137.287 72.1315C137.33 72.3718 137.399 72.612 137.497 72.8586C137.598 73.1052 137.722 73.3027 137.87 73.4655C138.017 73.622 138.213 73.7485 138.458 73.8386C138.703 73.9286 138.983 73.9713 139.299 73.946L143.851 73.6758L143.908 74.6367L139.356 74.907C139.026 74.9244 138.722 74.907 138.445 74.8533C138.172 74.8059 137.935 74.7205 137.731 74.6067C137.53 74.4992 137.352 74.3538 137.194 74.18C137.036 74.0124 136.903 73.8259 136.797 73.6268C136.691 73.4292 136.603 73.2 136.528 72.9487C136.454 72.6958 136.399 72.4445 136.359 72.1916C136.324 71.9387 136.296 71.6637 136.279 71.3681C136.261 71.0725 136.255 70.7975 136.261 70.5399C136.271 70.287 136.296 70.0357 136.34 69.7765C136.383 69.5188 136.446 69.2833 136.527 69.0731C136.607 68.8629 136.716 68.6653 136.854 68.4788C136.995 68.286 137.157 68.1311 137.344 67.9983C137.532 67.8655 137.76 67.758 138.023 67.6743C138.292 67.5842 138.589 67.5368 138.916 67.5178L143.468 67.2412L143.525 68.2022L143.524 68.2038ZM16.194 65.9941L16.028 66.9377L8.71814 65.6527L8.88409 64.7091L16.194 65.9941ZM141.063 56.5327L134.474 60.8809L142.278 61.5953L142.708 63.3972L135.491 65.1264L135.273 64.2128L142.424 62.4947L142.42 62.4884L134.692 61.7913L134.252 59.9594L140.826 55.6286L140.823 55.6223L133.625 57.3467L133.408 56.4395L140.625 54.7103L141.061 56.5296L141.063 56.5327ZM12.8559 54.8036C13.2511 54.6771 13.6762 54.6408 14.1362 54.7072L13.8722 55.6444C13.3664 55.597 12.8907 55.7709 12.4434 56.1613C11.9977 56.5517 11.669 57.1223 11.4588 57.8731C11.3497 58.2635 11.3007 58.6365 11.3118 58.9779C11.3228 59.3209 11.3845 59.6212 11.4951 59.8788C11.6026 60.1317 11.7527 60.3657 11.9471 60.5695C12.14 60.7734 12.3565 60.9426 12.5951 61.0801C12.8306 61.2065 13.0914 61.314 13.3775 61.393C13.6699 61.4768 13.9512 61.5258 14.2231 61.5432C14.4902 61.5606 14.762 61.5305 15.0355 61.4657C15.3057 61.3994 15.5523 61.2856 15.7767 61.1228C15.9996 60.9663 16.2066 60.7387 16.3979 60.4447C16.5844 60.1507 16.7345 59.7966 16.8499 59.381C16.94 59.0633 16.9953 58.744 17.0127 58.4373C17.0269 58.1244 17.0048 57.8304 16.9447 57.5427C16.8815 57.2598 16.7646 56.9959 16.5939 56.7619C16.42 56.528 16.1956 56.3415 15.9237 56.1977L16.1813 55.2793C16.5212 55.4358 16.812 55.6334 17.0569 55.88C17.3019 56.1202 17.4884 56.3842 17.6196 56.6734C17.7508 56.9563 17.8425 57.2614 17.8915 57.5981C17.9373 57.9347 17.9452 58.2714 17.9136 58.6128C17.8836 58.9494 17.8188 59.2972 17.7208 59.6465C17.3968 60.8051 16.8294 61.6222 16.0201 62.0964C15.2062 62.5706 14.242 62.6496 13.1246 62.3366C12.0119 62.03 11.2296 61.4484 10.7807 60.5948C10.3334 59.7366 10.2686 58.7329 10.5895 57.5854C10.7143 57.1413 10.8803 56.7382 11.0842 56.3778C11.2896 56.0112 11.5378 55.6934 11.827 55.4105C12.1178 55.1339 12.4592 54.93 12.8559 54.8036ZM32.0956 42.3091C42.2109 29.1491 58.1156 20.6614 76.0008 20.6614L76.7152 20.6677C94.3759 20.8906 110.04 29.3894 120.017 42.4592C119.979 42.4118 119.941 42.3628 119.904 42.3091L135.638 30.4515C121.926 12.5293 100.314 0.960995 76.0008 0.960995C51.6877 0.960995 30.0741 12.523 16.3615 30.4531L32.0956 42.3091ZM112.808 18.7647L109.119 25.204L108.297 24.7361L111.986 18.2968L112.808 18.7647ZM45.4146 16.3369L40.8959 18.8295L42.0734 20.9617L46.5921 18.4691L47.022 19.2499L42.5033 21.7425L44.038 24.5228L43.1987 24.9859L39.6141 18.4865L44.9721 15.5308L45.4146 16.3369ZM108.289 16.1757L108.297 24.7361L107.409 24.224L107.423 15.6826L108.289 16.1757ZM107.423 15.6826L103.734 22.1219L102.917 21.654L106.606 15.2147L107.423 15.6826ZM53.9036 12.0551C54.1722 12.0551 54.4172 12.0915 54.6369 12.1626C54.8598 12.229 55.0652 12.3554 55.2502 12.5293C55.4382 12.6968 55.5805 12.9197 55.6785 13.19C55.7717 13.4429 55.7812 13.7005 55.7085 13.9645C55.6358 14.2284 55.511 14.4687 55.3308 14.6789C55.1506 14.8954 54.9562 15.0819 54.7444 15.2495C54.5342 15.406 54.3271 15.5371 54.1233 15.6272L56.2822 14.8401L57.5656 18.3537L56.6315 18.6967L55.6469 16.0002L50.7994 17.7658L51.7857 20.4622L50.8864 20.7926L48.3401 13.819L52.3752 12.3475C52.6281 12.2574 52.8794 12.1847 53.1291 12.131C53.3804 12.0772 53.6396 12.0535 53.9051 12.0535L53.9036 12.0551ZM103.541 13.7542L100.467 20.5112L99.5963 20.1145L102.67 13.3575L103.541 13.7542ZM99.4051 12.1926L99.1206 13.0461L94.2352 11.4181L93.4955 13.6278L98.3809 15.2621L98.1059 16.0856L93.2205 14.4513L92.4587 16.74L97.3441 18.368L97.0564 19.2325L91.2638 17.2979L93.6141 10.258L99.4051 12.1926ZM64.7965 9.89287L59.7467 10.8965L60.2035 13.1852L65.2533 12.1816L65.424 13.0351L60.3726 14.0387L60.8436 16.3986L65.8934 15.3949L66.0704 16.2832L60.0802 17.4781L58.6293 10.1979L64.6195 9.00933L64.7965 9.89287ZM53.6222 12.9734C53.4278 12.9861 53.2571 13.0098 53.1086 13.0461C52.96 13.0825 52.8162 13.1236 52.6771 13.1789L49.5413 14.3201L50.5023 16.9502L53.6286 15.809C54.1264 15.6288 54.5042 15.3285 54.7602 14.9144C55.0163 14.494 55.07 14.0862 54.9246 13.6894C54.855 13.4966 54.7476 13.3464 54.6037 13.2326C54.4615 13.1188 54.3113 13.0398 54.1517 13.005C53.9921 12.975 53.8166 12.9608 53.6222 12.9734ZM87.1071 9.02197C87.3726 9.06939 87.6255 9.12945 87.8673 9.2148C88.1139 9.28751 88.351 9.39499 88.5801 9.52776C88.8125 9.66053 89.0069 9.81542 89.1633 9.98455C89.323 10.1521 89.4415 10.3623 89.5142 10.6026C89.5917 10.8428 89.6075 11.1068 89.5601 11.3897C89.5142 11.6536 89.3957 11.8828 89.2013 12.0804C89.0069 12.2732 88.7793 12.4171 88.5185 12.5135C88.2577 12.6099 87.9938 12.681 87.7282 12.7174C87.4659 12.7537 87.224 12.7601 86.9996 12.7411L89.2645 13.1252L88.6386 16.8127L87.6587 16.6451L88.1392 13.8159L83.0515 12.9513L82.571 15.7869L81.6274 15.6241L82.8681 8.30755L87.1039 9.02197H87.1071ZM74.4155 8.96823L69.2725 9.24483L69.3974 11.5746L74.5404 11.298L74.5862 12.1689L69.4448 12.4455L69.5728 14.848L74.7158 14.5714L74.7648 15.485L68.6656 15.809L68.2705 8.39764L74.3697 8.07362L74.4155 8.96823ZM83.2 12.0978L86.4812 12.651C87.0043 12.7411 87.4817 12.6684 87.91 12.4345C88.3383 12.1942 88.588 11.8702 88.6592 11.4497C88.6939 11.2522 88.6765 11.0657 88.607 10.8965C88.5422 10.7227 88.4489 10.5836 88.3272 10.4761C88.2055 10.3686 88.057 10.2722 87.8831 10.1884C87.7093 10.0983 87.548 10.0383 87.4011 9.99561C87.2541 9.95294 87.1071 9.91816 86.9601 9.89287L83.6695 9.33493L83.2 12.0978Z" fill="#088862"/>
<path d="M81.7526 47.4205V58.3408H80.8691C80.8691 53.8535 77.6938 50.9105 72.4892 50.754H60.5057V73.2789H66.4152C70.7443 73.2015 73.9243 70.4133 73.9243 66.6958H74.7193V83.1828H73.9243C73.9243 79.47 70.7443 76.6835 66.5037 76.527H60.5041V96.0361C60.5562 97.5804 61.4334 98.9966 62.7753 99.8975C62.9665 100.024 63.1657 100.144 63.3743 100.245C64.1946 100.666 65.1413 100.912 66.1576 100.912V101.68H41.5078V100.912H41.5964C43.8186 100.912 45.7673 99.7537 46.6872 98.1194C46.8468 97.8364 46.9764 97.5424 47.0697 97.2311C47.1866 96.847 47.2499 96.4439 47.2499 96.0361V52.8372C47.2499 52.6033 47.2262 52.363 47.1819 52.1339C47.1519 51.9774 47.1124 51.8272 47.0649 51.6834C47.0412 51.6107 47.0144 51.5332 46.9859 51.4605C46.7868 50.9563 46.4801 50.4821 46.0929 50.0664C45.0387 48.9316 43.3808 48.1919 41.5979 48.1919L41.5094 47.4174H81.751L81.7526 47.4205ZM85.0274 47.4332C95.3766 47.6561 105.042 51.6075 105.042 62.0536C105.042 68.5593 100.624 75.9106 90.6414 76.7641C94.3509 77.8452 97.6194 80.9447 99.6519 83.6538C99.9222 84.0506 105.22 91.3955 108.487 95.0309C111.591 98.5082 113.763 100.666 117.106 100.677V101.685H111.16C101.443 101.685 94.1739 99.8295 90.1103 93.6368C87.9909 90.3097 83.9274 82.6454 82.7783 80.3978C81.0239 77.1719 79.0941 75.5502 76.8182 75.1487V74.4406H79.4229C84.1929 74.3632 89.053 72.2721 90.643 65.4613C90.82 64.5367 90.997 63.2928 90.9085 61.7501C90.6272 55.8451 87.8945 52.5306 83.861 51.3767V47.4364H85.029L85.0274 47.4332Z" fill="#088862"/>
</g>
<defs>
<clipPath id="clip0_202_1461">
<rect width="152" height="152" fill="white"/>
</clipPath>
</defs>
</svg>
