<svg width="56" height="56" viewBox="0 0 56 56" fill="none" xmlns="http://www.w3.org/2000/svg">
<path d="M26.613 54.6139V1.38605C26.613 0.620507 27.2335 0 27.999 0C28.7646 0 29.3851 0.620507 29.3851 1.38605V54.6139C29.385 55.3795 28.7645 56 27.999 56C27.2335 56 26.613 55.3795 26.613 54.6139ZM22.1729 50.1788V5.8222C22.173 5.05675 22.7935 4.43615 23.559 4.43615C24.3244 4.43615 24.9449 5.05675 24.945 5.8222V50.1788C24.945 50.9443 24.3245 51.5648 23.559 51.5648C22.7934 51.5648 22.1729 50.9443 22.1729 50.1788ZM31.053 50.1788V5.8222C31.0531 5.05675 31.6736 4.43615 32.4391 4.43615C33.2046 4.43615 33.825 5.05675 33.8251 5.8222V50.1788C33.8251 50.9443 33.2046 51.5648 32.4391 51.5648C31.6735 51.5648 31.053 50.9443 31.053 50.1788ZM16.6326 45.7417V10.2564C16.6328 9.49104 17.2533 8.8704 18.0187 8.87034C18.7841 8.87034 19.4045 9.491 19.4047 10.2564V45.7417C19.4047 46.5072 18.7842 47.1277 18.0187 47.1277C17.2532 47.1276 16.6326 46.5072 16.6326 45.7417ZM36.5933 45.7417V10.2564C36.5935 9.491 37.2139 8.87034 37.9794 8.87034C38.7448 8.8704 39.3652 9.49104 39.3654 10.2564V45.7417C39.3654 46.5072 38.7449 47.1276 37.9794 47.1277C37.2138 47.1277 36.5933 46.5072 36.5933 45.7417ZM11.0923 41.3065V14.6925C11.0926 13.9272 11.713 13.3065 12.4784 13.3065C13.2438 13.3065 13.8642 13.9272 13.8644 14.6925V41.3065C13.8644 42.072 13.2439 42.6935 12.4784 42.6935C11.7128 42.6935 11.0923 42.072 11.0923 41.3065ZM42.1336 41.3065V14.6925C42.1339 13.9272 42.7543 13.3065 43.5197 13.3065C44.2851 13.3065 44.9055 13.9272 44.9057 14.6925V41.3065C44.9057 42.072 44.2852 42.6935 43.5197 42.6935C42.7541 42.6935 42.1336 42.072 42.1336 41.3065ZM5.54029 36.8723V19.1297C5.54029 18.3641 6.1608 17.7436 6.92634 17.7436C7.69189 17.7436 8.31239 18.3641 8.31239 19.1297V36.8723C8.31223 37.6377 7.69179 38.2583 6.92634 38.2583C6.1609 38.2583 5.54045 37.6377 5.54029 36.8723ZM47.6856 36.8723V19.1297C47.6856 18.3641 48.3062 17.7436 49.0717 17.7436C49.8372 17.7436 50.4578 18.3641 50.4578 19.1297V36.8723C50.4576 37.6377 49.8371 38.2583 49.0717 38.2583C48.3063 38.2583 47.6858 37.6377 47.6856 36.8723ZM0 33.5452V22.4558C0.000115715 21.6903 0.620578 21.0697 1.38605 21.0697C2.15152 21.0697 2.77199 21.6903 2.7721 22.4558V33.5452C2.77208 34.3107 2.15158 34.9312 1.38605 34.9312C0.620522 34.9312 2.47983e-05 34.3107 0 33.5452ZM53.2259 33.5452V22.4558C53.2261 21.6903 53.8465 21.0697 54.612 21.0697C55.3775 21.0697 55.9979 21.6903 55.998 22.4558V33.5452C55.998 34.3107 55.3775 34.9312 54.612 34.9312C53.8465 34.9312 53.226 34.3107 53.2259 33.5452Z" fill="#088862"/>
</svg>
