<svg width="56" height="56" viewBox="0 0 56 56" fill="none" xmlns="http://www.w3.org/2000/svg">
<path d="M53.3373 20.1049C53.3371 12.1115 46.77 5.63153 38.6699 5.63153C35.4273 5.6316 32.4305 6.67 30.0024 8.42826C32.8968 11.4843 34.6688 15.5881 34.67 20.101C40.0998 22.3355 44.1299 27.2167 45.1072 33.1121C49.9802 30.7591 53.3373 25.8194 53.3373 20.1049ZM28.0034 33.5881C25.0621 35.8573 21.3598 37.2108 17.3369 37.2108C15.9694 37.2108 14.6391 37.053 13.3629 36.7575C13.8153 44.3492 20.197 50.3683 28.0034 50.3685C35.8099 50.3685 42.1904 44.3492 42.6429 36.7575C41.3671 37.0528 40.037 37.2108 38.6699 37.2108C34.647 37.2108 30.9447 35.8574 28.0034 33.5881ZM21.5661 22.8859C17.2217 24.9836 14.0825 29.1381 13.4526 34.064C14.6899 34.3986 15.992 34.5793 17.3369 34.5793C20.5798 34.5793 23.5761 33.5391 26.0044 31.7806C23.717 29.365 22.1309 26.2953 21.5661 22.8859ZM34.4408 22.8859C33.8759 26.2954 32.29 29.365 30.0024 31.7806C32.4307 33.5392 35.427 34.5792 38.6699 34.5793C40.0143 34.5793 41.3163 34.3983 42.5532 34.064C41.9233 29.138 38.7854 24.9835 34.4408 22.8859ZM28.0034 21.4207C26.6587 21.4207 25.3562 21.5995 24.1191 21.934C24.5176 25.0537 25.9234 27.8635 28.0034 30.0381C30.0836 27.8635 31.4881 25.0537 31.8867 21.934C30.6499 21.5998 29.3477 21.4207 28.0034 21.4207ZM28.0034 10.1718C25.711 12.5682 24.2386 15.7367 24.0294 19.2405C25.3055 18.9451 26.636 18.7892 28.0034 18.7892C29.3704 18.7892 30.7007 18.9453 31.9764 19.2405C31.7672 15.7366 30.296 12.5682 28.0034 10.1718ZM2.67053 20.1049C2.67053 25.8192 6.02685 30.759 10.8996 33.1121C11.8768 27.2169 15.9073 22.3356 21.3369 20.101C21.338 15.5883 23.1101 11.4843 26.0044 8.42826C23.5763 6.67013 20.5794 5.63153 17.3369 5.63153C9.23699 5.6317 2.6707 12.1116 2.67053 20.1049ZM56.0039 20.1049C56.0039 27.2205 51.6002 33.3202 45.3364 35.898C45.3344 45.3433 37.5751 53 28.0034 53C18.4318 52.9998 10.6724 45.3432 10.6704 35.898C4.40687 33.3201 0.00390625 27.2203 0.00390625 20.1049C0.00407823 10.6582 7.76423 3.00017 17.3369 3C21.3596 3 25.0622 4.35274 28.0034 6.62179C30.9446 4.35261 34.6471 3.00007 38.6699 3C48.2427 3 56.0037 10.6581 56.0039 20.1049Z" fill="#088862"/>
</svg>
