<svg width="56" height="56" viewBox="0 0 56 56" fill="none" xmlns="http://www.w3.org/2000/svg">
<path d="M54.5924 1.4076V54.5924H1.40759V1.4076H54.5924ZM56 0H0V56H56V0ZM13.5154 9.02587V17.017H11.3101V9.02587H8.26032V6.99104H16.5676V9.02587H13.5154ZM26.2479 17.0195V12.9943H22.1807V17.0195H19.9755V6.99352H22.1807V10.9619H26.2479V6.99352H28.4531V17.0195H26.2479ZM33.4958 17.0195V6.99352H35.701V17.0195H33.4958ZM44.1367 17.1628C42.618 17.1628 41.0869 16.6319 39.8818 15.5576L41.1857 13.9969C42.0871 14.7427 43.0328 15.2144 44.1787 15.2144C45.08 15.2144 45.6258 14.8563 45.6258 14.2686V14.2389C45.6258 13.6808 45.2825 13.3944 43.6057 12.9647C41.5857 12.4486 40.2843 11.8905 40.2843 9.90005V9.87041C40.2843 8.05041 41.7463 6.84781 43.7934 6.84781C45.2553 6.84781 46.5 7.30713 47.5173 8.12205L46.3716 9.78402C45.4826 9.16909 44.6108 8.79619 43.7638 8.79619C42.9168 8.79619 42.4748 9.18391 42.4748 9.67037V9.70001C42.4748 10.3594 42.9044 10.5743 44.638 11.0187C46.6728 11.5497 47.8187 12.2782 47.8187 14.0265V14.0562C47.8187 16.0441 46.2999 17.1628 44.1367 17.1628ZM13.3129 48.5175C10.3618 48.5175 8.17147 46.2407 8.17147 43.3613V43.3316C8.17147 40.4819 10.3199 38.1458 13.3993 38.1458C15.2909 38.1458 16.422 38.7755 17.3529 39.6916L15.9502 41.3091C15.1773 40.6078 14.3896 40.1782 13.387 40.1782C11.6978 40.1782 10.4804 41.5808 10.4804 43.2995V43.3292C10.4804 45.0479 11.6682 46.4802 13.387 46.4802C14.5328 46.4802 15.2341 46.0209 16.0219 45.3047L17.4245 46.7222C16.3923 47.831 15.2465 48.5175 13.3129 48.5175ZM30.6016 48.3471L29.6854 46.0975H25.4429L24.5267 48.3471H22.277L26.5738 38.2495H28.6087L32.9056 48.3471H30.6016ZM27.5641 40.8992L26.2331 44.1515H28.8977L27.5641 40.8992ZM45.8529 48.3471L40.998 41.9734V48.3471H38.8199V38.3211H40.8548L45.5517 44.4948V38.3211H47.7297V48.3471H45.8529ZM13.4339 32.8488C10.3125 32.8488 8.16402 30.6583 8.16402 27.6926V27.6629C8.16402 24.8132 10.3841 22.477 13.4215 22.477C15.2267 22.477 16.3158 22.9635 17.3603 23.8525L15.9725 25.5293C15.1995 24.8848 14.5106 24.5119 13.3523 24.5119C11.7472 24.5119 10.4729 25.9294 10.4729 27.6333V27.6629C10.4729 29.4953 11.7324 30.8436 13.5079 30.8436C14.3105 30.8436 15.0267 30.6435 15.5848 30.241V28.8088H13.3647V26.9048H17.7184V31.2585C16.6837 32.1326 15.2662 32.8488 13.4339 32.8488ZM21.6399 32.6784V22.6524H23.8451V32.6784H21.6399ZM34.5008 32.6784L32.3524 29.4705H30.6188V32.6784H28.4137V22.6524H32.9969C35.3602 22.6524 36.7777 23.8994 36.7777 25.9615V25.9911C36.7777 27.6085 35.9035 28.626 34.6293 29.1001L37.079 32.6808H34.5008V32.6784ZM34.5453 26.075C34.5453 25.1292 33.8859 24.6428 32.8117 24.6428H30.6213V27.5222H32.8562C33.9304 27.5222 34.5453 26.9492 34.5453 26.1047V26.075ZM40.5313 32.6784V22.6524H42.7365V30.6732H47.7347V32.6784H40.5313Z" fill="#485954"/>
</svg>
