<svg width="144" height="56" viewBox="0 0 144 56" fill="none" xmlns="http://www.w3.org/2000/svg">
<path d="M23.3202 19.1064H25.8862L20.6157 31.4658H19.7874L16.1931 23.0025L12.6883 31.4658H11.8824L6.5 19.1064H9.07298L12.2532 26.4743L15.3047 19.1064H17.0927L20.1778 26.4743" fill="#B6006D"/>
<path d="M32.4206 21.2188C31.2705 21.2188 30.3261 21.5994 29.5887 22.3578C28.8514 23.1176 28.4834 24.0853 28.4834 25.2595C28.4834 26.4252 28.8612 27.376 29.6153 28.1134C30.3708 28.8507 31.3404 29.2187 32.5255 29.2187C33.7021 29.2187 34.6661 28.8465 35.4161 28.1007C36.1674 27.3549 36.5424 26.3985 36.5424 25.2328C36.5424 24.0755 36.1506 23.1176 35.3699 22.3578C34.5878 21.5994 33.6056 21.2188 32.4206 21.2188ZM32.5465 19.0615C34.3849 19.0615 35.9156 19.6598 37.1328 20.8536C38.3514 22.0488 38.96 23.5488 38.96 25.3564C38.96 27.1106 38.3416 28.5684 37.1076 29.7271C35.8722 30.8872 34.315 31.4658 32.4415 31.4658C30.6255 31.4658 29.1102 30.8774 27.8916 29.7004C26.6744 28.5235 26.0657 27.0544 26.0657 25.2904C26.0657 23.5095 26.6814 22.0264 27.9126 20.841C29.1438 19.6556 30.687 19.0615 32.5465 19.0615Z" fill="#B6006D"/>
<path d="M51.7807 22.4169V31.2412H49.363V24.4787C49.363 23.1318 49.1839 22.1922 48.8258 21.6585C48.469 21.1262 47.845 20.8594 46.9551 20.8594C46.4585 20.8594 46.0023 20.9745 45.5882 21.2035C45.1741 21.4324 44.6998 21.8369 44.1695 22.4169V31.2412H41.7518V19.1066H44.1695V20.6866C45.3839 19.4535 46.5732 18.8369 47.7372 18.8369C49.2665 18.8369 50.4515 19.5729 51.291 21.0433C52.5782 19.5729 53.9242 18.8369 55.3275 18.8369C56.5111 18.8369 57.4835 19.2681 58.246 20.1304C59.01 20.9928 59.3919 22.3074 59.3919 24.0756V31.2412H56.9742V24.0068C56.9742 22.9885 56.7672 22.2091 56.353 21.6697C55.9375 21.1304 55.3429 20.8594 54.5691 20.8594C53.573 20.8594 52.644 21.379 51.7807 22.4169Z" fill="#B6006D"/>
<path d="M64.6886 23.9155H70.7776C70.716 22.952 70.4306 22.2091 69.9227 21.688C69.4134 21.1655 68.7293 20.9043 67.8702 20.9043C67.0112 20.9043 66.3074 21.1655 65.7603 21.688C65.2119 22.2091 64.8551 22.952 64.6886 23.9155ZM73.1505 25.3537H64.6886C64.7488 26.5208 65.1349 27.4506 65.8443 28.1402C66.5537 28.8297 67.4687 29.1738 68.5922 29.1738C70.1578 29.1738 71.6031 28.6949 72.9266 27.7357V30.0629C72.1921 30.5502 71.4646 30.8985 70.744 31.1078C70.0235 31.3171 69.177 31.421 68.2074 31.421C66.8796 31.421 65.8051 31.1443 64.9838 30.5881C64.1626 30.0334 63.505 29.2862 63.0111 28.348C62.5172 27.4098 62.2709 26.3242 62.2709 25.0896C62.2709 23.2399 62.7914 21.7343 63.8324 20.5757C64.8733 19.417 66.2249 18.8369 67.887 18.8369C69.4876 18.8369 70.765 19.4001 71.7192 20.5265C72.6734 21.6515 73.1505 23.1599 73.1505 25.0503" fill="#B6006D"/>
<path d="M78.8629 19.1066V20.6346C79.9276 19.4366 81.1379 18.8369 82.4908 18.8369C83.2422 18.8369 83.9403 19.0335 84.5867 19.4254C85.2317 19.8186 85.7228 20.3566 86.06 21.0391C86.3944 21.7231 86.5637 22.8046 86.5637 24.2863V31.2412H84.1908V24.32C84.1908 23.0784 84.0033 22.1922 83.6269 21.6585C83.2492 21.1262 82.6196 20.8594 81.7367 20.8594C80.6076 20.8594 79.6492 21.4296 78.8629 22.5672V31.2412H76.4005V19.1066" fill="#B6006D"/>
<path d="M88.9852 19.2415V18.7246C89.384 18.3356 89.6638 17.9522 89.8233 17.5716C89.9842 17.1909 90.0766 16.6685 90.1045 16.0056C89.1783 15.705 88.7166 15.125 88.7166 14.2668C88.7166 13.7795 88.8747 13.3638 89.1951 13.0183C89.5155 12.6728 89.8961 12.5 90.334 12.5C90.8685 12.5 91.3078 12.7402 91.6492 13.2177C91.992 13.6952 92.164 14.3047 92.164 15.0477C92.164 16.0393 91.88 16.9086 91.3148 17.6558C90.7495 18.4044 89.973 18.9325 88.9852 19.2415Z" fill="#B6006D"/>
<path d="M90.888 30.3789V27.7806C91.5638 28.2623 92.2535 28.6528 92.9601 28.9505C93.6666 29.2497 94.2613 29.3986 94.7454 29.3986C95.2434 29.3986 95.6744 29.275 96.034 29.0264C96.3935 28.7792 96.574 28.4814 96.574 28.1359C96.574 27.782 96.4579 27.4871 96.2256 27.2511C95.9934 27.0166 95.4925 26.6781 94.7216 26.2371C93.1797 25.3719 92.1696 24.6332 91.6925 24.0194C91.2154 23.4071 90.9775 22.7385 90.9775 22.0138C90.9775 21.0785 91.3385 20.3158 92.0619 19.7245C92.7852 19.1333 93.717 18.8369 94.8559 18.8369C96.0396 18.8369 97.254 19.1712 98.4992 19.8383V22.2077C97.0847 21.3397 95.9276 20.9043 95.0294 20.9043C94.5663 20.9043 94.1941 21.0054 93.9101 21.2063C93.6261 21.4071 93.4848 21.674 93.4848 22.004C93.4848 22.2905 93.6093 22.563 93.8583 22.8228C94.1074 23.0812 94.5565 23.3916 95.2057 23.7526L96.0591 24.2427C98.0739 25.3888 99.0812 26.6598 99.0812 28.0531C99.0812 29.0502 98.6923 29.8677 97.9172 30.5067C97.1407 31.1471 96.1431 31.4659 94.9245 31.4659C94.2067 31.4659 93.5673 31.3887 93.0049 31.2342C92.4452 31.0797 91.7387 30.7946 90.888 30.3789Z" fill="#B6006D"/>
<path d="M114.844 28.8199V25.2188L113.237 25.8396C112.418 26.1655 111.84 26.4927 111.502 26.8228C111.163 27.1528 110.994 27.5643 110.994 28.0559C110.994 28.5573 111.155 28.9674 111.477 29.2834C111.796 29.6008 112.211 29.7581 112.722 29.7581C113.486 29.7581 114.195 29.4463 114.844 28.8199ZM117.217 23.9464V29.1345C117.217 29.5502 117.36 29.7581 117.642 29.7581C117.933 29.7581 118.39 29.5488 119.008 29.1289V30.5249C118.464 30.8719 118.027 31.1078 117.698 31.2328C117.368 31.3578 117.023 31.421 116.663 31.421C115.635 31.421 115.03 31.0207 114.844 30.2202C113.823 31.0207 112.734 31.421 111.581 31.421C110.735 31.421 110.031 31.1415 109.467 30.5811C108.904 30.0207 108.621 29.3171 108.621 28.4688C108.621 27.702 108.895 27.0152 109.444 26.4112C109.992 25.8073 110.77 25.3284 111.779 24.9745L114.844 23.9155V23.2708C114.844 21.813 114.117 21.0841 112.66 21.0841C111.353 21.0841 110.082 21.7582 108.845 23.1065V20.4844C109.778 19.3861 111.118 18.8369 112.867 18.8369C114.177 18.8369 115.226 19.1824 116.018 19.872C116.281 20.0939 116.518 20.3875 116.729 20.7554C116.941 21.122 117.074 21.49 117.132 21.8565C117.189 22.2231 117.217 22.9197 117.217 23.9464Z" fill="#B6006D"/>
<path d="M121.157 19.1059H123.575V31.2406H121.157V19.1059ZM122.324 13.9824C122.717 13.9824 123.054 14.1187 123.334 14.3911C123.614 14.6636 123.754 14.9979 123.754 15.3925C123.754 15.7787 123.614 16.1116 123.334 16.3925C123.054 16.6734 122.717 16.8138 122.324 16.8138C121.956 16.8138 121.633 16.672 121.353 16.3869C121.073 16.1018 120.933 15.7703 120.933 15.3925C120.933 15.0231 121.073 14.6959 121.353 14.4108C121.633 14.1257 121.956 13.9824 122.324 13.9824Z" fill="#B6006D"/>
<path d="M135.082 29.2187V21.4731C134.335 21.0938 133.581 20.9042 132.816 20.9042C131.622 20.9042 130.671 21.2989 129.964 22.0868C129.256 22.8747 128.904 23.9379 128.904 25.275C128.904 26.532 129.21 27.5011 129.826 28.1836C130.195 28.5909 130.586 28.8648 130.998 29.0067C131.411 29.1485 132.153 29.2187 133.224 29.2187H135.082ZM135.082 12.7695H137.5V31.2412H132.375C130.583 31.2412 129.153 30.6738 128.087 29.5389C127.019 28.4041 126.486 26.8831 126.486 24.973C126.486 23.1879 127.046 21.7188 128.165 20.5658C129.284 19.4141 130.711 18.8369 132.449 18.8369C133.256 18.8369 134.135 19.0026 135.082 19.3326" fill="#B6006D"/>
<path d="M11.724 43.4201V42.8555C11.5366 43.0591 11.3225 43.2178 11.0818 43.3302C10.8426 43.4425 10.6033 43.4987 10.3641 43.4987C10.0843 43.4987 9.82544 43.4285 9.58759 43.2895C9.35113 43.1476 9.17205 42.958 9.05032 42.7178C8.93 42.4777 8.86984 42.0788 8.86984 41.5212V38.9707H9.74289V41.51C9.74289 41.9777 9.81005 42.3049 9.94436 42.4903C10.0787 42.6757 10.3137 42.7684 10.6509 42.7684C11.0721 42.7684 11.4288 42.5633 11.724 42.1546V38.9707H12.5971V43.4201" fill="#231F20"/>
<path d="M14.684 38.9712V39.5218C15.0757 39.0878 15.5206 38.8701 16.0187 38.8701C16.2943 38.8701 16.5504 38.9431 16.7882 39.0864C17.0261 39.2311 17.2066 39.4277 17.3311 39.6791C17.4542 39.9291 17.5158 40.3266 17.5158 40.8687V43.4206H16.6427V40.8743C16.6427 40.4178 16.5742 40.0906 16.4356 39.894C16.2971 39.6988 16.0663 39.6004 15.7403 39.6004C15.3261 39.6004 14.9736 39.8111 14.684 40.2296V43.4206H13.7885V38.9712" fill="#231F20"/>
<path d="M18.104 39.6818L19.748 38.0498V38.9711H21.1583V39.7689H19.748V41.9402C19.748 42.4486 19.9593 42.7014 20.3818 42.7014C20.698 42.7014 21.031 42.6003 21.3822 42.3981V43.2155C21.045 43.4051 20.677 43.4992 20.2783 43.4992C19.8767 43.4992 19.5423 43.3826 19.2751 43.1466C19.1925 43.075 19.1226 42.9964 19.068 42.9079C19.0135 42.8194 18.9673 42.7028 18.9309 42.5596C18.8945 42.4163 18.8749 42.1438 18.8749 41.7408V39.7689H18.104" fill="#231F20"/>
<path d="M22.0076 38.9711H22.8806V43.4205H22.0076V38.9711ZM22.4427 37.0947C22.5882 37.0947 22.7113 37.1453 22.8149 37.245C22.9184 37.3461 22.9702 37.4697 22.9702 37.6158C22.9702 37.7576 22.9184 37.8812 22.8149 37.9852C22.7113 38.0891 22.5882 38.1397 22.4427 38.1397C22.307 38.1397 22.1881 38.0877 22.0845 37.9824C21.981 37.877 21.9292 37.7548 21.9292 37.6158C21.9292 37.4796 21.981 37.3588 22.0845 37.2534C22.1881 37.1481 22.307 37.0947 22.4427 37.0947Z" fill="#231F20"/>
<path d="M24.1551 43.4202H25.0295V36.6562H24.1551V43.4202Z" fill="#231F20"/>
<path d="M34.8135 38.9707H35.7537L33.7992 43.4987H33.5095L32.2112 40.3991L30.9114 43.4987H30.6232L28.6574 38.9707H29.6004L30.7561 41.6701L31.8894 38.9707H32.5469L33.6564 41.6701" fill="#231F20"/>
<path d="M38.239 39.7577C37.8165 39.7577 37.4709 39.8967 37.2009 40.1734C36.9308 40.4515 36.7951 40.8054 36.7951 41.2338C36.7951 41.6594 36.9322 42.0063 37.2093 42.2759C37.4863 42.5456 37.8431 42.679 38.2768 42.679C38.7077 42.679 39.0617 42.5428 39.3359 42.2703C39.6116 41.9978 39.7501 41.6495 39.7501 41.224C39.7501 40.8012 39.606 40.4515 39.3205 40.1734C39.0337 39.8967 38.6727 39.7577 38.239 39.7577ZM38.2908 38.96C38.9652 38.96 39.5276 39.1791 39.9739 39.6159C40.4216 40.0526 40.6455 40.6032 40.6455 41.2633C40.6455 41.9065 40.4188 42.4388 39.9641 42.863C39.5108 43.2871 38.94 43.4992 38.2516 43.4992C37.5856 43.4992 37.0288 43.2843 36.5811 42.8532C36.1347 42.4234 35.9109 41.8855 35.9109 41.2394C35.9109 40.5877 36.1361 40.0456 36.5895 39.6116C37.0414 39.1777 37.608 38.96 38.2908 38.96Z" fill="#231F20"/>
<path d="M45.2246 40.1889V43.4206H44.3404V40.9319C44.3404 40.4361 44.2746 40.0906 44.1431 39.8954C44.0116 39.6988 43.7822 39.6004 43.4548 39.6004C43.2701 39.6004 43.1022 39.644 42.9497 39.7311C42.7972 39.8167 42.6237 39.9698 42.4264 40.1889V43.4206H41.5534V38.9712H42.4264V39.5541C42.8741 39.099 43.312 38.8701 43.7388 38.8701C44.3026 38.8701 44.7378 39.1426 45.047 39.6861C45.5143 39.1426 46.004 38.8701 46.5132 38.8701C46.9428 38.8701 47.2967 39.0288 47.5738 39.3448C47.8508 39.6608 47.9907 40.144 47.9907 40.7928V43.4206H47.1163V40.7746C47.1163 40.4024 47.0407 40.1173 46.891 39.9193C46.7399 39.7226 46.523 39.6229 46.2404 39.6229C45.878 39.6229 45.5394 39.8125 45.2246 40.1889Z" fill="#231F20"/>
<path d="M49.8657 40.7353H52.0931C52.0707 40.3827 51.9658 40.1117 51.7797 39.9207C51.5936 39.7297 51.3432 39.6342 51.0298 39.6342C50.715 39.6342 50.4575 39.7297 50.2575 39.9207C50.0574 40.1117 49.9259 40.3827 49.8657 40.7353ZM52.9662 41.2633H49.8433C49.8657 41.6931 50.007 42.0344 50.2701 42.2872C50.5317 42.5414 50.8703 42.6678 51.2858 42.6678C51.8651 42.6678 52.3981 42.488 52.8878 42.1285V42.9866C52.6178 43.1678 52.3506 43.2956 52.0847 43.3729C51.8203 43.4501 51.5083 43.488 51.1529 43.488C50.6646 43.488 50.2687 43.3869 49.9679 43.1833C49.6656 42.9796 49.4236 42.7057 49.2417 42.3602C49.0598 42.0161 48.9703 41.6173 48.9703 41.165C48.9703 40.4867 49.1606 39.9333 49.5439 39.5092C49.9259 39.0836 50.4226 38.8701 51.0326 38.8701C51.6202 38.8701 52.0903 39.078 52.4401 39.4909C52.7899 39.9038 52.9662 40.4586 52.9662 41.1524" fill="#231F20"/>
<path d="M54.7766 38.9712V39.5218C55.1684 39.0878 55.6133 38.8701 56.1114 38.8701C56.387 38.8701 56.643 38.9431 56.8809 39.0864C57.1187 39.2311 57.2992 39.4277 57.4224 39.6791C57.5455 39.9291 57.6084 40.3266 57.6084 40.8687V43.4206H56.7354V40.8743C56.7354 40.4178 56.6654 40.0906 56.5283 39.894C56.3898 39.6988 56.1575 39.6004 55.8329 39.6004C55.4188 39.6004 55.0662 39.8111 54.7766 40.2296V43.4206H53.8812V38.9712" fill="#231F20"/>
<path d="M63.8637 39.4202L64.2387 39.1576C64.587 38.9132 64.7605 38.6309 64.7605 38.3078C64.7605 38.1098 64.6892 37.9441 64.5451 37.8107C64.401 37.6786 64.2191 37.6112 63.998 37.6112C63.7854 37.6112 63.6091 37.673 63.4692 37.7952C63.3306 37.9188 63.2607 38.0733 63.2607 38.2573C63.2607 38.4357 63.3138 38.6295 63.423 38.8373C63.5293 39.0466 63.6776 39.2404 63.8637 39.4202ZM64.5003 42.0199L64.7172 41.8218L63.6203 40.5578L63.1963 40.857C62.694 41.1954 62.4436 41.5381 62.4436 41.8864C62.4436 42.0775 62.5261 42.2404 62.6898 42.3752C62.8535 42.51 63.0522 42.5774 63.2831 42.5774C63.4636 42.5774 63.6678 42.5269 63.8945 42.423C64.1211 42.319 64.3226 42.1856 64.5003 42.0199ZM66.1037 43.4201L65.3076 42.5016C65.239 42.5704 65.1243 42.6673 64.9592 42.798L64.9494 42.8078C64.7214 42.9974 64.4387 43.1603 64.103 43.2951C63.7672 43.4314 63.451 43.4988 63.1557 43.4988C62.6884 43.4988 62.2939 43.3471 61.9679 43.0409C61.6433 42.7376 61.481 42.364 61.481 41.9258C61.481 41.6098 61.5607 41.3247 61.7202 41.069C61.8783 40.8148 62.1386 40.555 62.4982 40.291L62.5122 40.2755C62.7234 40.1168 62.9067 39.996 63.0606 39.9118C62.5527 39.3682 62.2981 38.8444 62.2981 38.3444C62.2981 37.8837 62.4548 37.5101 62.7668 37.2222C63.0802 36.9357 63.4859 36.791 63.9854 36.791C64.4751 36.791 64.8781 36.9329 65.1929 37.2138C65.5091 37.4961 65.6672 37.8542 65.6672 38.2924C65.6672 38.8851 65.2698 39.4609 64.4765 40.0213L64.408 40.0747L65.3566 41.1589C65.6378 40.8528 65.884 40.4876 66.0925 40.0606H67.0551C66.8214 40.6632 66.4549 41.2558 65.9526 41.8387L67.3237 43.4201" fill="#231F20"/>
<path d="M74.3047 42.3869V43.2549C73.8626 43.4178 73.4317 43.4993 73.0091 43.4993C72.3124 43.4993 71.7583 43.2928 71.3442 42.8785C70.93 42.4642 70.723 41.9094 70.723 41.2142C70.723 40.5119 70.9245 39.9459 71.3288 39.5162C71.7317 39.085 72.2634 38.8701 72.921 38.8701C73.1504 38.8701 73.3561 38.8926 73.5394 38.9361C73.7213 38.9797 73.9465 39.0611 74.2152 39.1805V40.1173C73.7675 39.8336 73.3533 39.6903 72.9714 39.6903C72.574 39.6903 72.2466 39.8308 71.9906 40.1117C71.7345 40.3926 71.6072 40.7507 71.6072 41.1847C71.6072 41.6425 71.7443 42.0063 72.0214 42.2746C72.297 42.5442 72.6692 42.6791 73.1379 42.6791C73.4764 42.6791 73.8654 42.5821 74.3047 42.3869Z" fill="#231F20"/>
<path d="M75.2642 36.6562H76.1386V39.5382C76.5038 39.093 76.9585 38.8697 77.5014 38.8697C77.798 38.8697 78.0624 38.9441 78.2975 39.093C78.5325 39.2419 78.706 39.4483 78.8208 39.7096C78.9341 39.9722 78.9914 40.3613 78.9914 40.8781V43.4202H78.1184V40.6562C78.1184 40.329 78.0386 40.0649 77.8791 39.8655C77.7196 39.666 77.5098 39.5663 77.2495 39.5663C77.0551 39.5663 76.8732 39.6169 76.7039 39.7166C76.5318 39.8177 76.3443 39.9834 76.1386 40.2152V43.4202H75.2642" fill="#231F20"/>
<path d="M80.2145 38.9711H81.0876V43.4205H80.2145V38.9711ZM80.6482 37.0947C80.7938 37.0947 80.9183 37.1453 81.0218 37.245C81.1253 37.3461 81.1771 37.4697 81.1771 37.6158C81.1771 37.7576 81.1253 37.8812 81.0218 37.9852C80.9183 38.0891 80.7938 38.1397 80.6482 38.1397C80.5139 38.1397 80.3936 38.0877 80.2901 37.9824C80.1879 37.877 80.1362 37.7548 80.1362 37.6158C80.1362 37.4796 80.1879 37.3588 80.2901 37.2534C80.3936 37.1481 80.5139 37.0947 80.6482 37.0947Z" fill="#231F20"/>
<path d="M82.362 43.4202H83.2351V36.6562H82.362V43.4202Z" fill="#231F20"/>
<path d="M87.4529 42.6674V39.843C87.1787 39.704 86.9031 39.6337 86.6232 39.6337C86.1867 39.6337 85.8383 39.7784 85.5795 40.0663C85.3207 40.3528 85.1906 40.7405 85.1906 41.2292C85.1906 41.6871 85.3039 42.041 85.5291 42.2896C85.6635 42.4385 85.8062 42.5396 85.9573 42.5902C86.1084 42.6421 86.3812 42.6674 86.773 42.6674H87.4529ZM87.4529 36.6562H88.3372V43.4202H86.461C85.8062 43.4202 85.2829 43.2123 84.8925 42.7952C84.5022 42.3795 84.3077 41.8219 84.3077 41.1211C84.3077 40.4666 84.512 39.9273 84.9219 39.5045C85.3305 39.0818 85.8537 38.8697 86.4889 38.8697C86.7841 38.8697 87.1059 38.9329 87.4529 39.0579" fill="#231F20"/>
<path d="M90.4492 38.9712V39.9797L90.4967 39.9024C90.9193 39.2142 91.3432 38.8701 91.7657 38.8701C92.0959 38.8701 92.4401 39.0387 92.7997 39.3757L92.338 40.151C92.033 39.8589 91.7518 39.7128 91.4915 39.7128C91.2103 39.7128 90.9654 39.849 90.7598 40.1201C90.5527 40.3926 90.4492 40.7142 90.4492 41.0864V43.4206H89.5649V38.9712" fill="#231F20"/>
<path d="M93.8731 40.7353H96.1005C96.0781 40.3827 95.9732 40.1117 95.7871 39.9207C95.601 39.7297 95.3506 39.6342 95.0372 39.6342C94.7224 39.6342 94.4649 39.7297 94.2648 39.9207C94.0648 40.1117 93.9333 40.3827 93.8731 40.7353ZM96.9735 41.2633H93.8507C93.8731 41.6931 94.0144 42.0344 94.2774 42.2872C94.5391 42.5414 94.8777 42.6678 95.2932 42.6678C95.8724 42.6678 96.4055 42.488 96.8952 42.1285V42.9866C96.6252 43.1678 96.3579 43.2956 96.0921 43.3729C95.8277 43.4501 95.5171 43.488 95.1603 43.488C94.672 43.488 94.276 43.3869 93.9752 43.1833C93.673 42.9796 93.431 42.7057 93.2491 42.3602C93.0672 42.0161 92.9777 41.6173 92.9777 41.165C92.9777 40.4867 93.1679 39.9333 93.5513 39.5092C93.9333 39.0836 94.4299 38.8701 95.04 38.8701C95.6276 38.8701 96.0977 39.078 96.4475 39.4909C96.7972 39.9038 96.9735 40.4586 96.9735 41.1524" fill="#231F20"/>
<path d="M98.7879 38.9712V39.5218C99.1796 39.0878 99.6232 38.8701 100.121 38.8701C100.398 38.8701 100.654 38.9431 100.892 39.0864C101.13 39.2311 101.31 39.4277 101.434 39.6791C101.557 39.9291 101.618 40.3266 101.618 40.8687V43.4206H100.747V40.8743C100.747 40.4178 100.677 40.0906 100.54 39.894C100.4 39.6988 100.169 39.6004 99.8442 39.6004C99.4287 39.6004 99.0775 39.8111 98.7879 40.2296V43.4206H97.8924V38.9712" fill="#231F20"/>
<path d="M107.756 42.5386V41.2072L107.167 41.4361C106.868 41.5569 106.656 41.6777 106.532 41.7984C106.407 41.9206 106.346 42.0723 106.346 42.2535C106.346 42.4389 106.405 42.5906 106.522 42.7071C106.64 42.8237 106.792 42.8813 106.978 42.8813C107.258 42.8813 107.518 42.7675 107.756 42.5386ZM108.618 40.7367V42.6313C108.618 42.783 108.668 42.8588 108.769 42.8588C108.873 42.8588 109.035 42.7802 109.256 42.6229V43.1622C109.06 43.2886 108.902 43.3743 108.783 43.4192C108.664 43.4656 108.541 43.488 108.411 43.488C108.042 43.488 107.823 43.342 107.756 43.0512C107.381 43.342 106.982 43.488 106.559 43.488C106.249 43.488 105.989 43.3855 105.783 43.1804C105.576 42.9754 105.473 42.717 105.473 42.4066C105.473 42.1243 105.574 41.8729 105.775 41.651C105.975 41.4291 106.262 41.2535 106.631 41.1243L107.756 40.7353V40.4965C107.756 39.96 107.489 39.6903 106.953 39.6903C106.473 39.6903 106.006 39.9375 105.551 40.4319V39.4726C105.893 39.071 106.384 38.8701 107.024 38.8701C107.504 38.8701 107.888 38.9965 108.179 39.2493C108.275 39.3294 108.362 39.4375 108.439 39.5709C108.517 39.7058 108.566 39.8392 108.586 39.9726C108.608 40.1075 108.618 40.3617 108.618 40.7367Z" fill="#231F20"/>
<path d="M110.968 38.9712V39.9797L111.017 39.9024C111.44 39.2142 111.862 38.8701 112.286 38.8701C112.616 38.8701 112.961 39.0387 113.319 39.3757L112.857 40.151C112.554 39.8589 112.271 39.7128 112.012 39.7128C111.729 39.7128 111.485 39.849 111.279 40.1201C111.072 40.3926 110.968 40.7142 110.968 41.0864V43.4206H110.084V38.9712" fill="#231F20"/>
<path d="M114.396 40.7353H116.624C116.6 40.3827 116.496 40.1117 116.31 39.9207C116.124 39.7297 115.874 39.6342 115.56 39.6342C115.245 39.6342 114.988 39.7297 114.788 39.9207C114.588 40.1117 114.456 40.3827 114.396 40.7353ZM117.495 41.2633H114.374C114.396 41.6931 114.537 42.0344 114.799 42.2872C115.062 42.5414 115.401 42.6678 115.816 42.6678C116.395 42.6678 116.929 42.488 117.418 42.1285V42.9866C117.148 43.1678 116.881 43.2956 116.615 43.3729C116.351 43.4501 116.04 43.488 115.683 43.488C115.195 43.488 114.799 43.3869 114.498 43.1833C114.196 42.9796 113.954 42.7057 113.772 42.3602C113.59 42.0161 113.501 41.6173 113.501 41.165C113.501 40.4867 113.691 39.9333 114.074 39.5092C114.456 39.0836 114.953 38.8701 115.563 38.8701C116.151 38.8701 116.619 39.078 116.97 39.4909C117.32 39.9038 117.495 40.4586 117.495 41.1524" fill="#231F20"/>
<path d="M121.213 43.1017V42.1509C121.461 42.3251 121.716 42.4655 121.976 42.5737C122.236 42.6818 122.454 42.7352 122.632 42.7352C122.817 42.7352 122.975 42.6902 123.108 42.6003C123.239 42.5104 123.306 42.4023 123.306 42.2759C123.306 42.1467 123.263 42.0399 123.178 41.9543C123.092 41.8686 122.908 41.745 122.624 41.5821C122.057 41.2661 121.685 40.995 121.51 40.7703C121.334 40.5456 121.247 40.3012 121.247 40.0358C121.247 39.6931 121.38 39.4122 121.646 39.1959C121.912 38.9782 122.253 38.8701 122.673 38.8701C123.108 38.8701 123.554 38.9922 124.012 39.238V40.106C123.487 39.7914 123.059 39.6341 122.726 39.6341C122.554 39.6341 122.415 39.672 122.31 39.745C122.205 39.8181 122.154 39.915 122.154 40.0358C122.154 40.1397 122.201 40.2394 122.298 40.3335C122.396 40.4276 122.564 40.5414 122.801 40.6734L123.116 40.8532C123.855 41.2731 124.224 41.7394 124.224 42.2492C124.224 42.6144 124.082 42.9149 123.796 43.1481C123.511 43.3826 123.144 43.4992 122.696 43.4992C122.432 43.4992 122.197 43.4711 121.991 43.4149C121.784 43.3588 121.525 43.2548 121.213 43.1017Z" fill="#231F20"/>
<path d="M127.143 42.5386V41.2072L126.555 41.4361C126.254 41.5569 126.043 41.6777 125.92 41.7984C125.794 41.9206 125.734 42.0723 125.734 42.2535C125.734 42.4389 125.793 42.5906 125.91 42.7071C126.028 42.8237 126.179 42.8813 126.366 42.8813C126.646 42.8813 126.905 42.7675 127.143 42.5386ZM128.005 40.7367V42.6313C128.005 42.783 128.057 42.8588 128.157 42.8588C128.261 42.8588 128.422 42.7802 128.644 42.6229V43.1622C128.447 43.2886 128.29 43.3743 128.171 43.4192C128.052 43.4656 127.928 43.488 127.799 43.488C127.428 43.488 127.21 43.342 127.143 43.0512C126.769 43.342 126.369 43.488 125.945 43.488C125.636 43.488 125.377 43.3855 125.17 43.1804C124.964 42.9754 124.86 42.717 124.86 42.4066C124.86 42.1243 124.96 41.8729 125.162 41.651C125.363 41.4291 125.649 41.2535 126.018 41.1243L127.143 40.7353V40.4965C127.143 39.96 126.876 39.6903 126.341 39.6903C125.86 39.6903 125.393 39.9375 124.939 40.4319V39.4726C125.281 39.071 125.77 38.8701 126.413 38.8701C126.891 38.8701 127.276 38.9965 127.567 39.2493C127.663 39.3294 127.749 39.4375 127.826 39.5709C127.904 39.7058 127.953 39.8392 127.974 39.9726C127.995 40.1075 128.005 40.3617 128.005 40.7367Z" fill="#231F20"/>
<path d="M129.513 38.9713V38.7059C129.513 37.991 129.665 37.4573 129.968 37.1062C130.27 36.7551 130.634 36.5781 131.058 36.5781C131.24 36.5781 131.457 36.6076 131.707 36.6652V37.5219C131.566 37.477 131.43 37.4545 131.303 37.4545C130.959 37.4545 130.719 37.5472 130.587 37.7298C130.454 37.9124 130.386 38.2382 130.386 38.7073V38.9713H131.181V39.7691H130.386V43.4207H129.513V39.7691H128.875V38.9713" fill="#231F20"/>
<path d="M132.44 40.7353H134.668C134.644 40.3827 134.54 40.1117 134.354 39.9207C134.168 39.7297 133.918 39.6342 133.604 39.6342C133.29 39.6342 133.032 39.7297 132.832 39.9207C132.632 40.1117 132.501 40.3827 132.44 40.7353ZM135.539 41.2633H132.418C132.44 41.6931 132.582 42.0344 132.843 42.2872C133.106 42.5414 133.445 42.6678 133.86 42.6678C134.44 42.6678 134.973 42.488 135.462 42.1285V42.9866C135.192 43.1678 134.925 43.2956 134.659 43.3729C134.395 43.4501 134.084 43.488 133.728 43.488C133.239 43.488 132.843 43.3869 132.542 43.1833C132.24 42.9796 131.998 42.7057 131.816 42.3602C131.634 42.0161 131.545 41.6173 131.545 41.165C131.545 40.4867 131.735 39.9333 132.119 39.5092C132.501 39.0836 132.997 38.8701 133.607 38.8701C134.195 38.8701 134.664 39.078 135.015 39.4909C135.365 39.9038 135.539 40.4586 135.539 41.1524" fill="#231F20"/>
</svg>
