<svg width="131" height="31" viewBox="0 0 131 31" fill="none" xmlns="http://www.w3.org/2000/svg">
<path d="M16.8202 6.60645H19.3862L14.1157 18.9658H13.2874L9.6931 10.5025L6.18831 18.9658H5.38241L0 6.60645H2.57298L5.75318 13.9743L8.80466 6.60645H10.5927L13.6778 13.9743" fill="#485954"/>
<path d="M25.9206 8.7188C24.7705 8.7188 23.8261 9.09941 23.0887 9.85782C22.3514 10.6176 21.9834 11.5853 21.9834 12.7595C21.9834 13.9252 22.3612 14.876 23.1153 15.6134C23.8708 16.3507 24.8404 16.7187 26.0255 16.7187C27.2021 16.7187 28.1661 16.3465 28.9161 15.6007C29.6674 14.8549 30.0424 13.8985 30.0424 12.7328C30.0424 11.5755 29.6506 10.6176 28.8699 9.85782C28.0878 9.09941 27.1056 8.7188 25.9206 8.7188ZM26.0465 6.56152C27.8849 6.56152 29.4156 7.15983 30.6328 8.35363C31.8514 9.54884 32.46 11.0488 32.46 12.8564C32.46 14.6106 31.8416 16.0684 30.6076 17.2271C29.3722 18.3872 27.815 18.9658 25.9415 18.9658C24.1255 18.9658 22.6102 18.3774 21.3916 17.2004C20.1744 16.0235 19.5657 14.5544 19.5657 12.7904C19.5657 11.0095 20.1814 9.52637 21.4126 8.34099C22.6438 7.15562 24.187 6.56152 26.0465 6.56152Z" fill="#485954"/>
<path d="M45.2807 9.91692V18.7412H42.863V11.9787C42.863 10.6318 42.6839 9.6922 42.3258 9.1585C41.969 8.62621 41.345 8.35936 40.4551 8.35936C39.9585 8.35936 39.5023 8.47452 39.0882 8.70345C38.6741 8.93238 38.1998 9.33687 37.6695 9.91692V18.7412H35.2518V6.60657H37.6695V8.18661C38.8839 6.95348 40.0732 6.33691 41.2372 6.33691C42.7665 6.33691 43.9515 7.07286 44.791 8.54334C46.0782 7.07286 47.4242 6.33691 48.8275 6.33691C50.0111 6.33691 50.9835 6.76809 51.746 7.63043C52.51 8.49278 52.8919 9.80737 52.8919 11.5756V18.7412H50.4742V11.5068C50.4742 10.4885 50.2672 9.70906 49.853 9.16974C49.4375 8.63042 48.8429 8.35936 48.0691 8.35936C47.073 8.35936 46.144 8.87901 45.2807 9.91692Z" fill="#485954"/>
<path d="M58.1886 11.4155H64.2776C64.216 10.452 63.9306 9.70906 63.4227 9.188C62.9135 8.66553 62.2293 8.4043 61.3702 8.4043C60.5112 8.4043 59.8074 8.66553 59.2603 9.188C58.7119 9.70906 58.3551 10.452 58.1886 11.4155ZM66.6505 12.8537H58.1886C58.2488 14.0208 58.6349 14.9506 59.3443 15.6402C60.0537 16.3297 60.9687 16.6738 62.0922 16.6738C63.6578 16.6738 65.1031 16.1949 66.4266 15.2357V17.5629C65.6921 18.0502 64.9646 18.3985 64.244 18.6078C63.5235 18.8171 62.677 18.921 61.7074 18.921C60.3796 18.921 59.3051 18.6443 58.4838 18.0881C57.6626 17.5334 57.005 16.7862 56.5111 15.848C56.0172 14.9098 55.7709 13.8242 55.7709 12.5896C55.7709 10.7399 56.2914 9.23434 57.3324 8.07565C58.3733 6.91696 59.7249 6.33691 61.387 6.33691C62.9876 6.33691 64.265 6.90011 65.2192 8.0265C66.1734 9.15148 66.6505 10.6599 66.6505 12.5503" fill="#485954"/>
<path d="M72.3629 6.60657V8.13464C73.4276 6.93662 74.6379 6.33691 75.9908 6.33691C76.7422 6.33691 77.4403 6.53354 78.0867 6.92539C78.7317 7.31864 79.2228 7.85655 79.56 8.53913C79.8944 9.22311 80.0637 10.3046 80.0637 11.7863V18.7412H77.6908V11.82C77.6908 10.5784 77.5033 9.6922 77.1269 9.1585C76.7492 8.62621 76.1196 8.35936 75.2367 8.35936C74.1076 8.35936 73.1492 8.92957 72.3629 10.0672V18.7412H69.9005V6.60657" fill="#485954"/>
<path d="M82.4852 6.74148V6.22463C82.884 5.83559 83.1638 5.45217 83.3233 5.07156C83.4842 4.69094 83.5766 4.16848 83.6045 3.50557C82.6783 3.20501 82.2166 2.62496 82.2166 1.76683C82.2166 1.27948 82.3747 0.863752 82.6951 0.518251C83.0155 0.17275 83.3961 0 83.834 0C84.3685 0 84.8078 0.240165 85.1492 0.717686C85.492 1.19521 85.664 1.80475 85.664 2.54772C85.664 3.53927 85.38 4.40864 84.8148 5.15582C84.2495 5.90441 83.473 6.43249 82.4852 6.74148Z" fill="#485954"/>
<path d="M84.388 17.8789V15.2806C85.0638 15.7623 85.7535 16.1528 86.4601 16.4505C87.1666 16.7497 87.7613 16.8986 88.2454 16.8986C88.7434 16.8986 89.1744 16.775 89.534 16.5264C89.8935 16.2792 90.074 15.9814 90.074 15.6359C90.074 15.282 89.9579 14.9871 89.7256 14.7511C89.4934 14.5166 88.9925 14.1781 88.2216 13.7371C86.6797 12.8719 85.6696 12.1332 85.1925 11.5194C84.7154 10.9071 84.4775 10.2385 84.4775 9.51383C84.4775 8.57845 84.8385 7.81582 85.5619 7.22454C86.2852 6.63326 87.217 6.33691 88.3559 6.33691C89.5396 6.33691 90.754 6.67118 91.9992 7.3383V9.70765C90.5847 8.83969 89.4276 8.4043 88.5294 8.4043C88.0663 8.4043 87.6941 8.50542 87.4101 8.70626C87.1261 8.9071 86.9848 9.17395 86.9848 9.504C86.9848 9.79051 87.1093 10.063 87.3583 10.3228C87.6074 10.5812 88.0565 10.8916 88.7057 11.2526L89.5591 11.7427C91.5739 12.8888 92.5812 14.1598 92.5812 15.5531C92.5812 16.5502 92.1923 17.3677 91.4172 18.0067C90.6407 18.6471 89.6431 18.9659 88.4245 18.9659C87.7067 18.9659 87.0673 18.8887 86.5049 18.7342C85.9452 18.5797 85.2387 18.2946 84.388 17.8789Z" fill="#485954"/>
<path d="M108.344 16.3199V12.7188L106.737 13.3396C105.918 13.6655 105.34 13.9927 105.002 14.3228C104.663 14.6528 104.494 15.0643 104.494 15.5559C104.494 16.0573 104.655 16.4674 104.977 16.7834C105.296 17.1008 105.711 17.2581 106.222 17.2581C106.986 17.2581 107.695 16.9463 108.344 16.3199ZM110.717 11.4464V16.6345C110.717 17.0502 110.86 17.2581 111.142 17.2581C111.433 17.2581 111.89 17.0488 112.508 16.6289V18.0249C111.964 18.3719 111.527 18.6078 111.198 18.7328C110.868 18.8578 110.523 18.921 110.163 18.921C109.135 18.921 108.53 18.5207 108.344 17.7202C107.323 18.5207 106.234 18.921 105.081 18.921C104.235 18.921 103.531 18.6415 102.967 18.0811C102.404 17.5207 102.121 16.8171 102.121 15.9688C102.121 15.202 102.395 14.5152 102.944 13.9112C103.492 13.3073 104.27 12.8284 105.279 12.4745L108.344 11.4155V10.7708C108.344 9.31299 107.617 8.58407 106.16 8.58407C104.853 8.58407 103.582 9.25822 102.345 10.6065V7.98436C103.278 6.88606 104.618 6.33691 106.367 6.33691C107.677 6.33691 108.726 6.68241 109.518 7.37201C109.781 7.59392 110.018 7.88745 110.229 8.25543C110.441 8.62199 110.574 8.98997 110.632 9.35653C110.689 9.7231 110.717 10.4197 110.717 11.4464Z" fill="#485954"/>
<path d="M114.657 6.60594H117.075V18.7406H114.657V6.60594ZM115.824 1.48242C116.217 1.48242 116.554 1.61866 116.834 1.89112C117.114 2.16359 117.254 2.49786 117.254 2.89251C117.254 3.27874 117.114 3.6116 116.834 3.8925C116.554 4.17339 116.217 4.31384 115.824 4.31384C115.456 4.31384 115.133 4.17199 114.853 3.88688C114.573 3.60177 114.433 3.27032 114.433 2.89251C114.433 2.52314 114.573 2.19589 114.853 1.91079C115.133 1.62568 115.456 1.48242 115.824 1.48242Z" fill="#485954"/>
<path d="M128.582 16.7187V8.97306C127.835 8.59385 127.081 8.40424 126.316 8.40424C125.122 8.40424 124.171 8.7989 123.464 9.58681C122.756 10.3747 122.404 11.4379 122.404 12.775C122.404 14.032 122.71 15.0011 123.326 15.6836C123.695 16.0909 124.086 16.3648 124.498 16.5067C124.911 16.6485 125.653 16.7187 126.724 16.7187H128.582ZM128.582 0.269531H131V18.7412H125.875C124.083 18.7412 122.653 18.1738 121.587 17.0389C120.519 15.9041 119.986 14.3831 119.986 12.473C119.986 10.6879 120.546 9.21884 121.665 8.06577C122.784 6.9141 124.211 6.33686 125.949 6.33686C126.756 6.33686 127.635 6.50259 128.582 6.83264" fill="#485954"/>
<path d="M5.22404 30.9201V30.3555C5.03656 30.5591 4.82249 30.7178 4.58185 30.8302C4.3426 30.9425 4.10335 30.9987 3.8641 30.9987C3.58427 30.9987 3.32544 30.9285 3.08759 30.7895C2.85113 30.6476 2.67205 30.458 2.55032 30.2178C2.43 29.9777 2.36984 29.5788 2.36984 29.0212V26.4707H3.24289V29.01C3.24289 29.4777 3.31005 29.8049 3.44436 29.9903C3.57868 30.1757 3.81373 30.2684 4.15092 30.2684C4.57205 30.2684 4.92883 30.0633 5.22404 29.6546V26.4707H6.09709V30.9201" fill="#485954"/>
<path d="M8.18395 26.4712V27.0218C8.5757 26.5878 9.02062 26.3701 9.51871 26.3701C9.79434 26.3701 10.0504 26.4431 10.2882 26.5864C10.5261 26.7311 10.7066 26.9277 10.8311 27.1791C10.9542 27.4291 11.0158 27.8266 11.0158 28.3687V30.9206H10.1427V28.3743C10.1427 27.9178 10.0742 27.5906 9.93565 27.394C9.79714 27.1988 9.56628 27.1004 9.24029 27.1004C8.82615 27.1004 8.47357 27.3111 8.18395 27.7296V30.9206H7.28851V26.4712" fill="#485954"/>
<path d="M11.604 27.1818L13.248 25.5498V26.4711H14.6583V27.2689H13.248V29.4402C13.248 29.9486 13.4593 30.2014 13.8818 30.2014C14.198 30.2014 14.531 30.1003 14.8822 29.8981V30.7155C14.545 30.9051 14.177 30.9992 13.7783 30.9992C13.3767 30.9992 13.0423 30.8826 12.7751 30.6466C12.6925 30.575 12.6226 30.4964 12.568 30.4079C12.5135 30.3194 12.4673 30.2028 12.4309 30.0596C12.3945 29.9163 12.3749 29.6438 12.3749 29.2408V27.2689H11.604" fill="#485954"/>
<path d="M15.5076 26.4711H16.3806V30.9205H15.5076V26.4711ZM15.9427 24.5947C16.0882 24.5947 16.2113 24.6453 16.3149 24.745C16.4184 24.8461 16.4702 24.9697 16.4702 25.1158C16.4702 25.2576 16.4184 25.3812 16.3149 25.4852C16.2113 25.5891 16.0882 25.6397 15.9427 25.6397C15.807 25.6397 15.6881 25.5877 15.5845 25.4824C15.481 25.377 15.4292 25.2548 15.4292 25.1158C15.4292 24.9796 15.481 24.8588 15.5845 24.7534C15.6881 24.6481 15.807 24.5947 15.9427 24.5947Z" fill="#485954"/>
<path d="M17.6551 30.9202H18.5295V24.1562H17.6551V30.9202Z" fill="#485954"/>
<path d="M28.3135 26.4707H29.2537L27.2992 30.9987H27.0095L25.7112 27.8991L24.4114 30.9987H24.1232L22.1574 26.4707H23.1004L24.2561 29.1701L25.3894 26.4707H26.0469L27.1564 29.1701" fill="#485954"/>
<path d="M31.739 27.2577C31.3165 27.2577 30.9709 27.3967 30.7009 27.6734C30.4308 27.9515 30.2951 28.3054 30.2951 28.7338C30.2951 29.1594 30.4322 29.5063 30.7093 29.7759C30.9863 30.0456 31.3431 30.179 31.7768 30.179C32.2077 30.179 32.5617 30.0428 32.8359 29.7703C33.1116 29.4978 33.2501 29.1495 33.2501 28.724C33.2501 28.3012 33.106 27.9515 32.8205 27.6734C32.5337 27.3967 32.1727 27.2577 31.739 27.2577ZM31.7908 26.46C32.4652 26.46 33.0276 26.6791 33.4739 27.1159C33.9216 27.5526 34.1455 28.1032 34.1455 28.7633C34.1455 29.4065 33.9188 29.9388 33.4641 30.363C33.0108 30.7871 32.44 30.9992 31.7516 30.9992C31.0856 30.9992 30.5288 30.7843 30.0811 30.3532C29.6347 29.9234 29.4109 29.3855 29.4109 28.7394C29.4109 28.0877 29.6361 27.5456 30.0895 27.1116C30.5414 26.6777 31.108 26.46 31.7908 26.46Z" fill="#485954"/>
<path d="M38.7246 27.6889V30.9206H37.8404V28.4319C37.8404 27.9361 37.7746 27.5906 37.6431 27.3954C37.5116 27.1988 37.2822 27.1004 36.9548 27.1004C36.7701 27.1004 36.6022 27.144 36.4497 27.2311C36.2972 27.3167 36.1237 27.4698 35.9264 27.6889V30.9206H35.0534V26.4712H35.9264V27.0541C36.3741 26.599 36.812 26.3701 37.2388 26.3701C37.8026 26.3701 38.2378 26.6426 38.547 27.1861C39.0143 26.6426 39.504 26.3701 40.0132 26.3701C40.4428 26.3701 40.7967 26.5288 41.0738 26.8448C41.3508 27.1608 41.4907 27.644 41.4907 28.2928V30.9206H40.6163V28.2746C40.6163 27.9024 40.5407 27.6173 40.391 27.4193C40.2399 27.2226 40.023 27.1229 39.7404 27.1229C39.378 27.1229 39.0394 27.3125 38.7246 27.6889Z" fill="#485954"/>
<path d="M43.3657 28.2353H45.5931C45.5707 27.8827 45.4658 27.6117 45.2797 27.4207C45.0936 27.2297 44.8432 27.1342 44.5298 27.1342C44.215 27.1342 43.9575 27.2297 43.7575 27.4207C43.5574 27.6117 43.4259 27.8827 43.3657 28.2353ZM46.4662 28.7633H43.3433C43.3657 29.1931 43.507 29.5344 43.7701 29.7872C44.0317 30.0414 44.3703 30.1678 44.7858 30.1678C45.3651 30.1678 45.8981 29.988 46.3878 29.6285V30.4866C46.1178 30.6678 45.8506 30.7956 45.5847 30.8729C45.3203 30.9501 45.0083 30.988 44.6529 30.988C44.1646 30.988 43.7687 30.8869 43.4679 30.6833C43.1656 30.4796 42.9236 30.2057 42.7417 29.8602C42.5598 29.5161 42.4703 29.1173 42.4703 28.665C42.4703 27.9867 42.6606 27.4333 43.0439 27.0092C43.4259 26.5836 43.9226 26.3701 44.5326 26.3701C45.1202 26.3701 45.5903 26.578 45.9401 26.9909C46.2899 27.4038 46.4662 27.9586 46.4662 28.6524" fill="#485954"/>
<path d="M48.2766 26.4712V27.0218C48.6684 26.5878 49.1133 26.3701 49.6114 26.3701C49.887 26.3701 50.143 26.4431 50.3809 26.5864C50.6187 26.7311 50.7992 26.9277 50.9224 27.1791C51.0455 27.4291 51.1084 27.8266 51.1084 28.3687V30.9206H50.2354V28.3743C50.2354 27.9178 50.1654 27.5906 50.0283 27.394C49.8898 27.1988 49.6575 27.1004 49.3329 27.1004C48.9188 27.1004 48.5662 27.3111 48.2766 27.7296V30.9206H47.3812V26.4712" fill="#485954"/>
<path d="M57.3637 26.9202L57.7387 26.6576C58.087 26.4132 58.2605 26.1309 58.2605 25.8078C58.2605 25.6098 58.1892 25.4441 58.0451 25.3107C57.901 25.1786 57.7191 25.1112 57.498 25.1112C57.2854 25.1112 57.1091 25.173 56.9692 25.2952C56.8306 25.4188 56.7607 25.5733 56.7607 25.7573C56.7607 25.9357 56.8138 26.1295 56.923 26.3373C57.0293 26.5466 57.1776 26.7404 57.3637 26.9202ZM58.0003 29.5199L58.2172 29.3218L57.1203 28.0578L56.6963 28.357C56.194 28.6954 55.9436 29.0381 55.9436 29.3864C55.9436 29.5775 56.0261 29.7404 56.1898 29.8752C56.3535 30.01 56.5522 30.0774 56.7831 30.0774C56.9636 30.0774 57.1678 30.0269 57.3945 29.923C57.6211 29.819 57.8226 29.6856 58.0003 29.5199ZM59.6037 30.9201L58.8076 30.0016C58.739 30.0704 58.6243 30.1673 58.4592 30.298L58.4494 30.3078C58.2214 30.4974 57.9387 30.6603 57.603 30.7951C57.2672 30.9314 56.951 30.9988 56.6557 30.9988C56.1884 30.9988 55.7939 30.8471 55.4679 30.5409C55.1433 30.2376 54.981 29.864 54.981 29.4258C54.981 29.1098 55.0607 28.8247 55.2202 28.569C55.3783 28.3148 55.6386 28.055 55.9982 27.791L56.0122 27.7755C56.2234 27.6168 56.4067 27.496 56.5606 27.4118C56.0527 26.8682 55.7981 26.3444 55.7981 25.8444C55.7981 25.3837 55.9548 25.0101 56.2668 24.7222C56.5802 24.4357 56.9859 24.291 57.4854 24.291C57.9751 24.291 58.3781 24.4329 58.6929 24.7138C59.0091 24.9961 59.1672 25.3542 59.1672 25.7924C59.1672 26.3851 58.7698 26.9609 57.9765 27.5213L57.908 27.5747L58.8566 28.6589C59.1378 28.3528 59.384 27.9876 59.5925 27.5606H60.5551C60.3214 28.1632 59.9549 28.7558 59.4526 29.3387L60.8237 30.9201" fill="#485954"/>
<path d="M67.8047 29.8869V30.7549C67.3626 30.9178 66.9317 30.9993 66.5091 30.9993C65.8124 30.9993 65.2583 30.7928 64.8442 30.3785C64.43 29.9642 64.223 29.4094 64.223 28.7142C64.223 28.0119 64.4245 27.4459 64.8288 27.0162C65.2317 26.585 65.7634 26.3701 66.421 26.3701C66.6504 26.3701 66.8561 26.3926 67.0394 26.4361C67.2213 26.4797 67.4465 26.5611 67.7152 26.6805V27.6173C67.2675 27.3336 66.8533 27.1903 66.4714 27.1903C66.074 27.1903 65.7466 27.3308 65.4906 27.6117C65.2345 27.8926 65.1072 28.2507 65.1072 28.6847C65.1072 29.1425 65.2443 29.5063 65.5214 29.7746C65.797 30.0442 66.1692 30.1791 66.6379 30.1791C66.9764 30.1791 67.3654 30.0821 67.8047 29.8869Z" fill="#485954"/>
<path d="M68.7642 24.1562H69.6386V27.0382C70.0038 26.593 70.4585 26.3697 71.0014 26.3697C71.298 26.3697 71.5624 26.4441 71.7975 26.593C72.0325 26.7419 72.206 26.9483 72.3208 27.2096C72.4341 27.4722 72.4914 27.8613 72.4914 28.3781V30.9202H71.6184V28.1562C71.6184 27.829 71.5386 27.5649 71.3791 27.3655C71.2196 27.166 71.0098 27.0663 70.7495 27.0663C70.5551 27.0663 70.3732 27.1169 70.2039 27.2166C70.0318 27.3177 69.8443 27.4834 69.6386 27.7152V30.9202H68.7642" fill="#485954"/>
<path d="M73.7145 26.4711H74.5876V30.9205H73.7145V26.4711ZM74.1482 24.5947C74.2938 24.5947 74.4183 24.6453 74.5218 24.745C74.6253 24.8461 74.6771 24.9697 74.6771 25.1158C74.6771 25.2576 74.6253 25.3812 74.5218 25.4852C74.4183 25.5891 74.2938 25.6397 74.1482 25.6397C74.0139 25.6397 73.8936 25.5877 73.7901 25.4824C73.6879 25.377 73.6362 25.2548 73.6362 25.1158C73.6362 24.9796 73.6879 24.8588 73.7901 24.7534C73.8936 24.6481 74.0139 24.5947 74.1482 24.5947Z" fill="#485954"/>
<path d="M75.862 30.9202H76.7351V24.1562H75.862V30.9202Z" fill="#485954"/>
<path d="M80.9529 30.1674V27.343C80.6787 27.204 80.4031 27.1337 80.1232 27.1337C79.6867 27.1337 79.3383 27.2784 79.0795 27.5663C78.8207 27.8528 78.6906 28.2405 78.6906 28.7292C78.6906 29.1871 78.8039 29.541 79.0291 29.7896C79.1635 29.9385 79.3062 30.0396 79.4573 30.0902C79.6084 30.1421 79.8812 30.1674 80.273 30.1674H80.9529ZM80.9529 24.1562H81.8372V30.9202H79.961C79.3062 30.9202 78.7829 30.7123 78.3925 30.2952C78.0022 29.8795 77.8077 29.3219 77.8077 28.6211C77.8077 27.9666 78.012 27.4273 78.4219 27.0045C78.8305 26.5818 79.3537 26.3697 79.9889 26.3697C80.2841 26.3697 80.6059 26.4329 80.9529 26.5579" fill="#485954"/>
<path d="M83.9492 26.4712V27.4797L83.9967 27.4024C84.4193 26.7142 84.8432 26.3701 85.2657 26.3701C85.5959 26.3701 85.9401 26.5387 86.2997 26.8757L85.838 27.651C85.533 27.3589 85.2518 27.2128 84.9915 27.2128C84.7103 27.2128 84.4654 27.349 84.2598 27.6201C84.0527 27.8926 83.9492 28.2142 83.9492 28.5864V30.9206H83.0649V26.4712" fill="#485954"/>
<path d="M87.3731 28.2353H89.6005C89.5781 27.8827 89.4732 27.6117 89.2871 27.4207C89.101 27.2297 88.8506 27.1342 88.5372 27.1342C88.2224 27.1342 87.9649 27.2297 87.7648 27.4207C87.5648 27.6117 87.4333 27.8827 87.3731 28.2353ZM90.4735 28.7633H87.3507C87.3731 29.1931 87.5144 29.5344 87.7774 29.7872C88.0391 30.0414 88.3777 30.1678 88.7932 30.1678C89.3724 30.1678 89.9055 29.988 90.3952 29.6285V30.4866C90.1252 30.6678 89.8579 30.7956 89.5921 30.8729C89.3277 30.9501 89.0171 30.988 88.6603 30.988C88.172 30.988 87.776 30.8869 87.4752 30.6833C87.173 30.4796 86.931 30.2057 86.7491 29.8602C86.5672 29.5161 86.4777 29.1173 86.4777 28.665C86.4777 27.9867 86.6679 27.4333 87.0513 27.0092C87.4333 26.5836 87.9299 26.3701 88.54 26.3701C89.1276 26.3701 89.5977 26.578 89.9475 26.9909C90.2972 27.4038 90.4735 27.9586 90.4735 28.6524" fill="#485954"/>
<path d="M92.2879 26.4712V27.0218C92.6796 26.5878 93.1231 26.3701 93.6212 26.3701C93.8983 26.3701 94.1543 26.4431 94.3922 26.5864C94.63 26.7311 94.8105 26.9277 94.9336 27.1791C95.0567 27.4291 95.1183 27.8266 95.1183 28.3687V30.9206H94.2466V28.3743C94.2466 27.9178 94.1767 27.5906 94.0396 27.394C93.8997 27.1988 93.6688 27.1004 93.3442 27.1004C92.9287 27.1004 92.5775 27.3111 92.2879 27.7296V30.9206H91.3924V26.4712" fill="#485954"/>
<path d="M101.256 30.0386V28.7072L100.667 28.9361C100.368 29.0569 100.156 29.1777 100.032 29.2984C99.9074 29.4206 99.8458 29.5723 99.8458 29.7535C99.8458 29.9389 99.9046 30.0906 100.022 30.2071C100.14 30.3237 100.292 30.3813 100.478 30.3813C100.758 30.3813 101.018 30.2675 101.256 30.0386ZM102.118 28.2367V30.1313C102.118 30.283 102.168 30.3588 102.269 30.3588C102.373 30.3588 102.535 30.2802 102.756 30.1229V30.6622C102.56 30.7886 102.402 30.8743 102.283 30.9192C102.164 30.9656 102.041 30.988 101.911 30.988C101.542 30.988 101.323 30.842 101.256 30.5512C100.881 30.842 100.482 30.988 100.059 30.988C99.7493 30.988 99.4891 30.8855 99.2834 30.6804C99.0763 30.4754 98.9728 30.217 98.9728 29.9066C98.9728 29.6243 99.0735 29.3729 99.275 29.151C99.4751 28.9291 99.7619 28.7535 100.131 28.6243L101.256 28.2353V27.9965C101.256 27.46 100.989 27.1903 100.453 27.1903C99.9732 27.1903 99.5059 27.4375 99.0512 27.9319V26.9726C99.3925 26.571 99.8836 26.3701 100.524 26.3701C101.004 26.3701 101.388 26.4965 101.679 26.7493C101.775 26.8294 101.862 26.9375 101.939 27.0709C102.017 27.2058 102.066 27.3392 102.086 27.4726C102.108 27.6075 102.118 27.8617 102.118 28.2367Z" fill="#485954"/>
<path d="M104.468 26.4712V27.4797L104.517 27.4024C104.94 26.7142 105.362 26.3701 105.786 26.3701C106.116 26.3701 106.461 26.5387 106.819 26.8757L106.357 27.651C106.054 27.3589 105.771 27.2128 105.512 27.2128C105.229 27.2128 104.985 27.349 104.779 27.6201C104.572 27.8926 104.468 28.2142 104.468 28.5864V30.9206H103.584V26.4712" fill="#485954"/>
<path d="M107.896 28.2353H110.124C110.1 27.8827 109.996 27.6117 109.81 27.4207C109.624 27.2297 109.374 27.1342 109.06 27.1342C108.745 27.1342 108.488 27.2297 108.288 27.4207C108.088 27.6117 107.956 27.8827 107.896 28.2353ZM110.995 28.7633H107.874C107.896 29.1931 108.037 29.5344 108.299 29.7872C108.562 30.0414 108.901 30.1678 109.316 30.1678C109.895 30.1678 110.429 29.988 110.918 29.6285V30.4866C110.648 30.6678 110.381 30.7956 110.115 30.8729C109.851 30.9501 109.54 30.988 109.183 30.988C108.695 30.988 108.299 30.8869 107.998 30.6833C107.696 30.4796 107.454 30.2057 107.272 29.8602C107.09 29.5161 107.001 29.1173 107.001 28.665C107.001 27.9867 107.191 27.4333 107.574 27.0092C107.956 26.5836 108.453 26.3701 109.063 26.3701C109.651 26.3701 110.119 26.578 110.47 26.9909C110.82 27.4038 110.995 27.9586 110.995 28.6524" fill="#485954"/>
<path d="M114.713 30.6017V29.6509C114.961 29.8251 115.216 29.9655 115.476 30.0737C115.736 30.1818 115.954 30.2352 116.132 30.2352C116.317 30.2352 116.475 30.1902 116.608 30.1003C116.739 30.0104 116.806 29.9023 116.806 29.7759C116.806 29.6467 116.763 29.5399 116.678 29.4543C116.592 29.3686 116.408 29.245 116.124 29.0821C115.557 28.7661 115.185 28.495 115.01 28.2703C114.834 28.0456 114.747 27.8012 114.747 27.5358C114.747 27.1931 114.88 26.9122 115.146 26.6959C115.412 26.4782 115.753 26.3701 116.173 26.3701C116.608 26.3701 117.054 26.4922 117.512 26.738V27.606C116.987 27.2914 116.559 27.1341 116.226 27.1341C116.054 27.1341 115.915 27.172 115.81 27.245C115.705 27.3181 115.654 27.415 115.654 27.5358C115.654 27.6397 115.701 27.7394 115.798 27.8335C115.896 27.9276 116.064 28.0414 116.301 28.1734L116.616 28.3532C117.355 28.7731 117.724 29.2394 117.724 29.7492C117.724 30.1144 117.582 30.4149 117.296 30.6481C117.011 30.8826 116.644 30.9992 116.196 30.9992C115.932 30.9992 115.697 30.9711 115.491 30.9149C115.284 30.8588 115.025 30.7548 114.713 30.6017Z" fill="#485954"/>
<path d="M120.643 30.0386V28.7072L120.055 28.9361C119.754 29.0569 119.543 29.1777 119.42 29.2984C119.294 29.4206 119.234 29.5723 119.234 29.7535C119.234 29.9389 119.293 30.0906 119.41 30.2071C119.528 30.3237 119.679 30.3813 119.866 30.3813C120.146 30.3813 120.405 30.2675 120.643 30.0386ZM121.505 28.2367V30.1313C121.505 30.283 121.557 30.3588 121.657 30.3588C121.761 30.3588 121.922 30.2802 122.144 30.1229V30.6622C121.947 30.7886 121.79 30.8743 121.671 30.9192C121.552 30.9656 121.428 30.988 121.299 30.988C120.928 30.988 120.71 30.842 120.643 30.5512C120.269 30.842 119.869 30.988 119.445 30.988C119.136 30.988 118.877 30.8855 118.67 30.6804C118.464 30.4754 118.36 30.217 118.36 29.9066C118.36 29.6243 118.46 29.3729 118.662 29.151C118.863 28.9291 119.149 28.7535 119.518 28.6243L120.643 28.2353V27.9965C120.643 27.46 120.376 27.1903 119.841 27.1903C119.36 27.1903 118.893 27.4375 118.439 27.9319V26.9726C118.781 26.571 119.27 26.3701 119.913 26.3701C120.391 26.3701 120.776 26.4965 121.067 26.7493C121.163 26.8294 121.249 26.9375 121.326 27.0709C121.404 27.2058 121.453 27.3392 121.474 27.4726C121.495 27.6075 121.505 27.8617 121.505 28.2367Z" fill="#485954"/>
<path d="M123.013 26.4713V26.2059C123.013 25.491 123.165 24.9573 123.468 24.6062C123.77 24.2551 124.134 24.0781 124.558 24.0781C124.74 24.0781 124.957 24.1076 125.207 24.1652V25.0219C125.066 24.977 124.93 24.9545 124.803 24.9545C124.459 24.9545 124.219 25.0472 124.087 25.2298C123.954 25.4124 123.886 25.7382 123.886 26.2073V26.4713H124.681V27.2691H123.886V30.9207H123.013V27.2691H122.375V26.4713" fill="#485954"/>
<path d="M125.94 28.2353H128.168C128.144 27.8827 128.04 27.6117 127.854 27.4207C127.668 27.2297 127.418 27.1342 127.104 27.1342C126.79 27.1342 126.532 27.2297 126.332 27.4207C126.132 27.6117 126.001 27.8827 125.94 28.2353ZM129.039 28.7633H125.918C125.94 29.1931 126.082 29.5344 126.343 29.7872C126.606 30.0414 126.945 30.1678 127.36 30.1678C127.94 30.1678 128.473 29.988 128.962 29.6285V30.4866C128.692 30.6678 128.425 30.7956 128.159 30.8729C127.895 30.9501 127.584 30.988 127.228 30.988C126.739 30.988 126.343 30.8869 126.042 30.6833C125.74 30.4796 125.498 30.2057 125.316 29.8602C125.134 29.5161 125.045 29.1173 125.045 28.665C125.045 27.9867 125.235 27.4333 125.619 27.0092C126.001 26.5836 126.497 26.3701 127.107 26.3701C127.695 26.3701 128.164 26.578 128.515 26.9909C128.865 27.4038 129.039 27.9586 129.039 28.6524" fill="#485954"/>
</svg>
